<svg width="24" height="24" viewBox="0 0 24 24" fill="none" xmlns="http://www.w3.org/2000/svg">
<g clip-path="url(#clip0_2689_5870)">
<path d="M21.5 10.699C21.4994 10.6986 21.4989 10.698 21.4984 10.6975L13.34 2.53945C12.9923 2.19148 12.5299 2 12.0382 2C11.5464 2 11.084 2.19148 10.7361 2.53941L2.58196 10.6934C2.57923 10.6961 2.57634 10.699 2.57376 10.7018C1.85962 11.42 1.86087 12.5853 2.57728 13.3017C2.90454 13.6291 3.33665 13.8187 3.79888 13.8386C3.81778 13.8405 3.83673 13.8414 3.85579 13.8414H4.18079V19.8451C4.18079 21.0333 5.14759 22 6.33579 22H9.52763C9.85126 22 10.1136 21.7375 10.1136 21.414V16.707C10.1136 16.1649 10.5547 15.7239 11.0968 15.7239H12.9795C13.5217 15.7239 13.9626 16.1649 13.9626 16.707V21.4141C13.9626 21.7375 14.2249 22 14.5485 22H17.7404C18.9287 22 19.8954 21.0334 19.8954 19.8452V13.8414H20.1969C20.6885 13.8414 21.1509 13.6499 21.4989 13.3018C22.2161 12.5844 22.2164 11.4169 21.5 10.699L21.5 10.699ZM20.6702 12.4733C20.6082 12.5357 20.5344 12.5852 20.4532 12.6188C20.372 12.6525 20.2848 12.6698 20.1969 12.6696H19.3094C18.9858 12.6696 18.7234 12.9318 18.7234 13.2555V19.8452C18.7234 20.3871 18.2825 20.8281 17.7403 20.8281H15.1345V16.707C15.1345 15.5188 14.1678 14.552 12.9794 14.552H11.0969C9.90853 14.552 8.94173 15.5188 8.94173 16.707V20.8281H6.33587C5.79384 20.8281 5.35271 20.3871 5.35271 19.8452V13.2555C5.35271 12.9318 5.0904 12.6695 4.76677 12.6695H3.89454C3.8854 12.6689 3.87624 12.6685 3.86708 12.6683C3.69251 12.6652 3.5288 12.596 3.40614 12.4731C3.14521 12.2122 3.14521 11.7876 3.40614 11.5265C3.40626 11.5265 3.40626 11.5263 3.40642 11.5262L3.40689 11.5257L11.565 3.36797C11.6269 3.30559 11.7007 3.25613 11.7819 3.22247C11.8631 3.18881 11.9502 3.17161 12.0382 3.17188C12.2168 3.17188 12.3849 3.24145 12.5113 3.36797L20.6676 11.5241L20.6714 11.5277C20.931 11.7891 20.9305 12.2129 20.6702 12.4733Z" fill="white"/>
</g>
<defs>
<clipPath id="clip0_2689_5870">
<rect width="20" height="20" fill="white" transform="translate(2 2)"/>
</clipPath>
</defs>
</svg>
