<svg width="25" height="24" viewBox="0 0 25 24" fill="none" xmlns="http://www.w3.org/2000/svg">
<path d="M9.56426 11.2644C9.36916 11.2644 9.18205 11.1869 9.04409 11.0489C8.90614 10.911 8.82863 10.7239 8.82863 10.5288V8.32876C8.81873 8.22665 8.83029 8.12359 8.86258 8.02621C8.89487 7.92883 8.94717 7.83928 9.01612 7.76332C9.08507 7.68735 9.16915 7.62665 9.26296 7.5851C9.35677 7.54356 9.45823 7.5221 9.56082 7.5221C9.66341 7.5221 9.76487 7.54356 9.85868 7.5851C9.95249 7.62665 10.0366 7.68735 10.1055 7.76332C10.1745 7.83928 10.2268 7.92883 10.2591 8.02621C10.2914 8.12359 10.3029 8.22665 10.293 8.32876V10.5288C10.293 10.7227 10.2165 10.9088 10.08 11.0465C9.94351 11.1843 9.75816 11.2626 9.56426 11.2644ZM12.4999 11.2644C12.3048 11.2644 12.1177 11.1869 11.9797 11.0489C11.8418 10.911 11.7643 10.7239 11.7643 10.5288V7.60001C11.7819 7.41806 11.8667 7.24921 12.002 7.12634C12.1374 7.00348 12.3136 6.93542 12.4964 6.93542C12.6792 6.93542 12.8555 7.00348 12.9909 7.12634C13.1262 7.24921 13.211 7.41806 13.2286 7.60001V10.5356C13.2268 10.7284 13.1495 10.9127 13.0132 11.049C12.8769 11.1852 12.6926 11.2626 12.4999 11.2644ZM15.4355 11.2644C15.2404 11.2644 15.0533 11.1869 14.9153 11.0489C14.7774 10.911 14.6999 10.7239 14.6999 10.5288V6.13564C14.69 6.03352 14.7015 5.93047 14.7338 5.83309C14.7661 5.73571 14.8184 5.64616 14.8874 5.57019C14.9563 5.49422 15.0404 5.43352 15.1342 5.39198C15.228 5.35044 15.3295 5.32898 15.4321 5.32898C15.5347 5.32898 15.6361 5.35044 15.7299 5.39198C15.8237 5.43352 15.9078 5.49422 15.9768 5.57019C16.0457 5.64616 16.098 5.73571 16.1303 5.83309C16.1626 5.93047 16.1742 6.03352 16.1643 6.13564V10.5356C16.1625 10.7284 16.0851 10.9127 15.9488 11.049C15.8126 11.1852 15.6282 11.2626 15.4355 11.2644Z" fill="white"/>
<path d="M18.3643 23H6.63558C5.857 23 5.11032 22.6907 4.55978 22.1402C4.00924 21.5896 3.69996 20.843 3.69996 20.0644V6.775C3.69912 6.237 3.81699 5.70543 4.04515 5.21821C4.27332 4.73098 4.60616 4.30009 5.01996 3.95625L7.54996 1.8525C8.20825 1.30392 9.03743 1.0024 9.89433 1L18.3643 1C19.1429 1 19.8896 1.30929 20.4401 1.85982C20.9907 2.41036 21.3 3.15705 21.3 3.93563V20.0644C21.3 20.843 20.9907 21.5896 20.4401 22.1402C19.8896 22.6907 19.1429 23 18.3643 23ZM9.89433 2.46438C9.39141 2.47231 8.9063 2.65181 8.51933 2.97312L5.95496 5.08375C5.70686 5.29012 5.50736 5.5487 5.3707 5.84105C5.23403 6.13339 5.16357 6.45229 5.16433 6.775V20.0644C5.16614 20.4522 5.321 20.8236 5.59523 21.0978C5.86947 21.3721 6.24089 21.5269 6.62871 21.5288H18.3643C18.7522 21.5269 19.1236 21.3721 19.3978 21.0978C19.672 20.8236 19.8269 20.4522 19.8287 20.0644V3.93563C19.8269 3.54781 19.672 3.17639 19.3978 2.90215C19.1236 2.62792 18.7522 2.47306 18.3643 2.47125L9.89433 2.46438Z" fill="white"/>
<path d="M16.8999 18.6H8.09987C7.99776 18.6099 7.8947 18.5983 7.79732 18.566C7.69994 18.5338 7.61039 18.4815 7.53442 18.4125C7.45846 18.3436 7.39775 18.2595 7.35621 18.1657C7.31467 18.0719 7.29321 17.9704 7.29321 17.8678C7.29321 17.7652 7.31467 17.6638 7.35621 17.5699C7.39775 17.4761 7.45846 17.3921 7.53442 17.3231C7.61039 17.2542 7.69994 17.2018 7.79732 17.1696C7.8947 17.1373 7.99776 17.1257 8.09987 17.1356H16.8999C17.002 17.1257 17.105 17.1373 17.2024 17.1696C17.2998 17.2018 17.3893 17.2542 17.4653 17.3231C17.5413 17.3921 17.602 17.4761 17.6435 17.5699C17.6851 17.6638 17.7065 17.7652 17.7065 17.8678C17.7065 17.9704 17.6851 18.0719 17.6435 18.1657C17.602 18.2595 17.5413 18.3436 17.4653 18.4125C17.3893 18.4815 17.2998 18.5338 17.2024 18.566C17.105 18.5983 17.002 18.6099 16.8999 18.6ZM16.8999 14.9356H8.09987C7.91792 14.918 7.74906 14.8332 7.6262 14.6978C7.50334 14.5625 7.43528 14.3862 7.43528 14.2034C7.43528 14.0206 7.50334 13.8444 7.6262 13.709C7.74906 13.5737 7.91792 13.4889 8.09987 13.4712H16.8999C17.002 13.4613 17.105 13.4729 17.2024 13.5052C17.2998 13.5375 17.3893 13.5898 17.4653 13.6587C17.5413 13.7277 17.602 13.8118 17.6435 13.9056C17.6851 13.9994 17.7065 14.1008 17.7065 14.2034C17.7065 14.306 17.6851 14.4075 17.6435 14.5013C17.602 14.5951 17.5413 14.6792 17.4653 14.7481C17.3893 14.8171 17.2998 14.8694 17.2024 14.9017C17.105 14.934 17.002 14.9455 16.8999 14.9356Z" fill="white"/>
</svg>
