<svg width="284" height="754" viewBox="0 0 284 754" fill="none" xmlns="http://www.w3.org/2000/svg">
<path d="M190.663 379V396.5M190.663 443V407.5M190.663 396.5H196.663V399.5M190.663 396.5V407.5M190.663 407.5H196.663V406M196.663 399.5L245.163 398.5V406H196.663M196.663 399.5V406M196.663 447V445H189.663V455H196.663V453M196.663 447H243.163V453H196.663M196.663 447V453M192.163 456.5H188.913M188.913 456.5H185.663V448V460.5L180.163 460M188.913 456.5V463M188.913 465V464.375M188.913 463H182.163M188.913 463V464.375M180.163 463H182.163M182.163 463V464.375M182.163 468.5V465.75M182.163 465.75H179.663M182.163 465.75V464.375M182.163 464.375H188.913" stroke="#DCDCDC"/>
<path d="M191.163 465L243.163 464.5V406V390.5" stroke="#DCDCDC"/>
<path d="M111.163 352V334C112.329 329.333 119.063 320.3 136.663 321.5C158.663 323 168.663 321 171.663 334V383L145.663 382.57M110.663 351.5L110.695 353.5M110.695 353.5H116.163V361H110.818M110.695 353.5L110.818 361M110.818 361L111.163 382L142.163 382.512M142.163 337.5V382.512M142.163 382.512L145.663 382.57M145.663 382.57V337.5M136.663 362V352L116.163 351.5V362H136.663Z" stroke="#DCDCDC"/>
<path d="M228.163 23.5C231.947 23.0633 237.347 23.2178 242.163 24.8964M253.163 41L245.663 52V55.5H253.163M253.163 41C253.318 37.8242 252.8 35.1847 251.802 33M253.163 41C253.163 42.5207 253.163 47.799 253.163 52M253.163 55.5C253.163 54.5413 253.163 53.3242 253.163 52M253.163 55.5L266.163 44.5M251.802 33L245.663 49.5L237.663 42.5L242.163 24.8964M251.802 33C250.713 24.2 243.255 17.3333 239.663 15H221.163L216.163 11.5H242.163C248.563 15.9 253.163 26 254.663 30.5M251.802 33C251.644 32.6555 251.475 32.3222 251.294 32M242.163 24.8964C245.902 26.1998 249.289 28.4221 251.294 32M251.294 32L253.163 52M253.163 52L262.663 42.5" stroke="#DCDCDC"/>
<path d="M256.163 74.5C256.163 75 253.163 77.5 254.663 85.5V103.5L256.663 103L256.163 128H253.663V126H250.663V125H248.663L253.663 124V93L252.663 64.5" stroke="#DCDCDC"/>
<path d="M202.163 219C200.829 219.333 198.263 220.7 198.663 223.5C199.063 226.3 198.829 237.667 198.663 243L204.663 252.5H235.163V241.5H236.663" stroke="#DCDCDC"/>
<path d="M178.163 200L179.163 241.5H180.663L181.163 230.5H182.663" stroke="#DCDCDC"/>
<path d="M181.163 221V225H195.663M195.663 225V234H197.663V225H195.663ZM199.663 225V230H245.663L243.663 234H199.663V243.5H234.163L252.163 221L199.663 222L201.163 219L253.163 217" stroke="#DCDCDC"/>
<path d="M116.163 204H113.413M110.663 204H113.413M113.413 204V208H111.663M110.663 208H111.663M116.163 208H114.663M114.663 208V213.5H112.663H111.663M114.663 208H111.663M111.663 213.5V208M111.663 213.5V223.5L113.413 231.5H117.663M117.663 231.5V225L115.663 223.5V221.5L117.663 217H122.163L129.163 230.5L127.163 217V206L141.663 230.5V200.5H143.663L152.163 229L156.163 206H160.163M117.663 231.5H168.663L171.663 217L170.463 213.5M160.163 206H171.663L171.163 211.5L170.463 213.5M160.163 206L164.163 231.5L170.463 213.5" stroke="#DCDCDC"/>
<path d="M204.163 51.5C208.163 53.8333 216.263 61.7 216.663 74.5V152M216.663 152V166.5L70.6626 164.534M216.663 152H66.6626L68.1626 71V164.5L70.6626 164.534M55.1626 145H51.1626M47.1626 145H51.1626M51.1626 145V166.5L70.6626 167V164.534M35.1626 166.5L36.6626 90C36.1626 76.5 37.6626 48.5 47.6626 44.5" stroke="#DCDCDC"/>
<path d="M6.16259 60C6.16259 59.5 4.66259 55.5 7.16259 52.5C9.16259 50.1 17.6626 47.5 21.6626 46.5L19.6626 43.5L24.1626 49.5L27.1626 48.5M27.1626 48.5L21.6626 41M27.1626 48.5H30.6626M30.6626 48.5V52.5H32.1626C32.1626 53 32.1626 54.1 32.1626 54.5C32.1626 54.9 32.1626 55.6667 32.1626 56H32.6626V52H33.6626V48.5L36.1626 48L32.6626 42.5H31.1626L30.6626 48.5ZM32.1626 35.5L31.6626 41.5V64V126.5M31.6626 126.5C30.4959 125.667 28.1626 124.9 28.1626 128.5C28.1626 131.615 27.4436 135.45 28.1626 136.685M31.6626 126.5C32.1642 128.381 32.6469 131.96 31.6626 134.469M28.1626 136.685C28.4821 137.234 29.0857 137.269 30.1626 136.5C30.8559 136.005 31.3387 135.295 31.6626 134.469M28.1626 136.685V155.5M28.1626 155.5V181.5M28.1626 155.5C26.4959 157 23.1626 160.4 23.1626 162C23.1626 163.6 23.1626 177 23.1626 183.5V184.5H28.1626V181.5M28.1626 181.5H31.6626M31.6626 181.5V134.469M31.6626 181.5L45.6626 181.647M79.1626 182L71.1626 181.916M45.6626 181.647V190H30.1626M45.6626 181.647L56.1626 181.758M26.6626 190H30.1626M30.1626 190V181L48.1626 181.525M56.1626 181.758L55.1626 181.729M56.1626 181.758L63.1626 181.832M55.1626 195.5V181.729M55.1626 181.729L48.1626 181.525M63.1626 181.832V196.5H70.6626L71.1626 181.916M63.1626 181.832L71.1626 181.916M48.1626 181.525V184.5M48.1626 197.5V184.5M48.1626 184.5H79.1626" stroke="#DCDCDC"/>
<path d="M167.163 176.5C167.963 176.5 176.496 176.5 180.663 176.5L179.663 172.5H189.663M189.663 172.5V176.5H238.163V172.5H237.163M189.663 172.5H237.163M249.663 167C249.663 166.503 249.287 166.421 248.663 166.608M237.163 172.5C239.566 172.5 246.143 167.364 248.663 166.608M248.663 166.608L229.163 165.5M247.663 93.5V165.5L246.163 64L244.663 52C242.829 47.5 237.363 39.2 230.163 42V46L228.163 23.5C226.663 19.8333 221.463 12.4 212.663 12H221.163" stroke="#DCDCDC"/>
<path d="M187.663 182V173.5L122.663 172.593M122.663 172.593L80.1626 172V183H96.1626V173L122.663 172.593ZM122.663 189.72C114.709 189.711 108.91 189.649 108.163 189.5C107.072 189.282 106.527 188.658 106.283 188M122.663 189.72C125.875 189.723 129.438 189.719 133.163 189.708M122.663 189.72V188M122.663 176H106.163V179M122.663 176H124.663M122.663 176V179M124.663 176V189.5L132.663 189.695M124.663 176H132.663M133.163 189.708L132.663 189.695M133.163 189.708C135.45 189.701 137.798 189.692 140.163 189.681M132.663 176V189.695M132.663 176H140.163M140.163 176V189.681M140.163 176H153.663M140.163 189.681C142.327 189.672 144.505 189.66 146.663 189.648M146.663 176.5V189.648M146.663 189.648C149.035 189.635 151.384 189.62 153.663 189.605M153.663 176V189.605M153.663 176H161.663M153.663 189.605C156.462 189.586 159.157 189.566 161.663 189.546M161.663 176H167.163V189.5C165.472 189.515 163.625 189.53 161.663 189.546M161.663 176V189.546M106.163 179H122.663M106.163 179V182.75M122.663 179V182.75M106.163 182.75H122.663M106.163 182.75V185.5M122.663 182.75V185.5M106.163 185.5V186.5C106.087 186.879 106.08 187.451 106.283 188M106.163 185.5H122.663M122.663 185.5V188M106.283 188H122.663" stroke="#DCDCDC"/>
<path d="M31.1626 21C31.6626 19.5 38.6626 2.5 43.1626 2.5C46.7626 2.5 59.6626 2.5 65.6626 2.5L66.6626 0.5H68.6626M221.163 3L217.663 0.5H196.163L195.354 1.67647M221.163 3V11.5H248.663C247.663 8.33333 244.963 2.2 242.163 3C239.363 3.8 226.996 3.33333 221.163 3ZM168.163 1.67647L165.663 0.5H159.163M168.163 1.67647L182.663 8.5H190.663L195.354 1.67647M168.163 1.67647H195.354M68.6626 0.5L74.1626 11.5H98.6626L90.6626 0.5M68.6626 0.5H90.6626M90.6626 0.5H159.163M159.163 0.5L180.663 11.5H195.354" stroke="#DCDCDC"/>
<path d="M67.6626 41V47H75.6626V35.5M75.6626 35.5L197.663 34L207.663 35.5M75.6626 35.5L208.251 35.9624M207.663 35.5V45.5L214.663 47V41L208.251 35.9624M207.663 35.5L208.251 35.9624M93.6626 50.5L101.163 67H181.163L188.163 50.5H93.6626Z" stroke="#DCDCDC"/>
<g class="tyre-group" data-code="Ci4">
<path fill-rule="evenodd" clip-rule="evenodd" d="M87.5345 614.551L86.9126 614.5H83.0059L84.1906 622.224C84.2357 622.521 84.2357 622.835 84.1906 623.132L82.6764 633.009L84.1906 642.885C84.2357 643.182 84.2357 643.496 84.1906 643.793L82.6764 653.67L84.1906 663.546L84.203 663.637C84.2154 663.742 84.2227 663.848 84.2244 663.957V664.043C84.2227 664.152 84.2154 664.258 84.203 664.363L84.1906 664.454L82.6764 674.33L84.1906 684.207C84.2357 684.504 84.2357 684.818 84.1906 685.115L82.6764 694.991L84.1906 704.868C84.2357 705.165 84.2357 705.479 84.1906 705.776L83.0059 713.5H86.9126C87.1222 713.5 87.33 713.483 87.5345 713.449V614.551ZM81.245 614.5H77.1569L78.3416 622.224C78.3867 622.521 78.3867 622.835 78.3416 623.132L76.8274 633.009L78.3416 642.885C78.3867 643.182 78.3867 643.496 78.3416 643.793L76.8274 653.67L78.3416 663.546L78.354 663.637C78.3664 663.742 78.3737 663.848 78.3754 663.957V664.043C78.3737 664.152 78.3664 664.258 78.354 664.363L78.3416 664.454L76.8274 674.33L78.3416 684.207C78.3867 684.504 78.3867 684.818 78.3416 685.115L76.8274 694.991L78.3416 704.868C78.3867 705.165 78.3867 705.479 78.3416 705.776L77.1569 713.5H81.245L82.4989 705.322L80.9847 695.445C80.9391 695.149 80.9391 694.834 80.9847 694.537L82.4989 684.661L80.9847 674.785C80.9391 674.488 80.9391 674.173 80.9847 673.876L82.4989 664L80.9847 654.124C80.9391 653.827 80.9391 653.512 80.9847 653.215L82.4989 643.339L80.9847 633.463C80.9391 633.166 80.9391 632.851 80.9847 632.555L82.4989 622.678L81.245 614.5ZM76.6499 622.678L75.396 614.5H72.4126C72.203 614.5 71.9963 614.517 71.7918 614.551V713.449C71.9963 713.483 72.203 713.5 72.4126 713.5H75.396L76.6499 705.322L75.1357 695.445C75.0901 695.149 75.0901 694.834 75.1357 694.537L76.6499 684.661L75.1357 674.785C75.0901 674.488 75.0901 674.173 75.1357 673.876L76.6499 664L75.1357 654.124C75.0901 653.827 75.0901 653.512 75.1357 653.215L76.6499 643.339L75.1357 633.463C75.0901 633.166 75.0901 632.851 75.1357 632.555L76.6499 622.678ZM65.2398 701.676C65.6392 706.878 67.555 711.143 70.1018 712.78V706.918L65.2398 701.676ZM94.0877 701.649L89.2245 706.892V712.78C91.7747 711.139 93.6922 706.863 94.0877 701.649ZM70.1018 688.961V703.21L65.1626 697.886V683.636L70.1018 688.961ZM94.1626 697.861L89.2245 703.185V688.935L94.1626 683.612V697.861ZM70.1018 671.005V685.254L65.1626 679.929V665.68L70.1018 671.005ZM94.1626 679.905L89.2245 685.229V670.98L94.1626 665.656V679.905ZM70.1018 653.049V667.298L65.1626 661.973V647.724L70.1018 653.049ZM94.1626 661.949L89.2245 667.272V653.023L94.1626 647.699V661.949ZM70.1018 635.092V649.342L65.1626 644.017V629.768L70.1018 635.092ZM94.1626 643.992L89.2245 649.316V635.067L94.1626 629.743V643.992ZM70.1018 615.22C67.5826 616.839 65.6803 621.032 65.2527 626.158L70.1018 631.386V615.22ZM89.2245 615.22V631.36L94.0702 626.136C93.6393 621.02 91.7397 616.838 89.2245 615.22Z" fill="black"/>
<text xmlns="http://www.w3.org/2000/svg" x="82" y="610" font-size="20" text-anchor="middle" fill="#000">Ci4</text>
</g>
<g class="tyre-group" data-code="Co5">
<path fill-rule="evenodd" clip-rule="evenodd" d="M54.5345 614.551L53.9126 614.5H50.0059L51.1906 622.224C51.2357 622.521 51.2357 622.835 51.1906 623.132L49.6764 633.009L51.1906 642.885C51.2357 643.182 51.2357 643.496 51.1906 643.793L49.6764 653.67L51.1906 663.546L51.203 663.637C51.2154 663.742 51.2227 663.848 51.2244 663.957V664.043C51.2227 664.152 51.2154 664.258 51.203 664.363L51.1906 664.454L49.6764 674.33L51.1906 684.207C51.2357 684.504 51.2357 684.818 51.1906 685.115L49.6764 694.991L51.1906 704.868C51.2357 705.165 51.2357 705.479 51.1906 705.776L50.0059 713.5H53.9126C54.1222 713.5 54.33 713.483 54.5345 713.449V614.551ZM48.245 614.5H44.1569L45.3416 622.224C45.3867 622.521 45.3867 622.835 45.3416 623.132L43.8274 633.009L45.3416 642.885C45.3867 643.182 45.3867 643.496 45.3416 643.793L43.8274 653.67L45.3416 663.546L45.354 663.637C45.3664 663.742 45.3737 663.848 45.3754 663.957V664.043C45.3737 664.152 45.3664 664.258 45.354 664.363L45.3416 664.454L43.8274 674.33L45.3416 684.207C45.3867 684.504 45.3867 684.818 45.3416 685.115L43.8274 694.991L45.3416 704.868C45.3867 705.165 45.3867 705.479 45.3416 705.776L44.1569 713.5H48.245L49.4989 705.322L47.9847 695.445C47.9391 695.149 47.9391 694.834 47.9847 694.537L49.4989 684.661L47.9847 674.785C47.9391 674.488 47.9391 674.173 47.9847 673.876L49.4989 664L47.9847 654.124C47.9391 653.827 47.9391 653.512 47.9847 653.215L49.4989 643.339L47.9847 633.463C47.9391 633.166 47.9391 632.851 47.9847 632.555L49.4989 622.678L48.245 614.5ZM43.6499 622.678L42.396 614.5H39.4126C39.203 614.5 38.9963 614.517 38.7918 614.551V713.449C38.9963 713.483 39.203 713.5 39.4126 713.5H42.396L43.6499 705.322L42.1357 695.445C42.0901 695.149 42.0901 694.834 42.1357 694.537L43.6499 684.661L42.1357 674.785C42.0901 674.488 42.0901 674.173 42.1357 673.876L43.6499 664L42.1357 654.124C42.0901 653.827 42.0901 653.512 42.1357 653.215L43.6499 643.339L42.1357 633.463C42.0901 633.166 42.0901 632.851 42.1357 632.555L43.6499 622.678ZM32.2398 701.676C32.6392 706.878 34.555 711.143 37.1018 712.78V706.918L32.2398 701.676ZM61.0877 701.649L56.2245 706.892V712.78C58.7747 711.139 60.6922 706.863 61.0877 701.649ZM37.1018 688.961V703.21L32.1626 697.886V683.636L37.1018 688.961ZM61.1626 697.861L56.2245 703.185V688.935L61.1626 683.612V697.861ZM37.1018 671.005V685.254L32.1626 679.929V665.68L37.1018 671.005ZM61.1626 679.905L56.2245 685.229V670.98L61.1626 665.656V679.905ZM37.1018 653.049V667.298L32.1626 661.973V647.724L37.1018 653.049ZM61.1626 661.949L56.2245 667.272V653.023L61.1626 647.699V661.949ZM37.1018 635.092V649.342L32.1626 644.017V629.768L37.1018 635.092ZM61.1626 643.992L56.2245 649.316V635.067L61.1626 629.743V643.992ZM37.1018 615.22C34.5826 616.839 32.6803 621.032 32.2527 626.158L37.1018 631.386V615.22ZM56.2245 615.22V631.36L61.0702 626.136C60.6393 621.02 58.7397 616.838 56.2245 615.22Z" fill="black"/>
<text xmlns="http://www.w3.org/2000/svg" x="40" y="610" font-size="20" text-anchor="middle" fill="#000">Co5</text>
</g>
<g class="tyre-group" data-code="Do5">
<path fill-rule="evenodd" clip-rule="evenodd" d="M245.535 614.551L244.913 614.5H241.006L242.191 622.224C242.236 622.521 242.236 622.835 242.191 623.132L240.676 633.009L242.191 642.885C242.236 643.182 242.236 643.496 242.191 643.793L240.676 653.67L242.191 663.546L242.203 663.637C242.215 663.742 242.223 663.848 242.224 663.957V664.043C242.223 664.152 242.215 664.258 242.203 664.363L242.191 664.454L240.676 674.33L242.191 684.207C242.236 684.504 242.236 684.818 242.191 685.115L240.676 694.991L242.191 704.868C242.236 705.165 242.236 705.479 242.191 705.776L241.006 713.5H244.913C245.122 713.5 245.33 713.483 245.535 713.449V614.551ZM239.245 614.5H235.157L236.342 622.224C236.387 622.521 236.387 622.835 236.342 623.132L234.827 633.009L236.342 642.885C236.387 643.182 236.387 643.496 236.342 643.793L234.827 653.67L236.342 663.546L236.354 663.637C236.366 663.742 236.374 663.848 236.375 663.957V664.043C236.374 664.152 236.366 664.258 236.354 664.363L236.342 664.454L234.827 674.33L236.342 684.207C236.387 684.504 236.387 684.818 236.342 685.115L234.827 694.991L236.342 704.868C236.387 705.165 236.387 705.479 236.342 705.776L235.157 713.5H239.245L240.499 705.322L238.985 695.445C238.939 695.149 238.939 694.834 238.985 694.537L240.499 684.661L238.985 674.785C238.939 674.488 238.939 674.173 238.985 673.876L240.499 664L238.985 654.124C238.939 653.827 238.939 653.512 238.985 653.215L240.499 643.339L238.985 633.463C238.939 633.166 238.939 632.851 238.985 632.555L240.499 622.678L239.245 614.5ZM234.65 622.678L233.396 614.5H230.413C230.203 614.5 229.996 614.517 229.792 614.551V713.449C229.996 713.483 230.203 713.5 230.413 713.5H233.396L234.65 705.322L233.136 695.445C233.09 695.149 233.09 694.834 233.136 694.537L234.65 684.661L233.136 674.785C233.09 674.488 233.09 674.173 233.136 673.876L234.65 664L233.136 654.124C233.09 653.827 233.09 653.512 233.136 653.215L234.65 643.339L233.136 633.463C233.09 633.166 233.09 632.851 233.136 632.555L234.65 622.678ZM223.24 701.676C223.639 706.878 225.555 711.143 228.102 712.78V706.918L223.24 701.676ZM252.088 701.649L247.224 706.892V712.78C249.775 711.139 251.692 706.863 252.088 701.649ZM228.102 688.961V703.21L223.163 697.886V683.636L228.102 688.961ZM252.163 697.861L247.224 703.185V688.935L252.163 683.612V697.861ZM228.102 671.005V685.254L223.163 679.929V665.68L228.102 671.005ZM252.163 679.905L247.224 685.229V670.98L252.163 665.656V679.905ZM228.102 653.049V667.298L223.163 661.973V647.724L228.102 653.049ZM252.163 661.949L247.224 667.272V653.023L252.163 647.699V661.949ZM228.102 635.092V649.342L223.163 644.017V629.768L228.102 635.092ZM252.163 643.992L247.224 649.316V635.067L252.163 629.743V643.992ZM228.102 615.22C225.583 616.839 223.68 621.032 223.253 626.158L228.102 631.386V615.22ZM247.224 615.22V631.36L252.07 626.136C251.639 621.02 249.74 616.838 247.224 615.22Z" fill="black"/>
<text xmlns="http://www.w3.org/2000/svg" x="240" y="610" font-size="20" text-anchor="middle" fill="#000">Do5</text>
</g>
<g class="tyre-group" data-code="Di4">
<path fill-rule="evenodd" clip-rule="evenodd" d="M212.535 614.551L211.913 614.5H208.006L209.191 622.224C209.236 622.521 209.236 622.835 209.191 623.132L207.676 633.009L209.191 642.885C209.236 643.182 209.236 643.496 209.191 643.793L207.676 653.67L209.191 663.546L209.203 663.637C209.215 663.742 209.223 663.848 209.224 663.957V664.043C209.223 664.152 209.215 664.258 209.203 664.363L209.191 664.454L207.676 674.33L209.191 684.207C209.236 684.504 209.236 684.818 209.191 685.115L207.676 694.991L209.191 704.868C209.236 705.165 209.236 705.479 209.191 705.776L208.006 713.5H211.913C212.122 713.5 212.33 713.483 212.535 713.449V614.551ZM206.245 614.5H202.157L203.342 622.224C203.387 622.521 203.387 622.835 203.342 623.132L201.827 633.009L203.342 642.885C203.387 643.182 203.387 643.496 203.342 643.793L201.827 653.67L203.342 663.546L203.354 663.637C203.366 663.742 203.374 663.848 203.375 663.957V664.043C203.374 664.152 203.366 664.258 203.354 664.363L203.342 664.454L201.827 674.33L203.342 684.207C203.387 684.504 203.387 684.818 203.342 685.115L201.827 694.991L203.342 704.868C203.387 705.165 203.387 705.479 203.342 705.776L202.157 713.5H206.245L207.499 705.322L205.985 695.445C205.939 695.149 205.939 694.834 205.985 694.537L207.499 684.661L205.985 674.785C205.939 674.488 205.939 674.173 205.985 673.876L207.499 664L205.985 654.124C205.939 653.827 205.939 653.512 205.985 653.215L207.499 643.339L205.985 633.463C205.939 633.166 205.939 632.851 205.985 632.555L207.499 622.678L206.245 614.5ZM201.65 622.678L200.396 614.5H197.413C197.203 614.5 196.996 614.517 196.792 614.551V713.449C196.996 713.483 197.203 713.5 197.413 713.5H200.396L201.65 705.322L200.136 695.445C200.09 695.149 200.09 694.834 200.136 694.537L201.65 684.661L200.136 674.785C200.09 674.488 200.09 674.173 200.136 673.876L201.65 664L200.136 654.124C200.09 653.827 200.09 653.512 200.136 653.215L201.65 643.339L200.136 633.463C200.09 633.166 200.09 632.851 200.136 632.555L201.65 622.678ZM190.24 701.676C190.639 706.878 192.555 711.143 195.102 712.78V706.918L190.24 701.676ZM219.088 701.649L214.224 706.892V712.78C216.775 711.139 218.692 706.863 219.088 701.649ZM195.102 688.961V703.21L190.163 697.886V683.636L195.102 688.961ZM219.163 697.861L214.224 703.185V688.935L219.163 683.612V697.861ZM195.102 671.005V685.254L190.163 679.929V665.68L195.102 671.005ZM219.163 679.905L214.224 685.229V670.98L219.163 665.656V679.905ZM195.102 653.049V667.298L190.163 661.973V647.724L195.102 653.049ZM219.163 661.949L214.224 667.272V653.023L219.163 647.699V661.949ZM195.102 635.092V649.342L190.163 644.017V629.768L195.102 635.092ZM219.163 643.992L214.224 649.316V635.067L219.163 629.743V643.992ZM195.102 615.22C192.583 616.839 190.68 621.032 190.253 626.158L195.102 631.386V615.22ZM214.224 615.22V631.36L219.07 626.136C218.639 621.02 216.74 616.838 214.224 615.22Z" fill="black"/>
<text xmlns="http://www.w3.org/2000/svg" x="200" y="610" font-size="20" text-anchor="middle" fill="#000">Di4</text>
</g>
<path d="M55.1626 22.5C53.009 23.1153 46.3118 22.9734 40.6626 25.103M33.0685 31.5C32.9194 31.8205 32.7838 32.1537 32.6626 32.5C30.6081 38.3701 31.0861 37.0615 32.0007 34.5M33.0685 31.5C34.5745 28.2609 37.449 26.3144 40.6626 25.103M33.0685 31.5C32.7218 32.4762 32.3325 33.5706 32.0007 34.5M31.6626 32.5C31.4959 27.8333 34.0626 17.6 45.6626 14C57.2626 10.4 66.8293 12.5 70.1626 14C63.4959 12.1667 51.1626 15.5 55.1626 43.5C53.3995 43.0931 50.7867 42.918 48.0919 43.5M38.7448 51C38.5331 51.4731 38.3384 51.9727 38.1626 52.5C34.1626 64.5 39.3269 49.5 38.7448 51ZM38.7448 51C38.9833 50.467 39.2433 49.9676 39.5223 49.5M48.0919 43.5L40.6626 25.103M48.0919 43.5C44.9371 44.1813 41.6699 45.9003 39.5223 49.5M39.5223 49.5L32.0007 34.5M51.1626 65V61.5H48.0919C45.7822 62.8333 42.0626 67.2 45.6626 74H51.1626V70.5M51.1626 65H53.6626V70.5H51.1626M51.1626 65V70.5M55.1626 57C62.3293 51.5 84.5626 41.4 116.163 45H193.163C202.663 46.5 223.063 50.9 228.663 56.5L230.163 62C224.329 58.8333 209.263 52.2 195.663 51C182.063 49.8 123.329 49.5 95.6626 49.5C91.5487 49.8956 84.8285 50.9296 77.6626 52.7624M77.6626 52.7624L55.1626 62C60.8735 58.0614 68.677 55.1732 76.1626 53.1562M77.6626 52.7624C77.1645 52.8898 76.6643 53.0211 76.1626 53.1562M67.6626 72C65.8473 68.4375 65.0059 59.6812 76.1626 53.1562M71.6626 79H73.9126M76.1626 79H73.9126M73.9126 79V99M68.6626 72.5C68.8293 71.3333 69.6626 69 71.6626 69C73.6626 69 77.4959 69 79.1626 69V84H70.1626L68.6626 72.5Z" stroke="#DCDCDC"/>
<path d="M103.663 200L156.163 199.323M181.163 199C180.829 192.667 183.163 179.8 195.163 179C207.163 178.2 204.496 178.667 201.663 179L228.663 180C235.663 178.5 249.663 179.9 249.663 197.5C249.663 215.1 236.329 218.833 229.663 218.5H194.163C189.329 216.167 179.963 209 181.163 199ZM181.163 199L156.163 199.323M116.663 200.5V217H127.663V200.5H146.163V206.5L156.163 207V199.323M219.163 192.5C214.163 193.667 206.463 197.4 215.663 203C224.863 208.6 226.829 207.333 226.663 206L230.163 197.5L219.163 192.5Z" stroke="#DCDCDC"/>
<path d="M240.5 8.5H227V11.5H214H75.5H63.5C55.5 11.1667 39.1 10.7 37.5 11.5C35.9 12.3 28.8333 24.8333 25.5 31H29.5L27.5 38.5L18.5 43.5L0.5 52V59.5H6L11.5 66L29.5 63.5L27.5 75L15.5 76.5V102H27.5V175V194.5L29.5 196.5C30.6667 197.667 32.3 200 29.5 200C26.7 200 28.3333 208.333 29.5 212.5L30.5 220.5L47 241.5L49.5 252.5H79L89 241.5V231.5H98V243.5L104.5 241.5V319.5V404.5L94.5 401V383H41.5V445.5H48.1626L57.1626 465.5H90.1626H94.5V447.5H104.5V481.5H179.5L180 443H191.663V481.5H243V438.5L243.663 430.5V396.5L241.663 375.5H193.163L189.663 379.5L179.5 380.5L181 296L179.5 252.5L180.5 252L181.5 253L182.5 254V257L193 256.5V247.5L183 248L182 250H181L179.5 250.5V248.5V231.5H181V243.5H187V241.5H189C192.2 240.3 201 244 205 246H199L200.5 248H241V246.5H245V244H243.5V241.5H246.5V227H242V225.5H243H244.5V222.5H240V220.5L199 220V222.5H180V200H182V214H188.5V200H186V187H180V184H204.5V196.5H256.5V188.5H262V184V139H256.5L254.5 63.5H257.5V62C259.833 63.3333 265.9 66 271.5 66C277.1 66 278.167 62.3333 278 60.5C279 60.8333 281.3 61.3 282.5 60.5C283.7 59.7 283 52.8333 282.5 49.5L264.5 43.5V42L254.5 38.5V29C254.9 23.8 245.333 13.1667 240.5 8.5Z" stroke="#DCDCDC"/>
<path d="M110.163 404V392.5C116.994 390.726 128.653 388.573 140.598 388.155M117.663 479.697C116.641 480.241 115.64 480.841 114.663 481.5L117.663 479.697ZM117.663 479.697C133.785 471.105 154.886 476.363 165.163 480.82M117.663 479.697V469H141.413M165.163 480.82C165.692 481.049 166.193 481.277 166.663 481.5H179.163L180.163 443V383H169.663V392.5C164.453 390.019 157.987 388.757 151.163 388.294M165.163 480.82V469H152.663M141.413 469L140.598 388.155M141.413 469H152.663M140.598 388.155C144.134 388.031 147.695 388.059 151.163 388.294M151.163 388.294L152.663 469M93.6626 383H97.6626M101.663 388.294V383H97.6626M97.6626 383V429.5" stroke="#DCDCDC"/>
<path d="M63.1626 44H55.1626V165H229.663V122.5V45.5C229.829 44.6667 229.563 43.5 227.163 45.5C224.763 47.5 213.496 39.3333 208.163 35H200.163L195.163 32H95.1626C91.1626 31.2 80.4959 33.6667 75.6626 35L63.1626 44Z" stroke="#DCDCDC"/>
<circle cx="93.1626" cy="90.5" r="5.5" stroke="#DCDCDC"/>
<circle cx="93.1626" cy="90.5" r="0.5" stroke="#DCDCDC"/>
<circle cx="93.1626" cy="90.5" r="8.5" stroke="#DCDCDC"/>
<circle cx="190.163" cy="90.5" r="5.5" stroke="#DCDCDC"/>
<circle cx="190.163" cy="90.5" r="0.5" stroke="#DCDCDC"/>
<circle cx="190.163" cy="90.5" r="8.5" stroke="#DCDCDC"/>
<rect x="107.663" y="79" width="67" height="51" rx="9.5" stroke="#DCDCDC"/>
<rect x="107.663" y="79" width="67" height="51" rx="9.5" stroke="#DCDCDC"/>
<rect x="102.663" y="75" width="77" height="59" rx="9.5" stroke="#DCDCDC"/>
<rect x="102.663" y="75" width="77" height="59" rx="9.5" stroke="#DCDCDC"/>
<rect x="113.758" y="17.1623" width="13" height="6" rx="3" transform="rotate(62.2765 113.758 17.1623)" stroke="#DCDCDC"/>
<rect x="70.149" y="22.1752" width="13" height="6" rx="3" transform="rotate(62.2765 70.149 22.1752)" stroke="#DCDCDC"/>
<rect x="0.209999" y="0.675204" width="13" height="6" rx="3" transform="matrix(-0.465205 0.885203 0.885203 0.465205 168.386 16.6623)" stroke="#DCDCDC"/>
<rect x="0.209999" y="0.675204" width="13" height="6" rx="3" transform="matrix(-0.465205 0.885203 0.885203 0.465205 211.994 21.6752)" stroke="#DCDCDC"/>
<rect x="166.663" y="33" width="8" height="9" stroke="#DCDCDC"/>
<rect x="108.663" y="33" width="8" height="9" stroke="#DCDCDC"/>
<rect x="26.6626" y="56" width="12" height="8" rx="2.5" stroke="#DCDCDC"/>
<rect x="243.663" y="56" width="12" height="8" rx="2.5" stroke="#DCDCDC"/>
<rect x="101.663" y="1" width="4" height="8" stroke="#DCDCDC"/>
<rect x="109.663" y="1" width="4" height="8" stroke="#DCDCDC"/>
<rect x="117.663" y="1" width="4" height="8" stroke="#DCDCDC"/>
<rect x="125.663" y="1" width="4" height="8" stroke="#DCDCDC"/>
<rect x="133.663" y="1" width="4" height="8" stroke="#DCDCDC"/>
<rect x="141.663" y="1" width="4" height="8" stroke="#DCDCDC"/>
<rect x="149.663" y="1" width="4" height="8" stroke="#DCDCDC"/>
<rect x="157.663" y="1" width="4" height="8" stroke="#DCDCDC"/>
<rect x="184.663" y="183" width="61" height="30" rx="15" stroke="#DCDCDC"/>
<rect x="121.663" y="232" width="38" height="44" stroke="#DCDCDC"/>
<rect x="121.663" y="232" width="5" height="44" stroke="#DCDCDC"/>
<rect x="127.663" y="232" width="5" height="44" stroke="#DCDCDC"/>
<rect x="133.663" y="232" width="5" height="44" stroke="#DCDCDC"/>
<rect x="139.663" y="232" width="5" height="44" stroke="#DCDCDC"/>
<rect x="145.663" y="232" width="5" height="44" stroke="#DCDCDC"/>
<rect x="151.663" y="232" width="5" height="44" stroke="#DCDCDC"/>
<rect x="44.6626" y="229" width="35" height="11" stroke="#DCDCDC"/>
<rect x="44.6626" y="229" width="35" height="6" stroke="#DCDCDC"/>
<rect x="37.6626" y="232" width="35" height="6" stroke="#DCDCDC"/>
<rect x="79.6626" y="227" width="2" height="13" stroke="#DCDCDC"/>
<rect x="44.6626" y="221" width="40" height="2" stroke="#DCDCDC"/>
<rect x="42.6626" y="224" width="60" height="2" stroke="#DCDCDC"/>
<rect x="104.163" y="221.5" width="1" height="1" fill="#DCDCDC"/>
<path d="M104.163 222V231.5H96.6626V233.5C91.4959 234 81.0626 236.1 80.6626 240.5C80.2626 244.9 78.4959 242.333 77.6626 240.5L76.6626 243.5H62.1626M42.1626 243.5H49.1626M49.1626 243.5V240.5H54.6626L55.6626 243.5M49.1626 243.5H55.6626M55.6626 243.5H62.1626M62.1626 243.5L63.1626 239.5H70.6626L71.1626 243" stroke="#DCDCDC"/>
<rect x="131.663" y="277" width="20" height="7" stroke="#DCDCDC"/>
<rect x="131.663" y="277" width="20" height="7" stroke="#DCDCDC"/>
<rect x="134.663" y="284" width="15" height="7" stroke="#DCDCDC"/>
<rect x="134.663" y="284" width="15" height="7" stroke="#DCDCDC"/>
<rect x="137.663" y="291" width="12" height="7" stroke="#DCDCDC"/>
<rect x="137.663" y="291" width="12" height="7" stroke="#DCDCDC"/>
<rect x="140.663" y="299" width="6" height="5" stroke="#DCDCDC"/>
<rect x="140.663" y="299" width="6" height="5" stroke="#DCDCDC"/>
<rect x="136.663" y="303" width="13" height="6" stroke="#DCDCDC"/>
<rect x="136.663" y="303" width="13" height="6" stroke="#DCDCDC"/>
<rect x="136.663" y="310" width="13" height="3" stroke="#DCDCDC"/>
<rect x="136.663" y="310" width="13" height="3" stroke="#DCDCDC"/>
<rect x="111.663" y="299" width="60" height="13" stroke="#DCDCDC"/>
<rect x="159.663" y="299" width="12" height="13" stroke="#DCDCDC"/>
<rect x="111.663" y="299" width="12" height="13" stroke="#DCDCDC"/>
<rect x="119.663" y="314" width="52" height="2" stroke="#DCDCDC"/>
<rect x="256.663" y="75" width="12" height="27" stroke="#DCDCDC"/>
<rect x="246.663" y="172" width="8" height="37" stroke="#DCDCDC"/>
<rect x="137.663" y="321" width="12" height="11" stroke="#DCDCDC"/>
<rect x="139.663" y="333" width="9" height="4" stroke="#DCDCDC"/>
<rect x="138.663" y="338" width="10" height="44" stroke="#DCDCDC"/>
<rect x="180.663" y="365" width="6" height="10" rx="1.5" stroke="#DCDCDC"/>
<rect x="97.6626" y="365" width="6" height="10" rx="1.5" stroke="#DCDCDC"/>
<rect x="56.6626" y="388" width="33" height="20" stroke="#DCDCDC"/>
<rect x="56.6626" y="395" width="26" height="8" stroke="#DCDCDC"/>
<rect x="56.6626" y="395" width="12" height="8" stroke="#DCDCDC"/>
<rect x="42.6626" y="388" width="13" height="22" stroke="#DCDCDC"/>
<rect x="56.6626" y="409" width="33" height="4" stroke="#DCDCDC"/>
<rect x="44.1626" y="413.5" width="3" height="3" fill="#DCDCDC"/>
<rect x="44.1626" y="417.5" width="3" height="3" fill="#DCDCDC"/>
<rect x="44.1626" y="421.5" width="3" height="3" fill="#DCDCDC"/>
<rect x="44.1626" y="425.5" width="3" height="3" fill="#DCDCDC"/>
<rect x="44.1626" y="429.5" width="3" height="3" fill="#DCDCDC"/>
<rect x="44.1626" y="433.5" width="3" height="3" fill="#DCDCDC"/>
<rect x="44.1626" y="437.5" width="3" height="3" fill="#DCDCDC"/>
<rect x="44.1626" y="441.5" width="3" height="3" fill="#DCDCDC"/>
<rect x="48.1626" y="413.5" width="3" height="3" fill="#DCDCDC"/>
<rect x="48.1626" y="417.5" width="3" height="3" fill="#DCDCDC"/>
<rect x="48.1626" y="421.5" width="3" height="3" fill="#DCDCDC"/>
<rect x="48.1626" y="425.5" width="3" height="3" fill="#DCDCDC"/>
<rect x="48.1626" y="429.5" width="3" height="3" fill="#DCDCDC"/>
<rect x="48.1626" y="433.5" width="3" height="3" fill="#DCDCDC"/>
<rect x="48.1626" y="437.5" width="3" height="3" fill="#DCDCDC"/>
<rect x="48.1626" y="441.5" width="3" height="3" fill="#DCDCDC"/>
<rect x="52.1626" y="413.5" width="3" height="3" fill="#DCDCDC"/>
<rect x="52.1626" y="417.5" width="3" height="3" fill="#DCDCDC"/>
<rect x="52.1626" y="421.5" width="3" height="3" fill="#DCDCDC"/>
<rect x="52.1626" y="425.5" width="3" height="3" fill="#DCDCDC"/>
<rect x="52.1626" y="429.5" width="3" height="3" fill="#DCDCDC"/>
<rect x="52.1626" y="433.5" width="3" height="3" fill="#DCDCDC"/>
<rect x="52.1626" y="437.5" width="3" height="3" fill="#DCDCDC"/>
<rect x="52.1626" y="441.5" width="3" height="3" fill="#DCDCDC"/>
<rect x="56.1626" y="413.5" width="3" height="3" fill="#DCDCDC"/>
<rect x="56.1626" y="417.5" width="3" height="3" fill="#DCDCDC"/>
<rect x="56.1626" y="421.5" width="3" height="3" fill="#DCDCDC"/>
<rect x="56.1626" y="425.5" width="3" height="3" fill="#DCDCDC"/>
<rect x="56.1626" y="429.5" width="3" height="3" fill="#DCDCDC"/>
<rect x="56.1626" y="433.5" width="3" height="3" fill="#DCDCDC"/>
<rect x="56.1626" y="437.5" width="3" height="3" fill="#DCDCDC"/>
<rect x="56.1626" y="441.5" width="3" height="3" fill="#DCDCDC"/>
<rect x="60.1626" y="413.5" width="3" height="3" fill="#DCDCDC"/>
<rect x="60.1626" y="417.5" width="3" height="3" fill="#DCDCDC"/>
<rect x="60.1626" y="421.5" width="3" height="3" fill="#DCDCDC"/>
<rect x="60.1626" y="425.5" width="3" height="3" fill="#DCDCDC"/>
<rect x="60.1626" y="429.5" width="3" height="3" fill="#DCDCDC"/>
<rect x="60.1626" y="433.5" width="3" height="3" fill="#DCDCDC"/>
<rect x="60.1626" y="437.5" width="3" height="3" fill="#DCDCDC"/>
<rect x="60.1626" y="441.5" width="3" height="3" fill="#DCDCDC"/>
<rect x="64.1626" y="413.5" width="3" height="3" fill="#DCDCDC"/>
<rect x="64.1626" y="417.5" width="3" height="3" fill="#DCDCDC"/>
<rect x="64.1626" y="421.5" width="3" height="3" fill="#DCDCDC"/>
<rect x="64.1626" y="425.5" width="3" height="3" fill="#DCDCDC"/>
<rect x="64.1626" y="429.5" width="3" height="3" fill="#DCDCDC"/>
<rect x="64.1626" y="433.5" width="3" height="3" fill="#DCDCDC"/>
<rect x="64.1626" y="437.5" width="3" height="3" fill="#DCDCDC"/>
<rect x="64.1626" y="441.5" width="3" height="3" fill="#DCDCDC"/>
<rect x="68.1626" y="413.5" width="3" height="3" fill="#DCDCDC"/>
<rect x="68.1626" y="417.5" width="3" height="3" fill="#DCDCDC"/>
<rect x="68.1626" y="421.5" width="3" height="3" fill="#DCDCDC"/>
<rect x="68.1626" y="425.5" width="3" height="3" fill="#DCDCDC"/>
<rect x="68.1626" y="429.5" width="3" height="3" fill="#DCDCDC"/>
<rect x="68.1626" y="433.5" width="3" height="3" fill="#DCDCDC"/>
<rect x="68.1626" y="437.5" width="3" height="3" fill="#DCDCDC"/>
<rect x="68.1626" y="441.5" width="3" height="3" fill="#DCDCDC"/>
<rect x="72.1626" y="413.5" width="3" height="3" fill="#DCDCDC"/>
<rect x="72.1626" y="417.5" width="3" height="3" fill="#DCDCDC"/>
<rect x="72.1626" y="421.5" width="3" height="3" fill="#DCDCDC"/>
<rect x="72.1626" y="425.5" width="3" height="3" fill="#DCDCDC"/>
<rect x="72.1626" y="429.5" width="3" height="3" fill="#DCDCDC"/>
<rect x="72.1626" y="433.5" width="3" height="3" fill="#DCDCDC"/>
<rect x="72.1626" y="437.5" width="3" height="3" fill="#DCDCDC"/>
<rect x="72.1626" y="441.5" width="3" height="3" fill="#DCDCDC"/>
<rect x="76.1626" y="413.5" width="3" height="3" fill="#DCDCDC"/>
<rect x="76.1626" y="417.5" width="3" height="3" fill="#DCDCDC"/>
<rect x="76.1626" y="421.5" width="3" height="3" fill="#DCDCDC"/>
<rect x="76.1626" y="425.5" width="3" height="3" fill="#DCDCDC"/>
<rect x="76.1626" y="429.5" width="3" height="3" fill="#DCDCDC"/>
<rect x="76.1626" y="433.5" width="3" height="3" fill="#DCDCDC"/>
<rect x="76.1626" y="437.5" width="3" height="3" fill="#DCDCDC"/>
<rect x="76.1626" y="441.5" width="3" height="3" fill="#DCDCDC"/>
<rect x="80.1626" y="413.5" width="3" height="3" fill="#DCDCDC"/>
<rect x="80.1626" y="417.5" width="3" height="3" fill="#DCDCDC"/>
<rect x="80.1626" y="421.5" width="3" height="3" fill="#DCDCDC"/>
<rect x="80.1626" y="425.5" width="3" height="3" fill="#DCDCDC"/>
<rect x="80.1626" y="429.5" width="3" height="3" fill="#DCDCDC"/>
<rect x="80.1626" y="433.5" width="3" height="3" fill="#DCDCDC"/>
<rect x="80.1626" y="437.5" width="3" height="3" fill="#DCDCDC"/>
<rect x="80.1626" y="441.5" width="3" height="3" fill="#DCDCDC"/>
<rect x="84.1626" y="413.5" width="3" height="3" fill="#DCDCDC"/>
<rect x="84.1626" y="417.5" width="3" height="3" fill="#DCDCDC"/>
<rect x="84.1626" y="421.5" width="3" height="3" fill="#DCDCDC"/>
<rect x="84.1626" y="425.5" width="3" height="3" fill="#DCDCDC"/>
<rect x="84.1626" y="429.5" width="3" height="3" fill="#DCDCDC"/>
<rect x="84.1626" y="433.5" width="3" height="3" fill="#DCDCDC"/>
<rect x="84.1626" y="437.5" width="3" height="3" fill="#DCDCDC"/>
<rect x="84.1626" y="441.5" width="3" height="3" fill="#DCDCDC"/>
<rect x="88.1626" y="413.5" width="3" height="3" fill="#DCDCDC"/>
<rect x="88.1626" y="417.5" width="3" height="3" fill="#DCDCDC"/>
<rect x="88.1626" y="421.5" width="3" height="3" fill="#DCDCDC"/>
<rect x="88.1626" y="425.5" width="3" height="3" fill="#DCDCDC"/>
<rect x="88.1626" y="429.5" width="3" height="3" fill="#DCDCDC"/>
<rect x="88.1626" y="433.5" width="3" height="3" fill="#DCDCDC"/>
<rect x="88.1626" y="437.5" width="3" height="3" fill="#DCDCDC"/>
<rect x="88.1626" y="441.5" width="3" height="3" fill="#DCDCDC"/>
<rect x="158.663" y="406" width="11" height="11" stroke="#DCDCDC"/>
<path d="M110.663 403.5C112.663 402.667 117.063 401.1 118.663 401.5M118.663 401.5V399.5H123.163V401.5M118.663 401.5H123.163M123.163 401.5C126.496 401.667 133.263 402.6 133.663 405C134.063 407.4 133.829 409.667 133.663 410.5V415H132.163V428H134.163V432L133.663 432.01M134.163 440.5C134.33 440.778 134.318 441.047 134.163 441.304M134.163 440.5C132.963 438.5 133.663 440.203 134.163 441.304M134.163 440.5L133.663 432.01M134.163 441.304C133.202 442.898 126.75 444.07 123.163 444.5V445.5H119.663V444.5C116.863 444.9 112.163 443 110.163 442V403V432.5L133.663 432.01" stroke="#DCDCDC"/>
<rect x="110.663" y="410" width="22" height="4" stroke="#DCDCDC"/>
<rect x="120.663" y="414" width="3" height="18" stroke="#DCDCDC"/>
<rect x="111.663" y="414" width="3" height="18" stroke="#DCDCDC"/>
<rect x="126.663" y="414" width="3" height="18" stroke="#DCDCDC"/>
<rect x="117.663" y="414" width="3" height="18" stroke="#DCDCDC"/>
<rect x="110.663" y="433" width="23" height="5" stroke="#DCDCDC"/>
<path d="M114.663 481.5C114.663 481.9 110.996 487 109.163 489.5V532V575C112.329 580.667 119.563 592.1 123.163 592.5C126.763 592.9 148.663 592.667 159.163 592.5C163.663 588 172.563 578.6 172.163 577C171.763 575.4 170.996 516.667 170.663 487.5L166.163 481.5H157.163M157.163 481.5V490.5H141.163V481.5H144.663M157.163 481.5H144.663M144.663 481.5V494.5M144.663 494.5H152.663M144.663 494.5H142.663V502.5M152.663 494.5V480.5M152.663 494.5H155.663V502.5H144.663M142.663 502.5H141.163V534.5H144.663M142.663 502.5H144.663M144.663 535.5V534.5M144.663 502.5V534.5" stroke="#DCDCDC"/>
<circle cx="141.663" cy="542" r="0.5" fill="#DCDCDC"/>
<circle cx="141.663" cy="542" r="5" stroke="#DCDCDC"/>
<circle cx="141.663" cy="542" r="8" stroke="#DCDCDC"/>
<rect x="116.663" y="507" width="13" height="23" rx="4.5" stroke="#DCDCDC"/>
<rect x="0.25" y="-0.25" width="5.5" height="0.5" rx="0.25" transform="matrix(1 0 0 -1 120.163 506)" stroke="#DCDCDC" stroke-width="0.5"/>
<rect x="152.663" y="507" width="13" height="23" rx="4.5" stroke="#DCDCDC"/>
<rect x="0.25" y="-0.25" width="5.5" height="0.5" rx="0.25" transform="matrix(1 0 0 -1 156.163 506)" stroke="#DCDCDC" stroke-width="0.5"/>
<rect x="123.663" y="531" width="1" height="60" stroke="#DCDCDC"/>
<rect x="159.663" y="531" width="1" height="60" stroke="#DCDCDC"/>
<rect x="-0.5" y="0.5" width="13" height="13" transform="matrix(-1 0 0 1 122.163 530.5)" stroke="#DCDCDC"/>
<rect x="-0.5" y="0.5" width="6" height="13" transform="matrix(-1 0 0 1 118.163 530.5)" stroke="#DCDCDC"/>
<rect x="-0.5" y="0.5" width="13" height="13" transform="matrix(-1 0 0 1 170.163 530.5)" stroke="#DCDCDC"/>
<rect x="-0.5" y="0.5" width="6" height="13" transform="matrix(-1 0 0 1 166.163 530.5)" stroke="#DCDCDC"/>
<path d="M142.175 553.119L117.659 586.656L115.004 583.083L138.958 550.737L142.175 553.119Z" fill="#DCDCDC" stroke="#DCDCDC"/>
<path d="M137.923 552.029L163.583 587.112L166.203 583.492L141.14 549.647L137.923 552.029Z" fill="#DCDCDC" stroke="#DCDCDC"/>
<rect x="112.663" y="593" width="10" height="18" stroke="#DCDCDC"/>
<rect x="160.663" y="593" width="10" height="18" stroke="#DCDCDC"/>
<rect x="112.663" y="600" width="58" height="2" stroke="#DCDCDC"/>
<rect x="123.663" y="603" width="36" height="8" stroke="#DCDCDC"/>
<path d="M114.663 602.5C114.663 602.9 110.996 608 109.163 610.5V653V696C112.329 701.667 119.563 713.1 123.163 713.5C126.763 713.9 148.663 713.667 159.163 713.5C163.663 709 172.563 699.6 172.163 698C171.763 696.4 170.996 637.667 170.663 608.5L166.163 602.5H157.163M157.163 602.5V611.5H141.163V602.5H144.663M157.163 602.5H144.663M144.663 602.5V615.5M144.663 615.5H152.663M144.663 615.5H142.663V623.5M152.663 615.5V601.5M152.663 615.5H155.663V623.5H144.663M142.663 623.5H141.163V655.5H144.663M142.663 623.5H144.663M144.663 656.5V655.5M144.663 623.5V655.5" stroke="#DCDCDC"/>
<circle cx="141.663" cy="663" r="0.5" fill="#DCDCDC"/>
<circle cx="141.663" cy="663" r="5" stroke="#DCDCDC"/>
<circle cx="141.663" cy="663" r="8" stroke="#DCDCDC"/>
<rect x="116.663" y="628" width="13" height="23" rx="4.5" stroke="#DCDCDC"/>
<rect x="0.25" y="-0.25" width="5.5" height="0.5" rx="0.25" transform="matrix(1 0 0 -1 120.163 627)" stroke="#DCDCDC" stroke-width="0.5"/>
<rect x="152.663" y="628" width="13" height="23" rx="4.5" stroke="#DCDCDC"/>
<rect x="0.25" y="-0.25" width="5.5" height="0.5" rx="0.25" transform="matrix(1 0 0 -1 156.163 627)" stroke="#DCDCDC" stroke-width="0.5"/>
<rect x="123.663" y="652" width="1" height="60" stroke="#DCDCDC"/>
<rect x="159.663" y="652" width="1" height="60" stroke="#DCDCDC"/>
<rect x="-0.5" y="0.5" width="13" height="13" transform="matrix(-1 0 0 1 122.163 651.5)" stroke="#DCDCDC"/>
<rect x="-0.5" y="0.5" width="6" height="13" transform="matrix(-1 0 0 1 118.163 651.5)" stroke="#DCDCDC"/>
<rect x="-0.5" y="0.5" width="13" height="13" transform="matrix(-1 0 0 1 170.163 651.5)" stroke="#DCDCDC"/>
<rect x="-0.5" y="0.5" width="6" height="13" transform="matrix(-1 0 0 1 166.163 651.5)" stroke="#DCDCDC"/>
<path d="M142.175 674.119L117.659 707.656L115.004 704.083L138.958 671.737L142.175 674.119Z" fill="#DCDCDC" stroke="#DCDCDC"/>
<path d="M137.923 673.029L163.583 708.112L166.203 704.492L141.14 670.647L137.923 673.029Z" fill="#DCDCDC" stroke="#DCDCDC"/>
<rect x="112.663" y="714" width="10" height="18" stroke="#DCDCDC"/>
<rect x="160.663" y="714" width="10" height="18" stroke="#DCDCDC"/>
<rect x="112.663" y="721" width="58" height="2" stroke="#DCDCDC"/>
<rect x="123.663" y="724" width="36" height="8" stroke="#DCDCDC"/>
<rect x="123.663" y="724" width="36" height="8" stroke="#DCDCDC"/>
<rect x="123.663" y="732" width="36" height="8" stroke="#DCDCDC"/>
<rect x="104.663" y="469" width="75" height="133" stroke="#DCDCDC"/>
<rect x="104.663" y="602" width="75" height="133" stroke="#DCDCDC"/>
<g class="tyre-group" data-code="Do3">
<path fill-rule="evenodd" clip-rule="evenodd" d="M245.535 487.551L244.913 487.5H241.006L242.191 495.224C242.236 495.521 242.236 495.835 242.191 496.132L240.676 506.009L242.191 515.885C242.236 516.182 242.236 516.496 242.191 516.793L240.676 526.67L242.191 536.546L242.203 536.637C242.215 536.742 242.223 536.848 242.224 536.957V537.043C242.223 537.152 242.215 537.258 242.203 537.363L242.191 537.454L240.676 547.33L242.191 557.207C242.236 557.504 242.236 557.818 242.191 558.115L240.676 567.991L242.191 577.868C242.236 578.165 242.236 578.479 242.191 578.776L241.006 586.5H244.913C245.122 586.5 245.33 586.483 245.535 586.449V487.551ZM239.245 487.5H235.157L236.342 495.224C236.387 495.521 236.387 495.835 236.342 496.132L234.827 506.009L236.342 515.885C236.387 516.182 236.387 516.496 236.342 516.793L234.827 526.67L236.342 536.546L236.354 536.637C236.366 536.742 236.374 536.848 236.375 536.957V537.043C236.374 537.152 236.366 537.258 236.354 537.363L236.342 537.454L234.827 547.33L236.342 557.207C236.387 557.504 236.387 557.818 236.342 558.115L234.827 567.991L236.342 577.868C236.387 578.165 236.387 578.479 236.342 578.776L235.157 586.5H239.245L240.499 578.322L238.985 568.445C238.939 568.149 238.939 567.834 238.985 567.537L240.499 557.661L238.985 547.785C238.939 547.488 238.939 547.173 238.985 546.876L240.499 537L238.985 527.124C238.939 526.827 238.939 526.512 238.985 526.215L240.499 516.339L238.985 506.463C238.939 506.166 238.939 505.851 238.985 505.555L240.499 495.678L239.245 487.5ZM234.65 495.678L233.396 487.5H230.413C230.203 487.5 229.996 487.517 229.792 487.551V586.449C229.996 586.483 230.203 586.5 230.413 586.5H233.396L234.65 578.322L233.136 568.445C233.09 568.149 233.09 567.834 233.136 567.537L234.65 557.661L233.136 547.785C233.09 547.488 233.09 547.173 233.136 546.876L234.65 537L233.136 527.124C233.09 526.827 233.09 526.512 233.136 526.215L234.65 516.339L233.136 506.463C233.09 506.166 233.09 505.851 233.136 505.555L234.65 495.678ZM223.24 574.676C223.639 579.878 225.555 584.143 228.102 585.78V579.918L223.24 574.676ZM252.088 574.649L247.224 579.892V585.78C249.775 584.139 251.692 579.863 252.088 574.649ZM228.102 561.961V576.21L223.163 570.886V556.636L228.102 561.961ZM252.163 570.861L247.224 576.185V561.935L252.163 556.612V570.861ZM228.102 544.005V558.254L223.163 552.929V538.68L228.102 544.005ZM252.163 552.905L247.224 558.229V543.98L252.163 538.656V552.905ZM228.102 526.049V540.298L223.163 534.973V520.724L228.102 526.049ZM252.163 534.949L247.224 540.272V526.023L252.163 520.699V534.949ZM228.102 508.092V522.342L223.163 517.017V502.768L228.102 508.092ZM252.163 516.992L247.224 522.316V508.067L252.163 502.743V516.992ZM228.102 488.22C225.583 489.839 223.68 494.032 223.253 499.158L228.102 504.386V488.22ZM247.224 488.22V504.36L252.07 499.136C251.639 494.02 249.74 489.838 247.224 488.22Z" fill="black"/>
<text xmlns="http://www.w3.org/2000/svg" x="240" y="480" font-size="20" text-anchor="middle" fill="#000">Do3</text>
</g>
<g class="tyre-group" data-code="Di2">
<path fill-rule="evenodd" clip-rule="evenodd" d="M212.535 487.551L211.913 487.5H208.006L209.191 495.224C209.236 495.521 209.236 495.835 209.191 496.132L207.676 506.009L209.191 515.885C209.236 516.182 209.236 516.496 209.191 516.793L207.676 526.67L209.191 536.546L209.203 536.637C209.215 536.742 209.223 536.848 209.224 536.957V537.043C209.223 537.152 209.215 537.258 209.203 537.363L209.191 537.454L207.676 547.33L209.191 557.207C209.236 557.504 209.236 557.818 209.191 558.115L207.676 567.991L209.191 577.868C209.236 578.165 209.236 578.479 209.191 578.776L208.006 586.5H211.913C212.122 586.5 212.33 586.483 212.535 586.449V487.551ZM206.245 487.5H202.157L203.342 495.224C203.387 495.521 203.387 495.835 203.342 496.132L201.827 506.009L203.342 515.885C203.387 516.182 203.387 516.496 203.342 516.793L201.827 526.67L203.342 536.546L203.354 536.637C203.366 536.742 203.374 536.848 203.375 536.957V537.043C203.374 537.152 203.366 537.258 203.354 537.363L203.342 537.454L201.827 547.33L203.342 557.207C203.387 557.504 203.387 557.818 203.342 558.115L201.827 567.991L203.342 577.868C203.387 578.165 203.387 578.479 203.342 578.776L202.157 586.5H206.245L207.499 578.322L205.985 568.445C205.939 568.149 205.939 567.834 205.985 567.537L207.499 557.661L205.985 547.785C205.939 547.488 205.939 547.173 205.985 546.876L207.499 537L205.985 527.124C205.939 526.827 205.939 526.512 205.985 526.215L207.499 516.339L205.985 506.463C205.939 506.166 205.939 505.851 205.985 505.555L207.499 495.678L206.245 487.5ZM201.65 495.678L200.396 487.5H197.413C197.203 487.5 196.996 487.517 196.792 487.551V586.449C196.996 586.483 197.203 586.5 197.413 586.5H200.396L201.65 578.322L200.136 568.445C200.09 568.149 200.09 567.834 200.136 567.537L201.65 557.661L200.136 547.785C200.09 547.488 200.09 547.173 200.136 546.876L201.65 537L200.136 527.124C200.09 526.827 200.09 526.512 200.136 526.215L201.65 516.339L200.136 506.463C200.09 506.166 200.09 505.851 200.136 505.555L201.65 495.678ZM190.24 574.676C190.639 579.878 192.555 584.143 195.102 585.78V579.918L190.24 574.676ZM219.088 574.649L214.224 579.892V585.78C216.775 584.139 218.692 579.863 219.088 574.649ZM195.102 561.961V576.21L190.163 570.886V556.636L195.102 561.961ZM219.163 570.861L214.224 576.185V561.935L219.163 556.612V570.861ZM195.102 544.005V558.254L190.163 552.929V538.68L195.102 544.005ZM219.163 552.905L214.224 558.229V543.98L219.163 538.656V552.905ZM195.102 526.049V540.298L190.163 534.973V520.724L195.102 526.049ZM219.163 534.949L214.224 540.272V526.023L219.163 520.699V534.949ZM195.102 508.092V522.342L190.163 517.017V502.768L195.102 508.092ZM219.163 516.992L214.224 522.316V508.067L219.163 502.743V516.992ZM195.102 488.22C192.583 489.839 190.68 494.032 190.253 499.158L195.102 504.386V488.22ZM214.224 488.22V504.36L219.07 499.136C218.639 494.02 216.74 489.838 214.224 488.22Z" fill="black"/>
<text xmlns="http://www.w3.org/2000/svg" x="200" y="480" font-size="20" text-anchor="middle" fill="#000">Di2</text>
</g>
<rect x="180.663" y="517" width="10" height="78" stroke="#DCDCDC"/>
<rect x="180.163" y="530.5" width="11" height="9" fill="#DCDCDC"/>
<rect x="180.663" y="545" width="10" height="8" stroke="#DCDCDC"/>
<rect x="180.663" y="554" width="10" height="8" stroke="#DCDCDC"/>
<rect x="180.663" y="563" width="10" height="8" stroke="#DCDCDC"/>
<rect x="180.663" y="572" width="10" height="8" stroke="#DCDCDC"/>
<rect x="180.663" y="581" width="10" height="8" stroke="#DCDCDC"/>
<rect x="180.663" y="638" width="10" height="78" stroke="#DCDCDC"/>
<rect x="180.163" y="651.5" width="11" height="9" fill="#DCDCDC"/>
<rect x="180.663" y="666" width="10" height="8" stroke="#DCDCDC"/>
<rect x="180.663" y="675" width="10" height="8" stroke="#DCDCDC"/>
<rect x="180.663" y="684" width="10" height="8" stroke="#DCDCDC"/>
<rect x="180.663" y="693" width="10" height="8" stroke="#DCDCDC"/>
<rect x="180.663" y="702" width="10" height="8" stroke="#DCDCDC"/>
<g class="tyre-group" data-code="Ci2">
<path fill-rule="evenodd" clip-rule="evenodd" d="M86.5345 487.551L85.9126 487.5H82.0059L83.1906 495.224C83.2357 495.521 83.2357 495.835 83.1906 496.132L81.6764 506.009L83.1906 515.885C83.2357 516.182 83.2357 516.496 83.1906 516.793L81.6764 526.67L83.1906 536.546L83.203 536.637C83.2154 536.742 83.2227 536.848 83.2244 536.957V537.043C83.2227 537.152 83.2154 537.258 83.203 537.363L83.1906 537.454L81.6764 547.33L83.1906 557.207C83.2357 557.504 83.2357 557.818 83.1906 558.115L81.6764 567.991L83.1906 577.868C83.2357 578.165 83.2357 578.479 83.1906 578.776L82.0059 586.5H85.9126C86.1222 586.5 86.33 586.483 86.5345 586.449V487.551ZM80.245 487.5H76.1569L77.3416 495.224C77.3867 495.521 77.3867 495.835 77.3416 496.132L75.8274 506.009L77.3416 515.885C77.3867 516.182 77.3867 516.496 77.3416 516.793L75.8274 526.67L77.3416 536.546L77.354 536.637C77.3664 536.742 77.3737 536.848 77.3754 536.957V537.043C77.3737 537.152 77.3664 537.258 77.354 537.363L77.3416 537.454L75.8274 547.33L77.3416 557.207C77.3867 557.504 77.3867 557.818 77.3416 558.115L75.8274 567.991L77.3416 577.868C77.3867 578.165 77.3867 578.479 77.3416 578.776L76.1569 586.5H80.245L81.4989 578.322L79.9847 568.445C79.9391 568.149 79.9391 567.834 79.9847 567.537L81.4989 557.661L79.9847 547.785C79.9391 547.488 79.9391 547.173 79.9847 546.876L81.4989 537L79.9847 527.124C79.9391 526.827 79.9391 526.512 79.9847 526.215L81.4989 516.339L79.9847 506.463C79.9391 506.166 79.9391 505.851 79.9847 505.555L81.4989 495.678L80.245 487.5ZM75.6499 495.678L74.396 487.5H71.4126C71.203 487.5 70.9963 487.517 70.7918 487.551V586.449C70.9963 586.483 71.203 586.5 71.4126 586.5H74.396L75.6499 578.322L74.1357 568.445C74.0901 568.149 74.0901 567.834 74.1357 567.537L75.6499 557.661L74.1357 547.785C74.0901 547.488 74.0901 547.173 74.1357 546.876L75.6499 537L74.1357 527.124C74.0901 526.827 74.0901 526.512 74.1357 526.215L75.6499 516.339L74.1357 506.463C74.0901 506.166 74.0901 505.851 74.1357 505.555L75.6499 495.678ZM64.2398 574.676C64.6392 579.878 66.555 584.143 69.1018 585.78V579.918L64.2398 574.676ZM93.0877 574.649L88.2245 579.892V585.78C90.7747 584.139 92.6922 579.863 93.0877 574.649ZM69.1018 561.961V576.21L64.1626 570.886V556.636L69.1018 561.961ZM93.1626 570.861L88.2245 576.185V561.935L93.1626 556.612V570.861ZM69.1018 544.005V558.254L64.1626 552.929V538.68L69.1018 544.005ZM93.1626 552.905L88.2245 558.229V543.98L93.1626 538.656V552.905ZM69.1018 526.049V540.298L64.1626 534.973V520.724L69.1018 526.049ZM93.1626 534.949L88.2245 540.272V526.023L93.1626 520.699V534.949ZM69.1018 508.092V522.342L64.1626 517.017V502.768L69.1018 508.092ZM93.1626 516.992L88.2245 522.316V508.067L93.1626 502.743V516.992ZM69.1018 488.22C66.5826 489.839 64.6803 494.032 64.2527 499.158L69.1018 504.386V488.22ZM88.2245 488.22V504.36L93.0702 499.136C92.6393 494.02 90.7397 489.838 88.2245 488.22Z" fill="black"/>
<text xmlns="http://www.w3.org/2000/svg" x="82" y="480" font-size="20" text-anchor="middle" fill="#000">Ci2</text>
</g>
<g class="tyre-group" data-code="Co3">
<path fill-rule="evenodd" clip-rule="evenodd" d="M53.5345 487.551L52.9126 487.5H49.0059L50.1906 495.224C50.2357 495.521 50.2357 495.835 50.1906 496.132L48.6764 506.009L50.1906 515.885C50.2357 516.182 50.2357 516.496 50.1906 516.793L48.6764 526.67L50.1906 536.546L50.203 536.637C50.2154 536.742 50.2227 536.848 50.2244 536.957V537.043C50.2227 537.152 50.2154 537.258 50.203 537.363L50.1906 537.454L48.6764 547.33L50.1906 557.207C50.2357 557.504 50.2357 557.818 50.1906 558.115L48.6764 567.991L50.1906 577.868C50.2357 578.165 50.2357 578.479 50.1906 578.776L49.0059 586.5H52.9126C53.1222 586.5 53.33 586.483 53.5345 586.449V487.551ZM47.245 487.5H43.1569L44.3416 495.224C44.3867 495.521 44.3867 495.835 44.3416 496.132L42.8274 506.009L44.3416 515.885C44.3867 516.182 44.3867 516.496 44.3416 516.793L42.8274 526.67L44.3416 536.546L44.354 536.637C44.3664 536.742 44.3737 536.848 44.3754 536.957V537.043C44.3737 537.152 44.3664 537.258 44.354 537.363L44.3416 537.454L42.8274 547.33L44.3416 557.207C44.3867 557.504 44.3867 557.818 44.3416 558.115L42.8274 567.991L44.3416 577.868C44.3867 578.165 44.3867 578.479 44.3416 578.776L43.1569 586.5H47.245L48.4989 578.322L46.9847 568.445C46.9391 568.149 46.9391 567.834 46.9847 567.537L48.4989 557.661L46.9847 547.785C46.9391 547.488 46.9391 547.173 46.9847 546.876L48.4989 537L46.9847 527.124C46.9391 526.827 46.9391 526.512 46.9847 526.215L48.4989 516.339L46.9847 506.463C46.9391 506.166 46.9391 505.851 46.9847 505.555L48.4989 495.678L47.245 487.5ZM42.6499 495.678L41.396 487.5H38.4126C38.203 487.5 37.9963 487.517 37.7918 487.551V586.449C37.9963 586.483 38.203 586.5 38.4126 586.5H41.396L42.6499 578.322L41.1357 568.445C41.0901 568.149 41.0901 567.834 41.1357 567.537L42.6499 557.661L41.1357 547.785C41.0901 547.488 41.0901 547.173 41.1357 546.876L42.6499 537L41.1357 527.124C41.0901 526.827 41.0901 526.512 41.1357 526.215L42.6499 516.339L41.1357 506.463C41.0901 506.166 41.0901 505.851 41.1357 505.555L42.6499 495.678ZM31.2398 574.676C31.6392 579.878 33.555 584.143 36.1018 585.78V579.918L31.2398 574.676ZM60.0877 574.649L55.2245 579.892V585.78C57.7747 584.139 59.6922 579.863 60.0877 574.649ZM36.1018 561.961V576.21L31.1626 570.886V556.636L36.1018 561.961ZM60.1626 570.861L55.2245 576.185V561.935L60.1626 556.612V570.861ZM36.1018 544.005V558.254L31.1626 552.929V538.68L36.1018 544.005ZM60.1626 552.905L55.2245 558.229V543.98L60.1626 538.656V552.905ZM36.1018 526.049V540.298L31.1626 534.973V520.724L36.1018 526.049ZM60.1626 534.949L55.2245 540.272V526.023L60.1626 520.699V534.949ZM36.1018 508.092V522.342L31.1626 517.017V502.768L36.1018 508.092ZM60.1626 516.992L55.2245 522.316V508.067L60.1626 502.743V516.992ZM36.1018 488.22C33.5826 489.839 31.6803 494.032 31.2527 499.158L36.1018 504.386V488.22ZM55.2245 488.22V504.36L60.0702 499.136C59.6393 494.02 57.7397 489.838 55.2245 488.22Z" fill="black"/>
<text xmlns="http://www.w3.org/2000/svg" x="40" y="480" font-size="20" text-anchor="middle" fill="#000">Co3</text>
</g>
<rect x="93.6626" y="517" width="10" height="78" stroke="#DCDCDC"/>
<rect x="93.1626" y="530.5" width="11" height="9" fill="#DCDCDC"/>
<rect x="93.6626" y="545" width="10" height="8" stroke="#DCDCDC"/>
<rect x="93.6626" y="554" width="10" height="8" stroke="#DCDCDC"/>
<rect x="93.6626" y="563" width="10" height="8" stroke="#DCDCDC"/>
<rect x="93.6626" y="572" width="10" height="8" stroke="#DCDCDC"/>
<rect x="93.6626" y="581" width="10" height="8" stroke="#DCDCDC"/>
<rect x="93.6626" y="638" width="10" height="78" stroke="#DCDCDC"/>
<rect x="93.1626" y="651.5" width="11" height="9" fill="#DCDCDC"/>
<rect x="93.6626" y="666" width="10" height="8" stroke="#DCDCDC"/>
<rect x="93.6626" y="675" width="10" height="8" stroke="#DCDCDC"/>
<rect x="93.6626" y="684" width="10" height="8" stroke="#DCDCDC"/>
<rect x="93.6626" y="693" width="10" height="8" stroke="#DCDCDC"/>
<rect x="93.6626" y="702" width="10" height="8" stroke="#DCDCDC"/>
<rect x="102.663" y="630" width="7" height="118" stroke="#DCDCDC"/>
<rect x="172.663" y="630" width="7" height="118" stroke="#DCDCDC"/>
<rect x="180.663" y="738" width="60" height="6" stroke="#DCDCDC"/>
<rect x="209.663" y="744" width="42" height="9" stroke="#DCDCDC"/>
<rect x="-0.5" y="0.5" width="7" height="118" transform="matrix(-1 0 0 1 108.163 629.5)" stroke="#DCDCDC"/>
<rect x="-0.5" y="0.5" width="60" height="6" transform="matrix(-1 0 0 1 100.163 737.5)" stroke="#DCDCDC"/>
<rect x="-0.5" y="0.5" width="42" height="9" transform="matrix(-1 0 0 1 71.1626 743.5)" stroke="#DCDCDC"/>
<rect x="118.663" y="740" width="46" height="9" stroke="#DCDCDC"/>
<rect x="114.413" y="746.75" width="54.5" height="0.5" stroke="#DCDCDC" stroke-width="0.5"/>
<rect x="124.663" y="740" width="34" height="7" stroke="#DCDCDC"/>
<rect x="112.663" y="715" width="11" height="24" stroke="#DCDCDC"/>
<rect x="159.663" y="715" width="11" height="24" stroke="#DCDCDC"/>
<rect x="112.663" y="723" width="57" height="16" stroke="#DCDCDC"/>
<rect x="110.663" y="723" width="61" height="16" stroke="#DCDCDC"/>
<path d="M59.1626 63H39.1626C37.9626 63 35.3293 70.3333 34.1626 74V93.5H29.1626V136H34.1626L34.6626 157.5C34.2626 160.3 37.1626 163.667 38.6626 165H60.6626C61.4626 165 62.3293 161 62.6626 159C62.6626 153 62.7626 141 63.1626 141C63.5626 141 65.3293 131 66.1626 126V121.5L76.1626 119.5V118.5H81.1626V121H82.1626V122.5H87.1626V120.5H96.1626V121.5H98.6626V123H102.663V124H105.163L104.663 102.5H98.6626V104H97.1626V106.5H95.1626V108.5H88.1626V107H81.1626V110H77.1626V109L66.1626 107V106.5C66.1626 104.1 63.4959 92.1667 62.1626 86.5C62.3293 81.6667 62.5626 71.6 62.1626 70C61.7626 68.4 59.9959 64.6667 59.1626 63Z" stroke="#DCDCDC"/>
<g class="tyre-group" data-code="D1">
<path fill-rule="evenodd" clip-rule="evenodd" d="M246.535 62.5526L245.913 62.5H242.006L243.191 70.5362C243.236 70.8452 243.236 71.1722 243.191 71.4812L241.676 81.7565L243.191 92.0319C243.236 92.3409 243.236 92.6678 243.191 92.9768L241.676 103.252L243.191 113.528L243.203 113.623C243.215 113.731 243.223 113.842 243.224 113.955V114.045C243.223 114.158 243.215 114.269 243.203 114.377L243.191 114.472L241.676 124.748L243.191 135.023C243.236 135.332 243.236 135.659 243.191 135.968L241.676 146.243L243.191 156.519C243.236 156.828 243.236 157.155 243.191 157.464L242.006 165.5H245.913C246.122 165.5 246.33 165.482 246.535 165.447V62.5526ZM240.245 62.5H236.157L237.342 70.5362C237.387 70.8452 237.387 71.1722 237.342 71.4812L235.827 81.7565L237.342 92.0319C237.387 92.3409 237.387 92.6678 237.342 92.9768L235.827 103.252L237.342 113.528L237.354 113.623C237.366 113.731 237.374 113.842 237.375 113.955V114.045C237.374 114.158 237.366 114.269 237.354 114.377L237.342 114.472L235.827 124.748L237.342 135.023C237.387 135.332 237.387 135.659 237.342 135.968L235.827 146.243L237.342 156.519C237.387 156.828 237.387 157.155 237.342 157.464L236.157 165.5H240.245L241.499 156.991L239.985 146.716C239.939 146.407 239.939 146.079 239.985 145.771L241.499 135.496L239.985 125.22C239.939 124.912 239.939 124.584 239.985 124.275L241.499 114L239.985 103.725C239.939 103.416 239.939 103.088 239.985 102.78L241.499 92.5043L239.985 82.229C239.939 81.9205 239.939 81.5925 239.985 81.2841L241.499 71.0087L240.245 62.5ZM235.65 71.0087L234.396 62.5H231.413C231.203 62.5 230.996 62.5179 230.792 62.5526V165.447C230.996 165.482 231.203 165.5 231.413 165.5H234.396L235.65 156.991L234.136 146.716C234.09 146.407 234.09 146.079 234.136 145.771L235.65 135.496L234.136 125.22C234.09 124.912 234.09 124.584 234.136 124.275L235.65 114L234.136 103.725C234.09 103.416 234.09 103.088 234.136 102.78L235.65 92.5043L234.136 82.229C234.09 81.9205 234.09 81.5925 234.136 81.2841L235.65 71.0087ZM224.24 153.198C224.639 158.61 226.555 163.048 229.102 164.751V158.652L224.24 153.198ZM253.088 153.17L248.224 158.625V164.751C250.775 163.044 252.692 158.595 253.088 153.17ZM229.102 139.969V154.795L224.163 149.255V134.43L229.102 139.969ZM253.163 149.229L248.224 154.768V139.943L253.163 134.404V149.229ZM229.102 121.288V136.113L224.163 130.573V115.748L229.102 121.288ZM253.163 130.547L248.224 136.087V121.262L253.163 115.723V130.547ZM229.102 102.606V117.431L224.163 111.891V97.0666L229.102 102.606ZM253.163 111.866L248.224 117.405V102.579L253.163 97.0408V111.866ZM229.102 83.924V98.7493L224.163 93.2097V78.3844L229.102 83.924ZM253.163 93.1839L248.224 98.7224V83.8983L253.163 78.3586V93.1839ZM229.102 63.249C226.583 64.9339 224.68 69.2958 224.253 74.6294L229.102 80.0682V63.249ZM248.224 63.249V80.0413L253.07 74.6059C252.639 69.2834 250.74 64.9328 248.224 63.249Z" fill="black"/>
<text xmlns="http://www.w3.org/2000/svg" x="240" y="50" font-size="20" text-anchor="middle" fill="#000">D1</text>
</g>
<path d="M228.163 62.5H248.163C249.363 62.5 251.996 69.8333 253.163 73.5V93H258.163V135.5H253.163L252.663 157C253.063 159.8 250.163 163.167 248.663 164.5H226.663C225.863 164.5 224.996 160.5 224.663 158.5C224.663 152.5 224.563 140.5 224.163 140.5C223.763 140.5 221.996 130.5 221.163 125.5V121L211.163 119V118H206.163V120.5H205.163V122H200.163V120H191.163V121H188.663V122.5H184.663V123.5H182.163L182.663 102H188.663V103.5H190.163V106H192.163V108H199.163V106.5H206.163V109.5H210.163V108.5L221.163 106.5V106C221.163 103.6 223.829 91.6667 225.163 86C224.996 81.1667 224.763 71.1 225.163 69.5C225.563 67.9 227.329 64.1667 228.163 62.5Z" stroke="#DCDCDC"/>
<g class="tyre-group" data-code="C1">
<path fill-rule="evenodd" clip-rule="evenodd" d="M56.5345 63.5526L55.9126 63.5H52.0059L53.1906 71.5362C53.2357 71.8452 53.2357 72.1722 53.1906 72.4812L51.6764 82.7565L53.1906 93.0319C53.2357 93.3409 53.2357 93.6678 53.1906 93.9768L51.6764 104.252L53.1906 114.528L53.203 114.623C53.2154 114.731 53.2227 114.842 53.2244 114.955V115.045C53.2227 115.158 53.2154 115.269 53.203 115.377L53.1906 115.472L51.6764 125.748L53.1906 136.023C53.2357 136.332 53.2357 136.659 53.1906 136.968L51.6764 147.243L53.1906 157.519C53.2357 157.828 53.2357 158.155 53.1906 158.464L52.0059 166.5H55.9126C56.1222 166.5 56.33 166.482 56.5345 166.447V63.5526ZM50.245 63.5H46.1569L47.3416 71.5362C47.3867 71.8452 47.3867 72.1722 47.3416 72.4812L45.8274 82.7565L47.3416 93.0319C47.3867 93.3409 47.3867 93.6678 47.3416 93.9768L45.8274 104.252L47.3416 114.528L47.354 114.623C47.3664 114.731 47.3737 114.842 47.3754 114.955V115.045C47.3737 115.158 47.3664 115.269 47.354 115.377L47.3416 115.472L45.8274 125.748L47.3416 136.023C47.3867 136.332 47.3867 136.659 47.3416 136.968L45.8274 147.243L47.3416 157.519C47.3867 157.828 47.3867 158.155 47.3416 158.464L46.1569 166.5H50.245L51.4989 157.991L49.9847 147.716C49.9391 147.407 49.9391 147.079 49.9847 146.771L51.4989 136.496L49.9847 126.22C49.9391 125.912 49.9391 125.584 49.9847 125.275L51.4989 115L49.9847 104.725C49.9391 104.416 49.9391 104.088 49.9847 103.78L51.4989 93.5043L49.9847 83.229C49.9391 82.9205 49.9391 82.5925 49.9847 82.2841L51.4989 72.0087L50.245 63.5ZM45.6499 72.0087L44.396 63.5H41.4126C41.203 63.5 40.9963 63.5179 40.7918 63.5526V166.447C40.9963 166.482 41.203 166.5 41.4126 166.5H44.396L45.6499 157.991L44.1357 147.716C44.0901 147.407 44.0901 147.079 44.1357 146.771L45.6499 136.496L44.1357 126.22C44.0901 125.912 44.0901 125.584 44.1357 125.275L45.6499 115L44.1357 104.725C44.0901 104.416 44.0901 104.088 44.1357 103.78L45.6499 93.5043L44.1357 83.229C44.0901 82.9205 44.0901 82.5925 44.1357 82.2841L45.6499 72.0087ZM34.2398 154.198C34.6392 159.61 36.555 164.048 39.1018 165.751V159.652L34.2398 154.198ZM63.0877 154.17L58.2245 159.625V165.751C60.7747 164.044 62.6922 159.595 63.0877 154.17ZM39.1018 140.969V155.795L34.1626 150.255V135.43L39.1018 140.969ZM63.1626 150.229L58.2245 155.768V140.943L63.1626 135.404V150.229ZM39.1018 122.288V137.113L34.1626 131.573V116.748L39.1018 122.288ZM63.1626 131.547L58.2245 137.087V122.262L63.1626 116.723V131.547ZM39.1018 103.606V118.431L34.1626 112.891V98.0666L39.1018 103.606ZM63.1626 112.866L58.2245 118.405V103.579L63.1626 98.0408V112.866ZM39.1018 84.924V99.7493L34.1626 94.2097V79.3844L39.1018 84.924ZM63.1626 94.1839L58.2245 99.7224V84.8983L63.1626 79.3586V94.1839ZM39.1018 64.249C36.5826 65.9339 34.6803 70.2958 34.2527 75.6294L39.1018 81.0682V64.249ZM58.2245 64.249V81.0413L63.0702 75.6059C62.6393 70.2834 60.7397 65.9328 58.2245 64.249Z" fill="black"/>
<text xmlns="http://www.w3.org/2000/svg" x="50" y="50" font-size="20" text-anchor="middle" fill="#000">C1</text>
</g>
</svg>
