<svg width="24" height="24" viewBox="0 0 24 24" fill="none" xmlns="http://www.w3.org/2000/svg">
<path d="M11.4375 17.9766C11.6316 17.9766 11.7891 17.8191 11.7891 17.625C11.7891 17.4309 11.6316 17.2734 11.4375 17.2734C11.2434 17.2734 11.0859 17.4309 11.0859 17.625C11.0859 17.8191 11.2434 17.9766 11.4375 17.9766ZM16.7109 15.8672H14.6016C14.4074 15.8672 14.25 16.0246 14.25 16.2188V18.3281C14.25 18.5223 14.4074 18.6797 14.6016 18.6797H16.7109C16.9051 18.6797 17.0625 18.5223 17.0625 18.3281V16.2188C17.0625 16.0246 16.9051 15.8672 16.7109 15.8672ZM16.3594 17.9766H14.9531V16.5703H16.3594V17.9766ZM8.27344 7.42969H6.16406C5.96989 7.42969 5.8125 7.58708 5.8125 7.78125V9.89062C5.8125 10.0848 5.96989 10.2422 6.16406 10.2422H8.27344C8.46761 10.2422 8.625 10.0848 8.625 9.89062V7.78125C8.625 7.58708 8.46761 7.42969 8.27344 7.42969ZM7.92188 9.53906H6.51562V8.13281H7.92188V9.53906ZM12.4922 7.42969H10.3828C10.1886 7.42969 10.0312 7.58708 10.0312 7.78125V9.89062C10.0312 10.0848 10.1886 10.2422 10.3828 10.2422H12.4922C12.6864 10.2422 12.8438 10.0848 12.8438 9.89062V7.78125C12.8438 7.58708 12.6864 7.42969 12.4922 7.42969ZM12.1406 9.53906H10.7344V8.13281H12.1406V9.53906ZM14.25 7.78125V9.89062C14.25 10.0848 14.4074 10.2422 14.6016 10.2422H16.7109C16.9051 10.2422 17.0625 10.0848 17.0625 9.89062V7.78125C17.0625 7.58708 16.9051 7.42969 16.7109 7.42969H14.6016C14.4074 7.42969 14.25 7.58708 14.25 7.78125ZM14.9531 8.13281H16.3594V9.53906H14.9531V8.13281ZM8.27344 11.6484H6.16406C5.96989 11.6484 5.8125 11.8058 5.8125 12V14.1094C5.8125 14.3035 5.96989 14.4609 6.16406 14.4609H8.27344C8.46761 14.4609 8.625 14.3035 8.625 14.1094V12C8.625 11.8058 8.46761 11.6484 8.27344 11.6484ZM7.92188 13.7578H6.51562V12.3516H7.92188V13.7578ZM12.4922 11.6484H10.3828C10.1886 11.6484 10.0312 11.8058 10.0312 12V14.1094C10.0312 14.3035 10.1886 14.4609 10.3828 14.4609H12.4922C12.6864 14.4609 12.8438 14.3035 12.8438 14.1094V12C12.8438 11.8058 12.6864 11.6484 12.4922 11.6484ZM12.1406 13.7578H10.7344V12.3516H12.1406V13.7578ZM16.7109 11.6484H14.6016C14.4074 11.6484 14.25 11.8058 14.25 12V14.1094C14.25 14.3035 14.4074 14.4609 14.6016 14.4609H16.7109C16.9051 14.4609 17.0625 14.3035 17.0625 14.1094V12C17.0625 11.8058 16.9051 11.6484 16.7109 11.6484ZM16.3594 13.7578H14.9531V12.3516H16.3594V13.7578ZM8.27344 15.8672H6.16406C5.96989 15.8672 5.8125 16.0246 5.8125 16.2188V18.3281C5.8125 18.5223 5.96989 18.6797 6.16406 18.6797H8.27344C8.46761 18.6797 8.625 18.5223 8.625 18.3281V16.2188C8.625 16.0246 8.46761 15.8672 8.27344 15.8672ZM7.92188 17.9766H6.51562V16.5703H7.92188V17.9766Z" fill="#485D6B"/>
<path d="M16.0078 3H6.86719C6.67302 3 6.51562 3.15739 6.51562 3.35156V5.32031H4.75781C4.56364 5.32031 4.40625 5.47771 4.40625 5.67188V20.2969H3.35156C3.15739 20.2969 3 20.4543 3 20.6484C3 20.8426 3.15739 21 3.35156 21H19.5234C19.7176 21 19.875 20.8426 19.875 20.6484C19.875 20.4543 19.7176 20.2969 19.5234 20.2969H18.4688V5.67188C18.4688 5.47771 18.3114 5.32031 18.1172 5.32031H16.3594V3.35156C16.3594 3.15739 16.202 3 16.0078 3ZM7.21875 3.70312H15.6562V5.32031H7.21875V3.70312ZM12.8438 20.2969H11.7891V19.0312C11.7891 18.8371 11.6317 18.6797 11.4375 18.6797C11.2433 18.6797 11.0859 18.8371 11.0859 19.0312V20.2969H10.0312V16.5703H12.8438V20.2969ZM17.7656 20.2969H13.5469V16.2188C13.5469 16.0246 13.3895 15.8672 13.1953 15.8672H9.67969C9.48552 15.8672 9.32812 16.0246 9.32812 16.2188V20.2969H5.10938V6.02344H17.7656V20.2969Z" fill="#485D6B"/>
</svg>
