<svg width="24" height="24" viewBox="0 0 24 24" fill="none" xmlns="http://www.w3.org/2000/svg">
<path d="M19.5625 12H16.125V4.4375C16.125 3.89049 15.9077 3.36589 15.5209 2.97909C15.1341 2.5923 14.6095 2.375 14.0625 2.375H4.4375C3.89049 2.375 3.36589 2.5923 2.97909 2.97909C2.5923 3.36589 2.375 3.89049 2.375 4.4375V18.1875C2.375 19.0992 2.73716 19.9735 3.38182 20.6182C4.02648 21.2628 4.90082 21.625 5.8125 21.625H18.1875C19.0992 21.625 19.9735 21.2628 20.6182 20.6182C21.2628 19.9735 21.625 19.0992 21.625 18.1875V14.0625C21.625 13.5155 21.4077 12.9909 21.0209 12.6041C20.6341 12.2173 20.1095 12 19.5625 12ZM3.75 18.1875V4.4375C3.75 4.25516 3.82243 4.0803 3.95136 3.95136C4.0803 3.82243 4.25516 3.75 4.4375 3.75H14.0625C14.2448 3.75 14.4197 3.82243 14.5486 3.95136C14.6776 4.0803 14.75 4.25516 14.75 4.4375V18.1875C14.746 18.9319 14.9876 19.6569 15.4375 20.25H5.8125C5.26549 20.25 4.74089 20.0327 4.35409 19.6459C3.9673 19.2591 3.75 18.7345 3.75 18.1875ZM20.25 18.1875C20.25 18.7345 20.0327 19.2591 19.6459 19.6459C19.2591 20.0327 18.7345 20.25 18.1875 20.25C17.6405 20.25 17.1159 20.0327 16.7291 19.6459C16.3423 19.2591 16.125 18.7345 16.125 18.1875V13.375H19.5625C19.7448 13.375 19.9197 13.4474 20.0486 13.5764C20.1776 13.7053 20.25 13.8802 20.25 14.0625V18.1875Z" fill="#485D6B"/>
<path d="M5.8125 6.5H8.5625C8.74484 6.5 8.9197 6.42757 9.04864 6.29864C9.17757 6.1697 9.25 5.99484 9.25 5.8125C9.25 5.63016 9.17757 5.4553 9.04864 5.32636C8.9197 5.19743 8.74484 5.125 8.5625 5.125H5.8125C5.63016 5.125 5.4553 5.19743 5.32636 5.32636C5.19743 5.4553 5.125 5.63016 5.125 5.8125C5.125 5.99484 5.19743 6.1697 5.32636 6.29864C5.4553 6.42757 5.63016 6.5 5.8125 6.5ZM12.6875 9.9375H5.8125C5.63016 9.9375 5.4553 10.0099 5.32636 10.1389C5.19743 10.2678 5.125 10.4427 5.125 10.625C5.125 10.8073 5.19743 10.9822 5.32636 11.1111C5.4553 11.2401 5.63016 11.3125 5.8125 11.3125H12.6875C12.8698 11.3125 13.0447 11.2401 13.1736 11.1111C13.3026 10.9822 13.375 10.8073 13.375 10.625C13.375 10.4427 13.3026 10.2678 13.1736 10.1389C13.0447 10.0099 12.8698 9.9375 12.6875 9.9375ZM12.6875 12.6875H5.8125C5.63016 12.6875 5.4553 12.7599 5.32636 12.8889C5.19743 13.0178 5.125 13.1927 5.125 13.375C5.125 13.5573 5.19743 13.7322 5.32636 13.8611C5.4553 13.9901 5.63016 14.0625 5.8125 14.0625H12.6875C12.8698 14.0625 13.0447 13.9901 13.1736 13.8611C13.3026 13.7322 13.375 13.5573 13.375 13.375C13.375 13.1927 13.3026 13.0178 13.1736 12.8889C13.0447 12.7599 12.8698 12.6875 12.6875 12.6875ZM12.6875 15.4375H9.25C9.06766 15.4375 8.8928 15.5099 8.76386 15.6389C8.63493 15.7678 8.5625 15.9427 8.5625 16.125C8.5625 16.3073 8.63493 16.4822 8.76386 16.6111C8.8928 16.7401 9.06766 16.8125 9.25 16.8125H12.6875C12.8698 16.8125 13.0447 16.7401 13.1736 16.6111C13.3026 16.4822 13.375 16.3073 13.375 16.125C13.375 15.9427 13.3026 15.7678 13.1736 15.6389C13.0447 15.5099 12.8698 15.4375 12.6875 15.4375Z" fill="#485D6B"/>
</svg>
