<svg width="24" height="24" viewBox="0 0 24 24" fill="none" xmlns="http://www.w3.org/2000/svg">
<path d="M4.7814 20.0002C4.62686 20.0002 4.47579 19.9544 4.34728 19.8686C4.21878 19.7828 4.11862 19.6607 4.05948 19.518C4.00033 19.3752 3.98486 19.2181 4.01502 19.0665C4.04518 18.9149 4.11961 18.7757 4.2289 18.6665L18.6665 4.22885C18.813 4.08232 19.0118 4 19.219 4C19.4262 4 19.625 4.08232 19.7715 4.22885C19.918 4.37539 20.0004 4.57413 20.0004 4.78136C20.0004 4.98859 19.918 5.18733 19.7715 5.33386L5.33391 19.7715C5.26142 19.8441 5.17529 19.9017 5.08047 19.941C4.98566 19.9802 4.88402 20.0004 4.7814 20.0002Z" fill="#BCBCBC"/>
<path d="M19.219 20.0002C19.1163 20.0004 19.0147 19.9802 18.9199 19.941C18.8251 19.9017 18.7389 19.8441 18.6665 19.7715L4.22885 5.33386C4.08232 5.18733 4 4.98859 4 4.78136C4 4.57413 4.08232 4.37539 4.22885 4.22885C4.37539 4.08232 4.57413 4 4.78136 4C4.98859 4 5.18733 4.08232 5.33386 4.22885L19.7715 18.6665C19.8808 18.7757 19.9552 18.9149 19.9853 19.0665C20.0155 19.2181 20 19.3752 19.9409 19.518C19.8817 19.6607 19.7816 19.7828 19.6531 19.8686C19.5246 19.9544 19.3735 20.0002 19.219 20.0002Z" fill="#BCBCBC"/>
</svg>
