<svg width="24" height="25" viewBox="0 0 24 25" fill="none" xmlns="http://www.w3.org/2000/svg">
<g clip-path="url(#clip0_1368_2949)">
<path d="M4.16439 16.8489C4.01608 16.8488 3.8711 16.8048 3.7478 16.7224C3.62449 16.64 3.52838 16.5229 3.47163 16.3858C3.41488 16.2488 3.40003 16.098 3.42895 15.9526C3.45788 15.8071 3.52928 15.6735 3.63414 15.5686L15.3544 3.84835C15.4236 3.77672 15.5063 3.71958 15.5978 3.68027C15.6893 3.64097 15.7878 3.62028 15.8873 3.61941C15.9869 3.61855 16.0857 3.63752 16.1779 3.67523C16.27 3.71295 16.3538 3.76864 16.4242 3.83905C16.4946 3.90947 16.5503 3.99321 16.588 4.08539C16.6257 4.17756 16.6447 4.27632 16.6438 4.3759C16.643 4.47549 16.6223 4.5739 16.583 4.6654C16.5437 4.75691 16.4865 4.83967 16.4149 4.90885L4.69464 16.6291C4.54839 16.7754 4.35639 16.8489 4.16439 16.8489Z" fill="#485D6B"/>
<path d="M3.00646 22.2501C2.89455 22.2502 2.78403 22.2253 2.68302 22.1771C2.58201 22.1289 2.49305 22.0588 2.42268 21.9717C2.35231 21.8847 2.30231 21.7831 2.27634 21.6742C2.25036 21.5654 2.24908 21.4521 2.27258 21.3426L3.43133 15.9415C3.45173 15.845 3.49098 15.7534 3.54684 15.672C3.6027 15.5907 3.67407 15.5211 3.75686 15.4674C3.83964 15.4137 3.93221 15.3768 4.02927 15.3589C4.12633 15.3411 4.22596 15.3425 4.32245 15.3632C4.41895 15.3839 4.51041 15.4235 4.59159 15.4796C4.67277 15.5357 4.74208 15.6073 4.79555 15.6902C4.84901 15.7732 4.88558 15.8659 4.90315 15.963C4.92073 16.0601 4.91896 16.1597 4.89796 16.2561L3.73921 21.6573C3.70328 21.825 3.61094 21.9753 3.4776 22.0832C3.34427 22.1911 3.17798 22.25 3.00646 22.2501ZM8.40683 21.0914C8.25852 21.0914 8.11355 21.0474 7.99024 20.9649C7.86693 20.8825 7.77083 20.7654 7.71407 20.6284C7.65732 20.4914 7.64247 20.3406 7.6714 20.1951C7.70032 20.0497 7.77173 19.916 7.87658 19.8111L19.5968 8.09127C19.666 8.01964 19.7488 7.9625 19.8403 7.92319C19.9318 7.88389 20.0302 7.8632 20.1298 7.86233C20.2294 7.86147 20.3281 7.88044 20.4203 7.91815C20.5125 7.95587 20.5962 8.01155 20.6666 8.08197C20.737 8.15239 20.7927 8.23613 20.8304 8.3283C20.8682 8.42048 20.8871 8.51924 20.8863 8.61882C20.8854 8.71841 20.8647 8.81682 20.8254 8.90832C20.7861 8.99983 20.729 9.08259 20.6573 9.15177L8.93746 20.8716C8.86786 20.9414 8.78515 20.9968 8.69408 21.0345C8.60302 21.0722 8.5054 21.0915 8.40683 21.0914Z" fill="#485D6B"/>
<path d="M3.005 22.2501C2.82019 22.2493 2.64217 22.1804 2.50506 22.0564C2.36795 21.9325 2.28139 21.7624 2.26197 21.5786C2.24255 21.3948 2.29164 21.2103 2.39982 21.0605C2.50801 20.9106 2.66769 20.806 2.84825 20.7666L8.24938 19.6078C8.44359 19.5668 8.64616 19.6045 8.81267 19.7125C8.97918 19.8206 9.09606 19.9903 9.1377 20.1843C9.17934 20.3784 9.14233 20.5811 9.03479 20.748C8.92726 20.9148 8.75796 21.0322 8.564 21.0745L3.16288 22.2332C3.11102 22.2445 3.05808 22.2502 3.005 22.2501ZM18.0058 11.4925C17.9072 11.4927 17.8097 11.4733 17.7187 11.4356C17.6276 11.3979 17.545 11.3425 17.4755 11.2727L13.2331 7.03034C13.1615 6.96116 13.1044 6.8784 13.0651 6.7869C13.0257 6.69539 13.0051 6.59698 13.0042 6.4974C13.0033 6.39781 13.0223 6.29905 13.06 6.20688C13.0977 6.11471 13.1534 6.03097 13.2238 5.96055C13.2942 5.89013 13.378 5.83444 13.4702 5.79673C13.5623 5.75902 13.6611 5.74004 13.7607 5.74091C13.8603 5.74177 13.9587 5.76246 14.0502 5.80177C14.1417 5.84107 14.2244 5.89821 14.2936 5.96984L18.536 10.2122C18.6409 10.3171 18.7123 10.4507 18.7412 10.5962C18.7701 10.7417 18.7553 10.8924 18.6985 11.0295C18.6418 11.1665 18.5457 11.2836 18.4223 11.366C18.299 11.4484 18.1541 11.4924 18.0058 11.4925ZM20.1271 9.37147C19.9787 9.37159 19.8336 9.32766 19.7101 9.24526C19.5867 9.16286 19.4905 9.04568 19.4337 8.90856C19.3768 8.77144 19.362 8.62055 19.391 8.47499C19.42 8.32943 19.4915 8.19574 19.5965 8.09084C20.0139 7.67347 20.2438 7.10834 20.2438 6.50009C20.2438 5.89184 20.0139 5.32672 19.5965 4.90934C19.1788 4.49159 18.6136 4.26172 18.0054 4.26172C17.3971 4.26172 16.832 4.49159 16.4146 4.90934C16.345 4.979 16.2623 5.03426 16.1713 5.07196C16.0802 5.10965 15.9827 5.12906 15.8842 5.12906C15.7857 5.12906 15.6881 5.10965 15.5971 5.07196C15.5061 5.03426 15.4234 4.979 15.3538 4.90934C15.2841 4.83969 15.2288 4.75699 15.1911 4.66598C15.1534 4.57496 15.134 4.47742 15.134 4.37891C15.134 4.2804 15.1534 4.18285 15.1911 4.09184C15.2288 4.00082 15.2841 3.91813 15.3538 3.84847C16.0543 3.14759 16.9959 2.76172 18.0054 2.76172C19.0145 2.76172 19.9565 3.14759 20.657 3.84847C21.3579 4.54897 21.7438 5.49059 21.7438 6.50009C21.7438 7.50959 21.3579 8.45122 20.657 9.15172C20.5875 9.22149 20.505 9.27683 20.414 9.31454C20.3231 9.35226 20.2256 9.3716 20.1271 9.37147Z" fill="#485D6B"/>
</g>
<defs>
<clipPath id="clip0_1368_2949">
<rect width="24" height="24" fill="white" transform="translate(0 0.5)"/>
</clipPath>
</defs>
</svg>
