<svg width="24" height="24" viewBox="0 0 24 24" fill="none" xmlns="http://www.w3.org/2000/svg">
<path d="M19.418 5.67188H4.58203C3.70794 5.67188 3 6.38421 3 7.25391V16.7461C3 17.621 3.71314 18.3281 4.58203 18.3281H19.418C20.2847 18.3281 21 17.6239 21 16.7461V7.25391C21 6.38576 20.2949 5.67188 19.418 5.67188ZM19.1964 6.72656L13.1187 12.7723C12.8198 13.0711 12.4226 13.2356 12 13.2356C11.5774 13.2356 11.1802 13.0711 10.8803 12.7713L4.80359 6.72656H19.1964ZM4.05469 16.5314V7.46924L8.61227 12.0028L4.05469 16.5314ZM4.80425 17.2734L9.36005 12.7466L10.1356 13.518C10.6336 14.0161 11.2957 14.2903 12 14.2903C12.7043 14.2903 13.3664 14.0161 13.8635 13.519L14.64 12.7466L19.1957 17.2734H4.80425ZM19.9453 16.5314L15.3877 12.0028L19.9453 7.46924V16.5314Z" fill="#485D6B"/>
</svg>
