<svg width="24" height="25" viewBox="0 0 24 25" fill="none" xmlns="http://www.w3.org/2000/svg">
<g clip-path="url(#clip0_6658_1747)">
<path d="M21.0525 17.245L19.77 15.4C19.5949 15.1492 19.5007 14.8509 19.5 14.545V9.25C19.5 7.26088 18.7098 5.35322 17.3033 3.9467C15.8968 2.54018 13.9891 1.75 12 1.75C10.0109 1.75 8.10322 2.54018 6.6967 3.9467C5.29017 5.35322 4.5 7.26088 4.5 9.25V14.545C4.49927 14.8509 4.40506 15.1492 4.23 15.4L2.9475 17.245C2.75331 17.4602 2.62561 17.727 2.57985 18.0132C2.53409 18.2994 2.57222 18.5927 2.68964 18.8577C2.80706 19.1227 2.99873 19.348 3.24148 19.5063C3.48423 19.6647 3.76766 19.7493 4.0575 19.75H8.325C8.49713 20.5977 8.95705 21.3599 9.6268 21.9073C10.2966 22.4547 11.135 22.7538 12 22.7538C12.865 22.7538 13.7034 22.4547 14.3732 21.9073C15.043 21.3599 15.5029 20.5977 15.675 19.75H19.9425C20.2323 19.7493 20.5158 19.6647 20.7585 19.5063C21.0013 19.348 21.1929 19.1227 21.3104 18.8577C21.4278 18.5927 21.4659 18.2994 21.4201 18.0132C21.3744 17.727 21.2467 17.4602 21.0525 17.245ZM12 21.25C11.5358 21.2487 11.0833 21.1038 10.7047 20.8353C10.3261 20.5668 10.0397 20.1877 9.885 19.75H14.115C13.9603 20.1877 13.6739 20.5668 13.2953 20.8353C12.9166 21.1038 12.4642 21.2487 12 21.25ZM4.0575 18.25C4.0914 18.2185 4.12159 18.1833 4.1475 18.145L5.46 16.255C5.81013 15.7534 5.99855 15.1567 6 14.545V9.25C6 7.6587 6.63214 6.13258 7.75736 5.00736C8.88258 3.88214 10.4087 3.25 12 3.25C13.5913 3.25 15.1174 3.88214 16.2426 5.00736C17.3679 6.13258 18 7.6587 18 9.25V14.545C18.0014 15.1567 18.1899 15.7534 18.54 16.255L19.8525 18.145C19.8784 18.1833 19.9086 18.2185 19.9425 18.25H4.0575Z" fill="white"/>
</g>
<defs>
<clipPath id="clip0_6658_1747">
<rect width="24" height="24" fill="white" transform="translate(0 0.25)"/>
</clipPath>
</defs>
</svg>
