<svg width="24" height="24" viewBox="0 0 24 24" fill="none" xmlns="http://www.w3.org/2000/svg">
<path d="M21.375 14.5C21.03 14.5 20.75 14.78 20.75 15.125V19.5H3.25V12H10.125C10.47 12 10.75 11.72 10.75 11.375C10.75 11.03 10.47 10.75 10.125 10.75H3.25V8.25H10.125C10.47 8.25 10.75 7.97 10.75 7.625C10.75 7.28 10.47 7 10.125 7H3.25C2.56 7 2 7.56 2 8.25V19.5C2 20.19 2.56 20.75 3.25 20.75H20.75C21.44 20.75 22 20.19 22 19.5V15.125C22 14.78 21.72 14.5 21.375 14.5Z" fill="#485D6B"/>
<path d="M7.625 14.4997H5.125C4.78 14.4997 4.5 14.7797 4.5 15.1247C4.5 15.4697 4.78 15.7497 5.125 15.7497H7.625C7.97 15.7497 8.25 15.4697 8.25 15.1247C8.25 14.7797 7.97 14.4997 7.625 14.4997ZM21.6213 5.17469L17.2462 3.29969C17.1681 3.26689 17.0842 3.25 16.9994 3.25C16.9146 3.25 16.8307 3.26689 16.7525 3.29969L12.3775 5.17469C12.2654 5.22326 12.1699 5.30358 12.1028 5.40575C12.0357 5.50792 12 5.62747 12 5.74969V8.24969C12 11.6884 13.2713 13.6984 16.6888 15.6672C16.785 15.7222 16.8925 15.7497 17 15.7497C17.1075 15.7497 17.215 15.7222 17.3112 15.6672C20.7288 13.7034 22 11.6934 22 8.24969V5.74969C22 5.49969 21.8512 5.27344 21.6213 5.17469ZM20.75 8.24969C20.75 11.1359 19.795 12.7247 17 14.3997C14.205 12.7209 13.25 11.1322 13.25 8.24969V6.16219L17 4.55469L20.75 6.16219V8.24969Z" fill="#485D6B"/>
<path d="M19.2663 7.13546C18.9976 6.92296 18.6051 6.96421 18.3876 7.23296L16.4226 9.69046L15.6451 8.52796C15.4513 8.24046 15.0626 8.16421 14.7788 8.35421C14.4926 8.54546 14.4138 8.93421 14.6051 9.22046L15.8551 11.0955C15.9663 11.2617 16.1488 11.3642 16.3488 11.3742H16.3751C16.5638 11.3742 16.7438 11.2892 16.8638 11.1392L19.3638 8.01421C19.5788 7.74421 19.5363 7.35171 19.2663 7.13546Z" fill="#485D6B"/>
</svg>
