<svg width="24" height="24" viewBox="0 0 24 24" fill="none" xmlns="http://www.w3.org/2000/svg">
<path d="M14.6974 7.875C14.6974 7.78659 14.6623 7.70181 14.5998 7.6393C14.5373 7.57679 14.4525 7.54167 14.3641 7.54167H5.0415C4.85771 7.54167 4.70817 7.39213 4.70817 7.20833V4.875C4.70817 4.69121 4.85771 4.54167 5.0415 4.54167H14.7082C14.892 4.54167 15.0415 4.69121 15.0415 4.875V6.51479C15.0415 6.6032 15.0766 6.68798 15.1391 6.75049C15.2016 6.81301 15.2864 6.84813 15.3748 6.84813C15.4632 6.84813 15.548 6.81301 15.6105 6.75049C15.6731 6.68798 15.7082 6.6032 15.7082 6.51479V4.875C15.7082 4.32363 15.2595 3.875 14.7082 3.875H5.0415C4.49013 3.875 4.0415 4.32363 4.0415 4.875V7.20833C4.0415 7.75971 4.49013 8.20833 5.0415 8.20833H14.3641C14.4525 8.20833 14.5373 8.17321 14.5998 8.1107C14.6623 8.04819 14.6974 7.96341 14.6974 7.875ZM7.24984 10.2549C7.24984 9.76971 6.85513 9.375 6.36996 9.375H4.92138C4.43621 9.375 4.0415 9.76971 4.0415 10.2549V11.2868C4.0415 11.772 4.43621 12.1667 4.92138 12.1667H6.36996C6.85513 12.1667 7.24984 11.772 7.24984 11.2868V10.2549ZM6.58317 11.2868C6.58312 11.3433 6.56063 11.3975 6.52066 11.4375C6.48069 11.4775 6.42649 11.4999 6.36996 11.5H4.92138C4.86485 11.4999 4.81065 11.4775 4.77068 11.4375C4.73071 11.3975 4.70823 11.3433 4.70817 11.2868V10.2549C4.70823 10.1983 4.73071 10.1441 4.77068 10.1042C4.81065 10.0642 4.86485 10.0417 4.92138 10.0417H6.36996C6.42649 10.0417 6.48069 10.0642 6.52066 10.1042C6.56063 10.1441 6.58312 10.1983 6.58317 10.2549V11.2868ZM11.4582 10.2549C11.4582 9.76971 11.0635 9.375 10.5783 9.375H9.12971C8.64455 9.375 8.24984 9.76971 8.24984 10.2549V11.2868C8.24984 11.772 8.64455 12.1667 9.12971 12.1667H10.5783C11.0635 12.1667 11.4582 11.772 11.4582 11.2868V10.2549ZM10.7915 11.2868C10.7914 11.3433 10.769 11.3975 10.729 11.4375C10.689 11.4775 10.6348 11.4999 10.5783 11.5H9.12971C9.07318 11.4999 9.01898 11.4775 8.97901 11.4375C8.93904 11.3975 8.91656 11.3433 8.9165 11.2868V10.2549C8.91656 10.1983 8.93904 10.1441 8.97901 10.1042C9.01898 10.0642 9.07318 10.0417 9.12971 10.0417H10.5783C10.6348 10.0417 10.689 10.0642 10.729 10.1042C10.769 10.1441 10.7914 10.1983 10.7915 10.2549V11.2868ZM14.8283 9.375H13.3797C12.8945 9.375 12.4998 9.76971 12.4998 10.2549V11.2868C12.4998 11.772 12.8945 12.1667 13.3797 12.1667H14.8283C15.3135 12.1667 15.7082 11.772 15.7082 11.2868V10.2549C15.7082 9.76971 15.3135 9.375 14.8283 9.375ZM15.0415 11.2868C15.0414 11.3433 15.019 11.3975 14.979 11.4375C14.939 11.4775 14.8848 11.4999 14.8283 11.5H13.3797C13.3232 11.4999 13.269 11.4775 13.229 11.4375C13.1891 11.3975 13.1666 11.3433 13.1665 11.2868V10.2549C13.1666 10.1983 13.1891 10.1442 13.229 10.1042C13.269 10.0642 13.3232 10.0417 13.3797 10.0417H14.8283C14.8848 10.0417 14.939 10.0642 14.979 10.1042C15.019 10.1442 15.0414 10.1983 15.0415 10.2549V11.2868ZM7.24984 14.2549C7.24984 13.7697 6.85513 13.375 6.36996 13.375H4.92138C4.43621 13.375 4.0415 13.7697 4.0415 14.2549V15.2868C4.0415 15.772 4.43621 16.1667 4.92138 16.1667H6.36996C6.85513 16.1667 7.24984 15.772 7.24984 15.2868V14.2549ZM6.58317 15.2868C6.58312 15.3433 6.56063 15.3975 6.52066 15.4375C6.48069 15.4775 6.42649 15.4999 6.36996 15.5H4.92138C4.86485 15.4999 4.81065 15.4775 4.77068 15.4375C4.73071 15.3975 4.70823 15.3433 4.70817 15.2868V14.2549C4.70823 14.1983 4.73071 14.1441 4.77068 14.1042C4.81065 14.0642 4.86485 14.0417 4.92138 14.0417H6.36996C6.42649 14.0417 6.48069 14.0642 6.52066 14.1042C6.56063 14.1441 6.58312 14.1983 6.58317 14.2549V15.2868ZM11.4582 14.2549C11.4582 13.7697 11.0635 13.375 10.5783 13.375H9.12971C8.64455 13.375 8.24984 13.7697 8.24984 14.2549V15.2868C8.24984 15.772 8.64455 16.1667 9.12971 16.1667H10.5783C11.0635 16.1667 11.4582 15.772 11.4582 15.2868V14.2549ZM10.7915 15.2868C10.7914 15.3433 10.769 15.3975 10.729 15.4375C10.689 15.4775 10.6348 15.4999 10.5783 15.5H9.12971C9.07318 15.4999 9.01898 15.4775 8.97901 15.4375C8.93904 15.3975 8.91656 15.3433 8.9165 15.2868V14.2549C8.91656 14.1983 8.93904 14.1441 8.97901 14.1042C9.01898 14.0642 9.07318 14.0417 9.12971 14.0417H10.5783C10.6348 14.0417 10.689 14.0642 10.729 14.1042C10.769 14.1441 10.7914 14.1983 10.7915 14.2549V15.2868ZM6.36996 17.375H4.92138C4.43621 17.375 4.0415 17.7697 4.0415 18.2549V19.2868C4.0415 19.772 4.43621 20.1667 4.92138 20.1667H6.36996C6.85513 20.1667 7.24984 19.772 7.24984 19.2868V18.2549C7.24984 17.7697 6.85513 17.375 6.36996 17.375ZM6.58317 19.2868C6.58312 19.3433 6.56063 19.3975 6.52066 19.4375C6.48069 19.4775 6.42649 19.4999 6.36996 19.5H4.92138C4.86485 19.4999 4.81065 19.4775 4.77068 19.4375C4.73071 19.3975 4.70823 19.3433 4.70817 19.2868V18.2549C4.70823 18.1983 4.73071 18.1441 4.77068 18.1042C4.81065 18.0642 4.86485 18.0417 4.92138 18.0417H6.36996C6.42649 18.0417 6.48069 18.0642 6.52066 18.1042C6.56063 18.1441 6.58312 18.1983 6.58317 18.2549V19.2868ZM10.5783 17.375H9.12971C8.64455 17.375 8.24984 17.7697 8.24984 18.2549V19.2868C8.24984 19.772 8.64455 20.1667 9.12971 20.1667H10.5783C11.0635 20.1667 11.4582 19.772 11.4582 19.2868V18.2549C11.4582 17.7697 11.0635 17.375 10.5783 17.375ZM10.7915 19.2868C10.7914 19.3433 10.769 19.3975 10.729 19.4375C10.689 19.4775 10.6348 19.4999 10.5783 19.5H9.12971C9.07318 19.4999 9.01898 19.4775 8.97901 19.4375C8.93904 19.3975 8.91656 19.3433 8.9165 19.2868V18.2549C8.91656 18.1983 8.93904 18.1441 8.97901 18.1042C9.01898 18.0642 9.07318 18.0417 9.12971 18.0417H10.5783C10.6348 18.0417 10.689 18.0642 10.729 18.1042C10.769 18.1441 10.7914 18.1983 10.7915 18.2549V19.2868Z" fill="#485D6B" stroke="#485D6B" stroke-width="0.3"/>
<path d="M19.3838 13.0052C19.3447 12.9855 19.3021 12.9737 19.2585 12.9705C19.2148 12.9672 19.1709 12.9726 19.1294 12.9863C19.0878 13.0001 19.0493 13.0218 19.0162 13.0504C18.983 13.079 18.9558 13.1138 18.9361 13.1529C18.9165 13.192 18.9047 13.2346 18.9014 13.2783C18.8982 13.3219 18.9036 13.3658 18.9173 13.4074C18.931 13.4489 18.9528 13.4874 18.9814 13.5205C19.01 13.5537 19.0448 13.5809 19.0839 13.6006C20.4714 14.2993 21.3333 15.6977 21.3333 17.25C21.3333 19.5016 19.5015 21.3333 17.25 21.3333C14.9985 21.3333 13.1667 19.5016 13.1667 17.25C13.1667 14.9984 14.9985 13.1667 17.25 13.1667C17.3914 13.1667 17.478 13.1875 17.5863 13.1232C17.6343 13.0947 17.6744 13.0547 17.703 13.0068C17.7315 12.9589 17.7476 12.9045 17.7498 12.8488C17.7501 12.8385 17.75 3.68779 17.75 3.66667C17.75 2.74767 17.0023 2 16.0833 2H3.66667C2.74767 2 2 2.74767 2 3.66667V20.3333C2 21.2523 2.74767 22 3.66667 22H13.0632C13.1516 22 13.2364 21.9649 13.2989 21.9024C13.3614 21.8399 13.3965 21.7551 13.3965 21.6667C13.3965 21.5783 13.3614 21.4935 13.2989 21.431C13.2364 21.3685 13.1516 21.3333 13.0632 21.3333H3.66667C3.11529 21.3333 2.66667 20.8847 2.66667 20.3333V3.66667C2.66667 3.11529 3.11529 2.66667 3.66667 2.66667H16.0833C16.6347 2.66667 17.0833 3.11529 17.0833 3.66667V12.5033C14.5411 12.5914 12.5 14.6866 12.5 17.25C12.5 19.8692 14.6309 22 17.25 22C19.8691 22 22 19.8692 22 17.25C22 15.4444 20.9975 13.8178 19.3838 13.0052Z" fill="#485D6B" stroke="#485D6B" stroke-width="0.3"/>
<path d="M13.6667 7.00004C13.7551 7.00004 13.8399 6.96492 13.9024 6.90241C13.9649 6.8399 14 6.75511 14 6.66671V5.41671C14 5.3283 13.9649 5.24352 13.9024 5.18101C13.8399 5.11849 13.7551 5.08337 13.6667 5.08337H13.3333C13.2449 5.08337 13.1601 5.11849 13.0976 5.18101C13.0351 5.24352 13 5.3283 13 5.41671C13 5.50511 13.0351 5.5899 13.0976 5.65241C13.1601 5.71492 13.2449 5.75004 13.3333 5.75004V6.66671C13.3333 6.75511 13.3685 6.8399 13.431 6.90241C13.4935 6.96492 13.5783 7.00004 13.6667 7.00004Z" fill="#485D6B" stroke="#485D6B" stroke-width="0.3"/>
<path d="M19.931 15.0688C19.8394 14.9771 19.6908 14.9771 19.5992 15.0688L15.0704 19.5993C14.9787 19.6909 14.9787 19.8395 15.0704 19.9312C15.1162 19.9771 15.1762 20 15.2363 20C15.2963 20 15.3564 19.9771 15.4022 19.9312L19.931 15.4007C20.0227 15.3091 20.0227 15.1605 19.931 15.0688ZM16.1147 15.0016C15.5001 15.0016 15 15.5019 15 16.1167C15 16.7316 15.5001 17.2318 16.1147 17.2318C16.7293 17.2318 17.2294 16.7315 17.2294 16.1167C17.2294 15.5019 16.7293 15.0016 16.1147 15.0016ZM16.1147 16.7623C15.7588 16.7623 15.4693 16.4726 15.4693 16.1167C15.4693 15.7607 15.7589 15.4711 16.1147 15.4711C16.4705 15.4711 16.76 15.7607 16.76 16.1167C16.76 16.4726 16.4705 16.7623 16.1147 16.7623ZM18.8853 17.7696C18.2707 17.7696 17.7706 18.2698 17.7706 18.8847C17.7706 19.4995 18.2707 19.9998 18.8853 19.9998C19.4999 19.9998 20 19.4995 20 18.8847C20 18.2698 19.4999 17.7696 18.8853 17.7696ZM18.8853 19.5302C18.5295 19.5302 18.24 19.2406 18.24 18.8846C18.24 18.5287 18.5295 18.2391 18.8853 18.2391C19.2411 18.2391 19.5307 18.5287 19.5307 18.8846C19.5307 19.2406 19.2412 19.5302 18.8853 19.5302Z" fill="#485D6B" stroke="#485D6B" stroke-width="0.2"/>
</svg>
