<svg width="24" height="25" viewBox="0 0 24 25" fill="none" xmlns="http://www.w3.org/2000/svg">
<g clip-path="url(#clip0_1368_2970)">
<path d="M21.3745 11.8752H13.458C13.113 11.8752 12.833 11.5952 12.833 11.2502C12.833 10.9052 13.113 10.6252 13.458 10.6252H21.3745C21.7194 10.6252 21.9994 10.9052 21.9994 11.2502C21.9994 11.5952 21.7194 11.8752 21.3745 11.8752Z" fill="#485D6B"/>
<path d="M18.2495 15.0003C18.1674 15.0005 18.0861 14.9844 18.0103 14.953C17.9344 14.9215 17.8656 14.8753 17.8077 14.8171C17.5636 14.5728 17.5636 14.177 17.8077 13.9329L20.4911 11.2497L17.8077 8.56636C17.5636 8.32223 17.5636 7.92642 17.8077 7.68229C18.052 7.438 18.4478 7.438 18.692 7.68229L21.8169 10.8072C22.061 11.0513 22.061 11.4471 21.8169 11.6913L18.692 14.8162C18.6341 14.8747 18.5652 14.9211 18.4892 14.9527C18.4133 14.9843 18.3318 15.0005 18.2495 15.0003ZM8.66651 22.5001C8.48816 22.5001 8.31894 22.4751 8.14985 22.4226L3.13493 20.7518C2.45252 20.5135 2 19.8776 2 19.1669V4.1674C2 3.24825 2.74752 2.50073 3.66667 2.50073C3.84486 2.50073 4.01412 2.52573 4.18333 2.57823L9.1981 4.24904C9.88061 4.48735 10.333 5.12319 10.333 5.83391V20.8334C10.333 21.7526 9.58566 22.5001 8.66651 22.5001ZM3.66667 3.75069C3.43749 3.75069 3.24996 3.93819 3.24996 4.1674V19.1669C3.24996 19.3444 3.3691 19.5093 3.53909 19.5685L8.53054 21.2318C8.5664 21.2434 8.61311 21.2501 8.66651 21.2501C8.89568 21.2501 9.08306 21.0626 9.08306 20.8334V5.83391C9.08306 5.65645 8.96392 5.4915 8.79393 5.43232L3.80248 3.76901C3.76662 3.75741 3.71991 3.75069 3.66667 3.75069Z" fill="#485D6B"/>
<path d="M14.7077 9.167C14.3627 9.167 14.0827 8.88701 14.0827 8.54202V4.79214C14.0827 4.21793 13.6154 3.75045 13.0412 3.75045H3.66648C3.3215 3.75045 3.0415 3.47046 3.0415 3.12547C3.0415 2.78048 3.3215 2.50049 3.66648 2.50049H13.0412C14.3053 2.50049 15.3327 3.528 15.3327 4.79214V8.54202C15.3327 8.88701 15.0527 9.167 14.7077 9.167ZM13.0412 19.9999H9.70786C9.36287 19.9999 9.08288 19.72 9.08288 19.375C9.08288 19.03 9.36287 18.75 9.70786 18.75H13.0412C13.6154 18.75 14.0827 18.2825 14.0827 17.7083V13.9584C14.0827 13.6134 14.3627 13.3334 14.7077 13.3334C15.0527 13.3334 15.3327 13.6134 15.3327 13.9584V17.7083C15.3327 18.9724 14.3054 19.9999 13.0412 19.9999Z" fill="#485D6B"/>
</g>
<defs>
<clipPath id="clip0_1368_2970">
<rect width="20" height="20" fill="white" transform="translate(2 2.5)"/>
</clipPath>
</defs>
</svg>
