<svg width="24" height="25" viewBox="0 0 24 25" fill="none" xmlns="http://www.w3.org/2000/svg">
<path d="M19.5425 10H19.4625C19.3452 9.99896 19.231 9.96264 19.1347 9.89575C19.0384 9.82886 18.9644 9.73451 18.9225 9.625C18.8784 9.51925 18.8667 9.40276 18.8889 9.29035C18.9112 9.17794 18.9664 9.0747 19.0475 8.99375L19.1044 8.93687C19.4472 8.59272 19.6397 8.12672 19.6397 7.64094C19.6397 7.15515 19.4472 6.68916 19.1044 6.345L18.16 5.40125C17.8161 5.05814 17.3502 4.86545 16.8644 4.86545C16.3786 4.86545 15.9126 5.05814 15.5687 5.40125L15.5119 5.45812C15.4281 5.53882 15.3226 5.5933 15.2082 5.61488C15.0939 5.63646 14.9758 5.6242 14.8684 5.5796C14.7609 5.535 14.6688 5.46001 14.6034 5.36382C14.538 5.26764 14.502 5.15444 14.5 5.03812V4.9575C14.4995 4.47164 14.3063 4.00583 13.9627 3.66228C13.6192 3.31872 13.1534 3.1255 12.6675 3.125H11.3325C10.8466 3.1255 10.3808 3.31872 10.0373 3.66228C9.69372 4.00583 9.5005 4.47164 9.5 4.9575V5.03812C9.49695 5.15361 9.4605 5.26573 9.39504 5.36092C9.32959 5.4561 9.23794 5.53028 9.1312 5.57445C9.02446 5.61863 8.90721 5.63092 8.79363 5.60983C8.68005 5.58874 8.57502 5.53518 8.49125 5.45563L8.4375 5.39875C8.09361 5.05564 7.62766 4.86295 7.14188 4.86295C6.65609 4.86295 6.19014 5.05564 5.84625 5.39875L4.89875 6.3425C4.55591 6.68666 4.36341 7.15265 4.36341 7.63844C4.36341 8.12422 4.55591 8.59022 4.89875 8.93437L4.95563 8.99125C5.03753 9.07505 5.09236 9.18154 5.11298 9.2969C5.13359 9.41225 5.11906 9.53114 5.07125 9.63812C5.02836 9.74469 4.95467 9.83604 4.85959 9.9005C4.76451 9.96496 4.65237 9.9996 4.5375 10H4.4575C3.97164 10.0005 3.50583 10.1937 3.16228 10.5373C2.81872 10.8808 2.6255 11.3466 2.625 11.8325V13.1675C2.6255 13.6534 2.81872 14.1192 3.16228 14.4627C3.50583 14.8063 3.97164 14.9995 4.4575 15H4.5375C4.65476 15.001 4.76899 15.0374 4.86531 15.1043C4.96163 15.1711 5.03557 15.2655 5.0775 15.375C5.12164 15.4807 5.13333 15.5972 5.11107 15.7096C5.08881 15.8221 5.03361 15.9253 4.9525 16.0063L4.89562 16.0631C4.55278 16.4073 4.36028 16.8733 4.36028 17.3591C4.36028 17.8448 4.55278 18.3108 4.89562 18.655L5.83938 19.5981C6.18321 19.9416 6.64932 20.1345 7.13531 20.1345C7.6213 20.1345 8.08741 19.9416 8.43125 19.5981L8.48812 19.5413C8.57197 19.4594 8.67846 19.4046 8.79379 19.384C8.90913 19.3634 9.028 19.3779 9.135 19.4256C9.24156 19.4683 9.33294 19.5419 9.39741 19.6369C9.46189 19.7319 9.49652 19.8439 9.49687 19.9587V20.0394C9.49671 20.2805 9.54408 20.5193 9.63627 20.742C9.72846 20.9648 9.86366 21.1672 10.0342 21.3377C10.2046 21.5082 10.4071 21.6434 10.6298 21.7356C10.8526 21.8278 11.0914 21.8752 11.3325 21.875H12.6675C13.1534 21.8745 13.6192 21.6813 13.9627 21.3377C14.3063 20.9942 14.4995 20.5284 14.5 20.0425V19.9619C14.503 19.8464 14.5395 19.7343 14.605 19.6391C14.6704 19.5439 14.7621 19.4697 14.8688 19.4255C14.9755 19.3814 15.0928 19.3691 15.2064 19.3902C15.32 19.4113 15.425 19.4648 15.5087 19.5444L15.5656 19.6012C15.9095 19.9444 16.3755 20.1371 16.8612 20.1371C17.347 20.1371 17.813 19.9444 18.1569 19.6012L19.1012 18.6581C19.4441 18.314 19.6366 17.848 19.6366 17.3622C19.6366 16.8764 19.4441 16.4104 19.1012 16.0662L19.0444 16.0094C18.9625 15.9256 18.9076 15.8191 18.887 15.7037C18.8664 15.5884 18.8809 15.4695 18.9288 15.3625C18.9715 15.2558 19.0452 15.1643 19.1403 15.0998C19.2354 15.0352 19.3476 15.0004 19.4625 15H19.5425C20.0284 14.9995 20.4942 14.8063 20.8377 14.4627C21.1813 14.1192 21.3745 13.6534 21.375 13.1675V11.8325C21.3745 11.3466 21.1813 10.8808 20.8377 10.5373C20.4942 10.1937 20.0284 10.0005 19.5425 10ZM20.125 13.1675C20.1248 13.3219 20.0634 13.47 19.9542 13.5792C19.845 13.6884 19.6969 13.7498 19.5425 13.75H19.4625C19.0998 13.7531 18.746 13.8629 18.4453 14.0656C18.1446 14.2684 17.9102 14.5552 17.7714 14.8903C17.6326 15.2254 17.5955 15.594 17.6647 15.95C17.7339 16.306 17.9064 16.6338 18.1606 16.8925L18.2169 16.9494C18.326 17.0588 18.3873 17.207 18.3873 17.3616C18.3873 17.5161 18.326 17.6643 18.2169 17.7738L17.2725 18.7169C17.1633 18.8261 17.0151 18.8875 16.8606 18.8875C16.7061 18.8875 16.558 18.8261 16.4487 18.7169L16.3925 18.66C16.1337 18.406 15.8059 18.2338 15.45 18.1648C15.0941 18.0957 14.7257 18.1329 14.3907 18.2717C14.0557 18.4104 13.769 18.6447 13.5662 18.9452C13.3633 19.2458 13.2534 19.5993 13.25 19.9619V20.0425C13.2498 20.1969 13.1884 20.345 13.0792 20.4542C12.97 20.5634 12.8219 20.6248 12.6675 20.625H11.3325C11.1781 20.6248 11.03 20.5634 10.9208 20.4542C10.8116 20.345 10.7502 20.1969 10.75 20.0425V19.9619C10.7482 19.5986 10.6392 19.2439 10.4366 18.9423C10.2341 18.6407 9.94693 18.4057 9.61127 18.2667C9.2756 18.1277 8.90637 18.091 8.54989 18.1611C8.19342 18.2311 7.86557 18.4049 7.6075 18.6606L7.55062 18.7175C7.44122 18.8264 7.29313 18.8876 7.13875 18.8876C6.98437 18.8876 6.83628 18.8264 6.72688 18.7175L5.78312 17.7744C5.67401 17.6649 5.61273 17.5167 5.61273 17.3622C5.61273 17.2077 5.67401 17.0594 5.78312 16.95L5.84 16.8931C6.0945 16.6344 6.26718 16.3065 6.33649 15.9503C6.40581 15.5941 6.36869 15.2254 6.22977 14.8902C6.09084 14.5549 5.85627 14.268 5.55532 14.0653C5.25437 13.8625 4.90037 13.7528 4.5375 13.75H4.4575C4.30306 13.7498 4.155 13.6884 4.04579 13.5792C3.93659 13.47 3.87517 13.3219 3.875 13.1675V11.8325C3.87517 11.6781 3.93659 11.53 4.04579 11.4208C4.155 11.3116 4.30306 11.2502 4.4575 11.25H4.5375C4.90019 11.2469 5.25395 11.1371 5.55468 10.9344C5.8554 10.7316 6.08979 10.4448 6.22861 10.1097C6.36743 9.77458 6.40454 9.40604 6.33533 9.05C6.26611 8.69396 6.09363 8.36617 5.83938 8.1075L5.78312 8.05062C5.67405 7.9413 5.61279 7.79318 5.61279 7.63875C5.61279 7.48432 5.67405 7.33619 5.78312 7.22688L6.72688 6.2825C6.83611 6.17327 6.98427 6.1119 7.13875 6.1119C7.29323 6.1119 7.44139 6.17327 7.55062 6.2825L7.60687 6.33938C7.86559 6.5935 8.19336 6.7659 8.54935 6.83509C8.90534 6.90428 9.27382 6.86721 9.60889 6.72849C9.94396 6.58977 10.2308 6.35554 10.4337 6.05496C10.6366 5.75439 10.7466 5.40076 10.75 5.03812V4.9575C10.7502 4.80306 10.8116 4.655 10.9208 4.54579C11.03 4.43659 11.1781 4.37517 11.3325 4.375H12.6675C12.8219 4.37517 12.97 4.43659 13.0792 4.54579C13.1884 4.655 13.2498 4.80306 13.25 4.9575V5.03812C13.2532 5.40076 13.3631 5.75444 13.5659 6.05507C13.7687 6.3557 14.0555 6.58999 14.3906 6.72873C14.7257 6.86748 15.0942 6.90454 15.4501 6.8353C15.8061 6.76607 16.1339 6.59359 16.3925 6.33938L16.4494 6.2825C16.5586 6.17327 16.7068 6.1119 16.8612 6.1119C17.0157 6.1119 17.1639 6.17327 17.2731 6.2825L18.2169 7.22688C18.326 7.33619 18.3872 7.48432 18.3872 7.63875C18.3872 7.79318 18.326 7.9413 18.2169 8.05062L18.16 8.1075C17.9057 8.36621 17.7332 8.69406 17.664 9.05016C17.5948 9.40625 17.632 9.77484 17.7709 10.11C17.9098 10.4451 18.1443 10.7319 18.4451 10.9346C18.7459 11.1373 19.0998 11.247 19.4625 11.25H19.5425C19.6969 11.2502 19.845 11.3116 19.9542 11.4208C20.0634 11.53 20.1248 11.6781 20.125 11.8325V13.1675Z" fill="#485D6B"/>
<path d="M12 8.125C11.1347 8.125 10.2888 8.38159 9.56938 8.86232C8.84992 9.34305 8.28916 10.0263 7.95803 10.8258C7.6269 11.6252 7.54026 12.5049 7.70907 13.3535C7.87788 14.2022 8.29456 14.9817 8.90641 15.5936C9.51826 16.2054 10.2978 16.6221 11.1465 16.7909C11.9951 16.9597 12.8748 16.8731 13.6742 16.542C14.4737 16.2108 15.157 15.6501 15.6377 14.9306C16.1184 14.2112 16.375 13.3653 16.375 12.5C16.3737 11.3401 15.9123 10.2281 15.0921 9.40787C14.2719 8.58768 13.1599 8.12632 12 8.125ZM12 15.625C11.3819 15.625 10.7777 15.4417 10.2638 15.0983C9.74994 14.755 9.3494 14.2669 9.11288 13.6959C8.87635 13.1249 8.81447 12.4965 8.93505 11.8903C9.05563 11.2842 9.35325 10.7273 9.79029 10.2903C10.2273 9.85325 10.7842 9.55562 11.3903 9.43505C11.9965 9.31447 12.6249 9.37635 13.1959 9.61288C13.7669 9.8494 14.255 10.2499 14.5983 10.7638C14.9417 11.2777 15.125 11.8819 15.125 12.5C15.124 13.3285 14.7945 14.1228 14.2086 14.7086C13.6228 15.2945 12.8285 15.624 12 15.625Z" fill="#485D6B"/>
</svg>
