<svg width="24" height="25" viewBox="0 0 24 25" fill="none" xmlns="http://www.w3.org/2000/svg">
<path d="M15.9439 18.2594V16.25H16.3314C17.3652 16.25 18.2064 15.4087 18.2064 14.375V5C18.2064 3.96625 17.3652 3.125 16.3314 3.125H7.66895C6.6352 3.125 5.79395 3.96625 5.79395 5V14.375C5.79395 15.4087 6.6352 16.25 7.66895 16.25H8.08707C7.88332 17.4625 8.9802 19.1131 9.47457 19.7819L9.22457 21.1362C9.20788 21.2264 9.21124 21.3191 9.2344 21.4079C9.25756 21.4966 9.29996 21.5791 9.35859 21.6496C9.41723 21.7201 9.49065 21.7769 9.57367 21.8158C9.65668 21.8548 9.74725 21.875 9.83894 21.875H14.8908C14.98 21.8749 15.0681 21.8558 15.1492 21.8188C15.2304 21.7819 15.3027 21.728 15.3613 21.6608C15.4199 21.5936 15.4635 21.5147 15.489 21.4293C15.5146 21.3439 15.5216 21.254 15.5096 21.1656L15.2946 19.5894L15.4614 19.4225C15.6148 19.2702 15.7364 19.0889 15.8193 18.8893C15.9021 18.6896 15.9445 18.4755 15.9439 18.2594ZM14.6939 18.2594C14.6935 18.3639 14.652 18.464 14.5783 18.5381L14.1914 18.9244C14.1233 18.9925 14.0719 19.0754 14.0412 19.1667C14.0105 19.258 14.0014 19.3552 14.0146 19.4506L14.1746 20.625H10.5902L10.7533 19.7375C10.7696 19.65 10.767 19.56 10.7458 19.4736C10.7246 19.3872 10.6852 19.3063 10.6302 19.2362C10.0033 18.44 9.1552 16.9931 9.3252 16.4194C9.4427 16.0225 9.57707 15.9137 9.58145 15.8881C9.58332 15.8844 9.58645 15.8819 9.5877 15.8781C9.68043 15.9034 9.77773 15.9069 9.87206 15.8885C9.96639 15.8701 10.0552 15.8302 10.1317 15.7719C10.2081 15.7137 10.2701 15.6386 10.3129 15.5526C10.3557 15.4665 10.378 15.3717 10.3783 15.2756V11.8638C10.3824 11.7626 10.4254 11.667 10.4984 11.5968C10.5714 11.5267 10.6687 11.4875 10.7699 11.4875C10.8711 11.4875 10.9684 11.5267 11.0414 11.5968C11.1144 11.667 11.1574 11.7626 11.1614 11.8638V12.77C11.1614 13.4019 11.5096 13.9762 12.0702 14.2688L14.1702 15.3631C14.4933 15.5319 14.6939 15.8625 14.6939 16.2256V18.2594ZM14.7477 14.255L12.6483 13.1606C12.5767 13.1236 12.5167 13.0675 12.4748 12.9986C12.4329 12.9297 12.4108 12.8506 12.4108 12.77V11.8638C12.4102 11.4287 12.237 11.0116 11.9294 10.7039C11.6217 10.3963 11.2047 10.2232 10.7696 10.2225C10.3345 10.2232 9.91741 10.3963 9.60976 10.7039C9.30211 11.0116 9.12898 11.4287 9.12832 11.8638V14.7475C8.9877 14.8106 8.85812 14.8958 8.74457 15H7.66895C7.32457 15 7.04395 14.72 7.04395 14.375V5C7.04395 4.65562 7.32457 4.375 7.66895 4.375H16.3314C16.6758 4.375 16.9564 4.65562 16.9564 5V14.375C16.9564 14.72 16.6758 15 16.3314 15H15.5714C15.3645 14.6858 15.081 14.4295 14.7477 14.255Z" fill="#485D6B"/>
<path d="M14.4278 5.625H9.57275C9.40699 5.625 9.24802 5.69085 9.13081 5.80806C9.0136 5.92527 8.94775 6.08424 8.94775 6.25C8.94775 6.41576 9.0136 6.57473 9.13081 6.69194C9.24802 6.80915 9.40699 6.875 9.57275 6.875H14.4278C14.5935 6.875 14.7525 6.80915 14.8697 6.69194C14.9869 6.57473 15.0528 6.41576 15.0528 6.25C15.0528 6.08424 14.9869 5.92527 14.8697 5.80806C14.7525 5.69085 14.5935 5.625 14.4278 5.625ZM14.4278 7.92375H9.57275C9.40699 7.92375 9.24802 7.9896 9.13081 8.10681C9.0136 8.22402 8.94775 8.38299 8.94775 8.54875C8.94775 8.71451 9.0136 8.87348 9.13081 8.99069C9.24802 9.1079 9.40699 9.17375 9.57275 9.17375H14.4278C14.5935 9.17375 14.7525 9.1079 14.8697 8.99069C14.9869 8.87348 15.0528 8.71451 15.0528 8.54875C15.0528 8.38299 14.9869 8.22402 14.8697 8.10681C14.7525 7.9896 14.5935 7.92375 14.4278 7.92375Z" fill="#485D6B"/>
</svg>
