<svg width="24" height="24" viewBox="0 0 24 24" fill="none" xmlns="http://www.w3.org/2000/svg">
<g clip-path="url(#clip0_2362_5261)">
<path d="M6.66802 14.9652C8.44341 17.0874 10.5806 18.7584 13.0199 19.9407C13.9486 20.3809 15.1906 20.903 16.5744 20.9925C16.6601 20.9963 16.7422 21 16.828 21C17.7567 21 18.5027 20.6792 19.1106 20.0191C19.1144 20.0153 19.1218 20.0079 19.1255 20.0004C19.3419 19.7393 19.588 19.5044 19.8454 19.2545C20.0207 19.0866 20.1997 18.9113 20.3713 18.7323C21.1657 17.9043 21.1657 16.8525 20.3638 16.0506L18.1222 13.809C17.7418 13.4136 17.2868 13.2047 16.8093 13.2047C16.3319 13.2047 15.8732 13.4136 15.4815 13.8052L14.1463 15.1405C14.0232 15.0696 13.8964 15.0062 13.777 14.9465C13.6278 14.8719 13.4898 14.8011 13.3667 14.7228C12.1508 13.9507 11.0468 12.9436 9.99127 11.6494C9.45791 10.9743 9.09985 10.4074 8.84996 9.82926C9.20056 9.51223 9.52878 9.18027 9.84581 8.85578C9.95771 8.74016 10.0733 8.62453 10.189 8.50891C10.5918 8.10609 10.8081 7.63987 10.8081 7.16618C10.8081 6.6925 10.5955 6.22627 10.189 5.82346L9.07747 4.71198C8.94693 4.58143 8.82385 4.45462 8.69703 4.32408C8.45087 4.07045 8.19351 3.80937 7.93988 3.57439C7.55572 3.19768 7.10441 3 6.627 3C6.15331 3 5.69828 3.19768 5.29919 3.57812L3.90424 4.97306C3.39699 5.48031 3.1098 6.09573 3.05012 6.80812C2.97925 7.69954 3.14337 8.64691 3.56856 9.79196C4.22128 11.5636 5.20594 13.2085 6.66802 14.9652ZM3.96019 6.88645C4.00495 6.39039 4.19517 5.97638 4.55323 5.61832L5.94071 4.23083C6.15704 4.02196 6.39575 3.9138 6.627 3.9138C6.85451 3.9138 7.08576 4.02196 7.29836 4.23829C7.54826 4.46954 7.78323 4.71198 8.03686 4.96933C8.16367 5.09988 8.29422 5.23042 8.42476 5.36469L9.53624 6.47617C9.76749 6.70742 9.88684 6.9424 9.88684 7.17364C9.88684 7.40489 9.76749 7.63987 9.53624 7.87111C9.42061 7.98674 9.30499 8.10609 9.18937 8.22172C8.8425 8.57232 8.518 8.90427 8.15994 9.2213L8.14129 9.23995C7.83172 9.54952 7.88021 9.84418 7.9548 10.068C7.95853 10.0792 7.96226 10.0866 7.96599 10.0978C8.25319 10.7878 8.65228 11.4443 9.27515 12.2275C10.3941 13.6075 11.5727 14.678 12.8707 15.5023C13.0311 15.6067 13.2026 15.6888 13.363 15.7708C13.5122 15.8454 13.6502 15.9163 13.7733 15.9946C13.7882 16.0021 13.7994 16.0095 13.8143 16.017C13.9374 16.0804 14.0568 16.1102 14.1761 16.1102C14.4745 16.1102 14.6684 15.92 14.7318 15.8566L16.1268 14.4617C16.3431 14.2453 16.5781 14.1297 16.8093 14.1297C17.0928 14.1297 17.3241 14.305 17.4695 14.4617L19.7186 16.707C20.1662 17.1546 20.1624 17.6395 19.7074 18.1131C19.5507 18.281 19.3866 18.4414 19.2113 18.6092C18.9502 18.8628 18.678 19.1239 18.4318 19.4186C18.0029 19.8811 17.4919 20.0974 16.8317 20.0974C16.7683 20.0974 16.7012 20.0937 16.6378 20.0899C15.4144 20.0116 14.2768 19.5342 13.4227 19.1276C11.1028 18.005 9.06628 16.4123 7.37669 14.3908C5.98547 12.7161 5.04929 11.1571 4.43015 9.48612C4.04598 8.46042 3.90051 7.63614 3.96019 6.88645Z" fill="#485D6B"/>
</g>
<defs>
<clipPath id="clip0_2362_5261">
<rect width="18" height="18" fill="white" transform="translate(3 3)"/>
</clipPath>
</defs>
</svg>
