<svg width="25" height="24" viewBox="0 0 25 24" fill="none" xmlns="http://www.w3.org/2000/svg">
<g clip-path="url(#clip0_3361_3711)">
<path d="M12.5 9.89453C14.5613 9.89453 16.2383 8.21755 16.2383 6.15625C16.2383 4.09495 14.5613 2.41797 12.5 2.41797C10.4387 2.41797 8.76172 4.09495 8.76172 6.15625C8.76172 8.21755 10.4387 9.89453 12.5 9.89453ZM12.5 3.70703C13.8505 3.70703 14.9492 4.80574 14.9492 6.15625C14.9492 7.50676 13.8505 8.60547 12.5 8.60547C11.1495 8.60547 10.0508 7.50676 10.0508 6.15625C10.0508 4.80574 11.1495 3.70703 12.5 3.70703ZM20.0625 9.89453C21.3656 9.89453 22.4258 8.83436 22.4258 7.53125C22.4258 6.22814 21.3656 5.16797 20.0625 5.16797C18.7594 5.16797 17.6992 6.22814 17.6992 7.53125C17.6992 8.83436 18.7594 9.89453 20.0625 9.89453ZM20.0625 6.45703C20.6548 6.45703 21.1367 6.93893 21.1367 7.53125C21.1367 8.12357 20.6548 8.60547 20.0625 8.60547C19.4702 8.60547 18.9883 8.12357 18.9883 7.53125C18.9883 6.93893 19.4702 6.45703 20.0625 6.45703ZM20.5824 11.3555H19.5855C18.4108 11.3555 17.3968 12.0495 16.9347 13.0464C15.9833 12.0078 14.6168 11.3555 13.1007 11.3555H11.8994C10.3833 11.3555 9.01674 12.0078 8.06537 13.0464C7.60324 12.0495 6.58918 11.3555 5.41445 11.3555H4.41758C2.80883 11.3555 1.5 12.6564 1.5 14.2554V18.948C1.5 19.6423 2.06693 20.207 2.7638 20.207H6.70519C6.77128 20.9762 7.41804 21.582 8.20407 21.582H16.796C17.582 21.582 18.2287 20.9762 18.2949 20.207H22.1912C22.9129 20.207 23.5 19.6222 23.5 18.9034V14.2554C23.5 12.6564 22.1912 11.3555 20.5824 11.3555ZM2.78906 14.2554C2.78906 13.3672 3.51962 12.6445 4.41758 12.6445H5.41445C6.31241 12.6445 7.04297 13.3672 7.04297 14.2554V14.6968C6.60954 15.8253 6.69922 16.5016 6.69922 18.918H2.78906V14.2554ZM17.0117 20.0772C17.0117 20.1344 16.9889 20.1893 16.9485 20.2297C16.908 20.2702 16.8532 20.2929 16.796 20.293H8.20403C8.14683 20.2929 8.09199 20.2701 8.05155 20.2297C8.0111 20.1893 7.98835 20.1344 7.98828 20.0772V16.5556C7.98828 14.399 9.74278 12.6445 11.8993 12.6445H13.1006C15.2572 12.6445 17.0117 14.399 17.0117 16.5556V20.0772ZM22.2109 18.9034C22.2109 18.9256 22.4512 18.918 18.3008 18.918C18.3008 16.4837 18.3898 15.8234 17.957 14.6968V14.2554C17.957 13.3672 18.6876 12.6445 19.5855 12.6445H20.5824C21.4804 12.6445 22.2109 13.3672 22.2109 14.2554V18.9034ZM4.9375 9.89453C6.24061 9.89453 7.30078 8.83436 7.30078 7.53125C7.30078 6.22814 6.24061 5.16797 4.9375 5.16797C3.63439 5.16797 2.57422 6.22814 2.57422 7.53125C2.57422 8.83436 3.63439 9.89453 4.9375 9.89453ZM4.9375 6.45703C5.52982 6.45703 6.01172 6.93893 6.01172 7.53125C6.01172 8.12357 5.52982 8.60547 4.9375 8.60547C4.34518 8.60547 3.86328 8.12357 3.86328 7.53125C3.86328 6.93893 4.34518 6.45703 4.9375 6.45703Z" fill="white"/>
</g>
<defs>
<clipPath id="clip0_3361_3711">
<rect width="22" height="22" fill="white" transform="translate(1.5 1)"/>
</clipPath>
</defs>
</svg>
