<svg width="24" height="24" viewBox="0 0 24 24" fill="none" xmlns="http://www.w3.org/2000/svg">
<path d="M9.0644 7.06245H20.5308L14.2672 11.9812C14.1414 12.0773 13.991 12.1359 13.8333 12.1501C13.6748 12.1356 13.5234 12.0771 13.3964 11.9812L8.92018 8.46483C8.87281 8.42647 8.81855 8.39751 8.76031 8.37952C8.97751 8.07515 9.0913 7.70912 9.08494 7.33525C9.08305 7.24401 9.0762 7.15295 9.0644 7.06245ZM6.14842 3.8991C6.16285 3.90154 6.18656 3.91059 6.23813 3.93454C6.34007 3.98294 6.50213 4.10761 6.66078 4.28141C6.98027 4.6295 7.29951 5.15676 7.46525 5.50485C7.47038 5.51512 7.47576 5.52636 7.48065 5.53785C7.95096 6.34476 8.15385 6.96199 8.15996 7.34919C8.16656 7.7381 8.06218 7.90554 7.73242 8.09499L6.88176 8.58534C6.3276 8.90434 6.0658 9.4761 6.00078 10.0095C5.93551 10.5431 6.03158 11.0616 6.26893 11.4715L8.36871 15.0905C8.60656 15.5002 9.01258 15.8429 9.50905 16.0534C10.006 16.2643 10.6345 16.324 11.1886 16.0057L12.0393 15.5163C12.3688 15.3274 12.568 15.3235 12.9027 15.5224C13.2383 15.7219 13.6741 16.2037 14.1425 17.0111C14.1491 17.0231 14.1554 17.0331 14.163 17.0446C14.3825 17.3611 14.6815 17.8982 14.8257 18.348C14.8973 18.5714 14.9254 18.7733 14.9164 18.885C14.9064 18.9972 14.9039 18.9857 14.8744 19.0033L14.2271 19.3744C12.601 20.0796 11.1106 19.9205 9.77867 19.2297C8.44425 18.5359 7.28436 17.2832 6.47573 15.8123C6.47305 15.8094 6.47182 15.8057 6.46962 15.8038L4.69838 12.7512C4.69545 12.7482 4.69422 12.7455 4.69178 12.7416C3.81545 11.3092 3.3048 9.6829 3.36885 8.18665C3.43289 6.69261 4.03911 5.33056 5.46716 4.28263L6.11469 3.91279C6.1296 3.90423 6.13449 3.89763 6.14842 3.8991ZM6.15502 2.98952C5.98367 2.98683 5.80889 3.02276 5.65171 3.11394L4.96702 3.50774C4.95162 3.51654 4.93745 3.52559 4.92351 3.53439C3.2762 4.73999 2.51769 6.41834 2.44362 8.14828C2.36956 9.87748 2.94693 11.6622 3.90076 13.2225L5.66613 16.2646L5.66198 16.2555C6.5432 17.8569 7.806 19.2461 9.34918 20.0464C10.8931 20.8479 12.7323 21.0337 14.6057 20.2167C14.6211 20.2101 14.6368 20.2028 14.6507 20.1943L15.3364 19.8005C15.6534 19.6201 15.8128 19.269 15.8387 18.9625C15.8653 18.6569 15.803 18.3595 15.7084 18.0664C15.5231 17.4868 15.2 16.9238 14.933 16.5376C14.4287 15.6701 13.9418 15.068 13.3791 14.7314C13.1073 14.5679 12.7965 14.4804 12.4794 14.478C12.1622 14.4755 11.8501 14.5582 11.5758 14.7175L10.7252 15.2078C10.4739 15.3525 10.18 15.3357 9.87082 15.2049C9.56307 15.0741 9.27805 14.8126 9.1722 14.6292L7.07242 11.0105C6.96633 10.8262 6.87956 10.4502 6.92062 10.1187C6.96022 9.78825 7.09442 9.52939 7.34596 9.38443L8.17242 8.90923C8.19393 9.01996 8.25651 9.12043 8.3472 9.1879L12.8237 12.705C13.1054 12.9279 13.4486 13.0592 13.8071 13.0812C13.8249 13.0821 13.8428 13.0821 13.8606 13.0812C14.2188 13.059 14.5615 12.9277 14.8428 12.705L21.0082 7.86154V15.8632C21.0082 15.9849 20.8694 16.1453 20.597 16.1453H16.3288C16.2679 16.1449 16.2076 16.1565 16.1512 16.1795C16.0949 16.2024 16.0436 16.2364 16.0004 16.2792C15.9572 16.3221 15.9229 16.3731 15.8995 16.4292C15.876 16.4854 15.8639 16.5457 15.8639 16.6065C15.8639 16.8615 16.0721 17.0688 16.3288 17.0673H20.597C21.2947 17.0673 21.9359 16.563 21.9359 15.8632V7.34454C21.9359 6.64421 21.2947 6.14016 20.597 6.14016H8.81042C8.67989 5.81383 8.50756 5.46794 8.29049 5.09199C8.08736 4.6691 7.75785 4.11005 7.34547 3.66052C7.1372 3.4327 6.91256 3.23079 6.63169 3.10025V3.10148C6.48229 3.03149 6.31996 2.99336 6.15502 2.98952Z" fill="white"/>
</svg>
