<svg width="24" height="24" viewBox="0 0 24 24" fill="none" xmlns="http://www.w3.org/2000/svg">
<path d="M20.0898 5.94723L16.5347 2.39217C16.3336 2.18995 16.0943 2.02962 15.8308 1.92047C15.5673 1.81131 15.2848 1.75549 14.9995 1.75623H8.34453C7.76851 1.75678 7.21625 1.98584 6.80894 2.39315C6.40164 2.80045 6.17257 3.35272 6.17203 3.92873V4.65748H5.44328C4.86841 4.65821 4.3173 4.8869 3.91081 5.29339C3.50432 5.69988 3.27563 6.25099 3.2749 6.82586V20.0754C3.27563 20.6502 3.50432 21.2013 3.91081 21.6078C4.3173 22.0143 4.86841 22.243 5.44328 22.2437H15.6609C16.2358 22.243 16.7869 22.0143 17.1934 21.6078C17.5999 21.2013 17.8285 20.6502 17.8293 20.0754V19.3445H18.5539C19.1294 19.3438 19.6811 19.1149 20.0881 18.7081C20.4951 18.3012 20.7241 17.7496 20.725 17.1741V7.48105C20.725 6.91042 20.4933 6.3508 20.0898 5.94723ZM18.6103 6.21811H17.1899C16.6784 6.21811 16.2618 5.80217 16.2618 5.28998V3.86961L18.6103 6.21811ZM16.5918 20.0754C16.5918 20.5889 16.1745 21.0062 15.6609 21.0062H5.44328C5.19651 21.0059 4.95995 20.9077 4.78545 20.7332C4.61096 20.5587 4.51277 20.3221 4.5124 20.0754V6.82586C4.5124 6.3123 4.92971 5.89498 5.44328 5.89498H6.17271V17.1748C6.17344 17.7501 6.40237 18.3017 6.80927 18.7085C7.21616 19.1152 7.7678 19.344 8.34315 19.3445H16.5918V20.0754ZM19.4875 17.1741C19.4875 17.689 19.0695 18.107 18.5546 18.107H8.34315C8.09596 18.1069 7.85894 18.0086 7.68415 17.8338C7.50936 17.659 7.41108 17.422 7.4109 17.1748V3.92873C7.4109 3.41311 7.82959 2.99373 8.34521 2.99373H15.0002C15.0085 2.99373 15.016 2.99855 15.0243 2.99855V5.28998C15.0248 5.86417 15.2532 6.41469 15.6592 6.82071C16.0652 7.22672 16.6157 7.45506 17.1899 7.45561H19.482C19.482 7.46455 19.4868 7.47211 19.4868 7.48105V17.1741H19.4875Z" fill="white"/>
<path d="M10.0942 10.4703H12.7658C12.9299 10.4703 13.0873 10.4051 13.2033 10.2891C13.3194 10.173 13.3845 10.0156 13.3845 9.85154C13.3845 9.68744 13.3194 9.53005 13.2033 9.41402C13.0873 9.29798 12.9299 9.23279 12.7658 9.23279H10.0942C9.93007 9.23279 9.77269 9.29798 9.65665 9.41402C9.54061 9.53005 9.47542 9.68744 9.47542 9.85154C9.47542 10.0156 9.54061 10.173 9.65665 10.2891C9.77269 10.4051 9.93007 10.4703 10.0942 10.4703ZM16.8035 12.1636H10.0935C9.92938 12.1636 9.772 12.2288 9.65596 12.3448C9.53992 12.4609 9.47473 12.6182 9.47473 12.7824C9.47473 12.9465 9.53992 13.1038 9.65596 13.2199C9.772 13.3359 9.92938 13.4011 10.0935 13.4011H16.8035C16.9676 13.4011 17.125 13.3359 17.241 13.2199C17.357 13.1038 17.4222 12.9465 17.4222 12.7824C17.4222 12.6182 17.357 12.4609 17.241 12.3448C17.125 12.2288 16.9676 12.1636 16.8035 12.1636ZM15.3941 15.0944H10.0942C9.93007 15.0944 9.77269 15.1596 9.65665 15.2756C9.54061 15.3917 9.47542 15.5491 9.47542 15.7132C9.47542 15.8773 9.54061 16.0346 9.65665 16.1507C9.77269 16.2667 9.93007 16.3319 10.0942 16.3319H15.3941C15.5582 16.3319 15.7156 16.2667 15.8316 16.1507C15.9477 16.0346 16.0129 15.8773 16.0129 15.7132C16.0129 15.5491 15.9477 15.3917 15.8316 15.2756C15.7156 15.1596 15.5582 15.0944 15.3941 15.0944Z" fill="#485D6B"/>
</svg>
