<svg width="25" height="24" viewBox="0 0 25 24" fill="none" xmlns="http://www.w3.org/2000/svg">
<g clip-path="url(#clip0_1510_2754)">
<path d="M15.2996 22.9996H5.40507C5.16189 22.9996 4.93144 22.8955 4.76627 22.7254C4.60109 22.5557 4.5 22.3266 4.5 22.0676V2.93202C4.5 2.67299 4.60109 2.44429 4.76627 2.2742C4.93144 2.1041 5.15353 2 5.40507 2H19.5802C19.8317 2 20.0538 2.1041 20.219 2.2742C20.3842 2.44429 20.4853 2.67299 20.4853 2.93202V17.5722C20.492 17.6091 20.5 17.6394 20.5 17.6763C20.5 17.8026 20.4427 17.9136 20.3627 17.9944L15.6869 22.8652C15.6077 22.9451 15.4242 23.0037 15.2996 22.9996ZM8.32129 6.72405L7.9595 6.82487C7.48308 6.82487 7.16229 6.69946 6.99791 6.44821C6.91274 6.32238 6.85303 6.18139 6.8192 6.02524C6.78498 5.86908 6.76826 5.67972 6.76826 5.45799C6.76826 4.95837 6.859 4.59359 7.0405 4.36448C7.22199 4.13496 7.54836 4.02061 8.0192 4.02061C8.49005 4.02061 8.81761 4.13578 9.00189 4.36653C9.18657 4.59728 9.27851 4.96124 9.27851 5.45799C9.27851 5.82891 9.20328 6.12811 9.05323 6.35599L9.3597 6.54002L9.13841 7.04415L8.32129 6.89045V6.72405ZM7.68289 6.14123H8.03632C8.15254 6.14123 8.23692 6.12729 8.28945 6.09983C8.34199 6.07196 8.36786 6.00843 8.36786 5.90925V4.76983H8.01045C7.89701 4.76983 7.81423 4.78377 7.76169 4.81123C7.70915 4.8391 7.68289 4.90263 7.68289 5.00222V6.14123ZM10.4618 4.63376V6.25066H10.5939C10.6962 6.25066 10.7706 6.23959 10.8172 6.21787C10.8638 6.19656 10.8877 6.14573 10.8877 6.06663V4.63376H11.7386V6.82487H11.3131L11.0664 6.57527C10.896 6.78553 10.6536 6.89045 10.3388 6.89045C10.0861 6.89045 9.90139 6.83471 9.78557 6.72405C9.66935 6.61338 9.61085 6.42772 9.61085 6.16787V4.63376H10.4618ZM12.3452 6.60355C12.1681 6.41255 12.0789 6.12073 12.0789 5.72932C12.0789 5.3379 12.1677 5.04649 12.3452 4.85509C12.5219 4.66409 12.8097 4.56818 13.2069 4.56818C13.6037 4.56818 13.8914 4.66409 14.0682 4.85509C14.2457 5.04649 14.3344 5.3379 14.3344 5.72932C14.3344 6.12073 14.2457 6.41255 14.0682 6.60355C13.8914 6.79454 13.6037 6.89045 13.2069 6.89045C12.8097 6.89045 12.5219 6.79454 12.3452 6.60355ZM12.9939 5.392V6.25066H13.1257C13.228 6.25066 13.3028 6.23959 13.3494 6.21787C13.3959 6.19656 13.4194 6.14573 13.4194 6.06663V5.20797H13.2877C13.1858 5.20797 13.1105 5.21904 13.064 5.24076C13.0174 5.26249 12.9939 5.31372 12.9939 5.392ZM14.547 5.19937V4.63376H14.7599V4.28333L15.6108 4.06447V4.63376H15.9046V5.19937H15.6108V6.1982C15.6849 6.21295 15.7685 6.2232 15.862 6.22894L15.8238 6.87324C15.4349 6.87324 15.1826 6.85028 15.0664 6.80725C14.9223 6.75438 14.8307 6.68429 14.7937 6.59699C14.7718 6.54453 14.7599 6.48305 14.7599 6.41296V5.19937H14.547ZM17.0532 6.03056V6.23344C17.413 6.27033 17.7637 6.2273 18.1088 6.115L18.211 6.75929C17.893 6.847 17.5782 6.89045 17.2662 6.89045C16.869 6.89045 16.5816 6.79454 16.4045 6.60355C16.2274 6.41255 16.1386 6.12073 16.1386 5.72932C16.1386 5.3379 16.2274 5.04649 16.4045 4.85509C16.5816 4.66409 16.8686 4.56818 17.2642 4.56818C17.6598 4.56818 17.9328 4.62392 18.0833 4.73459C18.2337 4.84566 18.3086 5.05305 18.3086 5.35675C18.3086 5.61415 18.2186 5.7494 18.0387 5.8617C17.8584 5.97441 17.53 6.03056 17.0532 6.03056ZM17.0532 5.392V5.57152H17.228C17.3302 5.57152 17.4047 5.56045 17.4512 5.53873C17.4978 5.51742 17.5217 5.4666 17.5217 5.38749V5.10879H17.347C17.2455 5.10879 17.1702 5.11985 17.1237 5.14158C17.0771 5.1633 17.0532 5.31372 17.0532 5.392ZM8.99433 17.9157C9.32109 17.9157 9.61721 18.0522 9.83134 18.2731C9.94153 18.3861 10.0289 18.5204 10.0885 18.6683C10.1481 18.8163 10.1786 18.9749 10.1784 19.135C10.1784 19.4715 10.0459 19.7764 9.83134 19.9974L9.81861 20.0093C9.60527 20.2228 9.31433 20.3544 8.99433 20.3544C8.66756 20.3544 8.37144 20.2179 8.15692 19.9974C7.94279 19.7764 7.81025 19.4715 7.81025 19.135C7.81025 18.7985 7.94279 18.4936 8.15692 18.2731C8.37144 18.0522 8.66756 17.9157 8.99433 17.9157ZM8.99433 16.9066C9.59095 16.9066 10.1318 17.1562 10.5239 17.5591L10.5251 17.5607C10.9163 17.964 11.1583 18.521 11.1583 19.135C11.1583 19.7502 10.9159 20.3076 10.5247 20.7109L10.5119 20.7228C10.1211 21.1187 9.58497 21.3638 8.99433 21.3638C8.39692 21.3638 7.85562 21.1142 7.46398 20.7109C7.07234 20.3076 6.83035 19.7502 6.83035 19.135C6.83035 18.5206 7.07274 17.9632 7.46478 17.5599C7.85562 17.1562 8.39692 16.9066 8.99433 16.9066ZM10.2206 17.8722C9.90696 17.5497 9.47353 17.3501 8.99433 17.3501C8.51552 17.3501 8.08209 17.5497 7.76846 17.8727C7.60722 18.0382 7.47937 18.235 7.39228 18.4516C7.30519 18.6683 7.26057 18.9005 7.261 19.135C7.261 19.6281 7.45483 20.0744 7.76846 20.3974C8.08209 20.7204 8.51552 20.92 8.99433 20.92C9.44929 20.9209 9.88622 20.7369 10.2102 20.408L10.2202 20.3974C10.5338 20.0744 10.7277 19.6281 10.7277 19.135C10.7277 18.6415 10.5338 18.1952 10.2206 17.8722ZM8.40368 9.83489C8.24328 9.83489 8.11313 9.70086 8.11313 9.53569C8.11313 9.3701 8.24328 9.23608 8.40368 9.23608H14.2313C14.3921 9.23608 14.5223 9.3701 14.5223 9.53569C14.5223 9.70086 14.3921 9.83489 14.2313 9.83489H8.40368ZM8.40368 14.4294C8.24328 14.4294 8.11313 14.2954 8.11313 14.1302C8.11313 13.965 8.24328 13.8306 8.40368 13.8306H16.4399C16.6003 13.8306 16.7304 13.965 16.7304 14.1302C16.7304 14.2954 16.6003 14.4294 16.4399 14.4294H8.40368ZM8.40368 12.6006C8.24328 12.6006 8.11313 12.467 8.11313 12.3014C8.11313 12.1362 8.24328 12.0022 8.40368 12.0022H14.2313C14.3921 12.0022 14.5223 12.1362 14.5223 12.3014C14.5223 12.467 14.3921 12.6006 14.2313 12.6006H8.40368ZM17.6638 11.1608H7.33622V15.2512H17.6638V11.1608ZM7.33622 10.562H17.6638V8.42333H7.33622V10.562ZM7.04527 7.82452H17.9543C18.1147 7.82452 18.2449 7.95855 18.2449 8.12413V15.5504C18.2449 15.7156 18.1147 15.8496 17.9543 15.8496H7.04527C6.88488 15.8496 6.75473 15.7156 6.75473 15.5504V8.12413C6.75473 7.95855 6.88488 7.82452 7.04527 7.82452ZM14.9549 22.1635V18.5178C14.9549 18.1694 15.0922 17.8513 15.3143 17.6226C15.4285 17.5051 15.564 17.412 15.7132 17.3485C15.8623 17.285 16.0222 17.2524 16.1836 17.2525H19.6586V2.93038C19.6586 2.90866 19.6518 2.87833 19.6292 2.86317C19.6144 2.848 19.5933 2.83284 19.5639 2.83284H5.39711C5.37562 2.83284 5.34617 2.8398 5.33184 2.86317C5.31672 2.87833 5.30239 2.90702 5.30239 2.93038V22.0676C5.30239 22.0979 5.30876 22.1196 5.33184 22.1348C5.34617 22.15 5.36766 22.1651 5.39711 22.1651H14.9549V22.1635ZM15.7669 18.5178V21.5712L19.1062 18.0886H16.1836C16.069 18.0886 15.9679 18.1407 15.8895 18.2149C15.8158 18.2887 15.7669 18.3997 15.7669 18.5178Z" fill="white"/>
</g>
<defs>
<clipPath id="clip0_1510_2754">
<rect width="16" height="21" fill="white" transform="translate(4.5 2)"/>
</clipPath>
</defs>
</svg>
