<svg width="24" height="24" viewBox="0 0 24 24" fill="none" xmlns="http://www.w3.org/2000/svg">
<path d="M16.7266 18.0156C16.4894 18.0156 16.2969 18.2081 16.2969 18.4453C16.2969 18.6825 16.4894 18.875 16.7266 18.875C16.9638 18.875 17.1562 18.6825 17.1562 18.4453C17.1562 18.2081 16.9638 18.0156 16.7266 18.0156Z" fill="white"/>
<path d="M17.7845 16.6261L15.7422 15.9455L15.0091 14.4791C15.6696 13.8068 16.1282 12.9173 16.2828 11.9895L16.3743 11.4414H17.1562C17.867 11.4414 18.4453 10.8631 18.4453 10.1523V7.44531C18.4453 3.89137 15.5539 1 12 1C8.43695 1 5.55469 3.88307 5.55469 7.44531V10.1523C5.55469 10.7125 5.91395 11.1901 6.41406 11.3675V11.8711C6.41406 12.5819 6.99234 13.1602 7.70312 13.1602H8.08048C8.26621 13.5647 8.50893 13.9405 8.80123 14.2762C8.86221 14.3461 8.92535 14.414 8.99055 14.4799L8.25777 15.9455L6.21542 16.6262C3.84075 17.418 2.11719 19.9179 2.11719 22.5703C2.11719 22.8076 2.30956 23 2.54688 23H21.4531C21.6904 23 21.8828 22.8076 21.8828 22.5703C21.8828 19.9179 20.1593 17.418 17.7845 16.6261ZM17.5859 10.1523C17.5859 10.3893 17.3932 10.582 17.1562 10.582H16.5005C16.6097 9.73598 16.6825 8.83565 16.7117 7.94891C16.7126 7.9239 16.7133 7.89958 16.7141 7.875H17.5859V10.1523ZM6.84375 10.582C6.60682 10.582 6.41406 10.3893 6.41406 10.1523V7.875H7.28624C7.28766 7.91982 7.28916 7.96485 7.29084 8.01018L7.29101 8.01478V8.01516C7.32109 8.87763 7.39293 9.75458 7.49967 10.582H6.84375V10.582ZM7.70312 12.3008C7.4662 12.3008 7.27344 12.108 7.27344 11.8711V11.4414H7.6257L7.71713 11.9896C7.73472 12.0941 7.75596 12.1978 7.78081 12.3008H7.70312ZM7.27417 7.01562H6.43039C6.64803 4.13582 9.05136 1.85938 12 1.85938C14.9355 1.85938 17.3494 4.13552 17.5696 7.01562H16.7259C16.6949 4.64259 14.7625 2.71875 12.3846 2.71875H11.6155C9.23762 2.71875 7.30506 4.64259 7.27417 7.01562ZM11.6154 3.57812H12.3846C14.31 3.57812 15.8683 5.15297 15.8672 7.07621C15.8672 7.21143 15.8661 7.32917 15.8638 7.43629L15.8638 7.4405L15.3263 7.36371C13.8663 7.15523 12.4877 6.46593 11.4445 5.42273C11.3639 5.34216 11.2546 5.29689 11.1406 5.29688C9.98666 5.29688 8.88202 5.82264 8.1518 6.71089C8.33176 4.96125 9.81087 3.57812 11.6154 3.57812ZM8.67164 12.3008C8.45654 11.5852 8.21041 9.47975 8.15602 8.13054L8.73433 7.35942C9.26547 6.65146 10.0918 6.21159 10.9708 6.16111C12.1274 7.26179 13.6237 7.98865 15.2048 8.21441L15.8374 8.30482C15.7951 9.20222 15.7087 10.1028 15.5849 10.931L15.5848 10.9318C15.5454 11.1981 15.5144 11.3695 15.4352 11.8481C15.2076 13.213 14.1892 14.4473 12.8447 14.7834C12.2901 14.9216 11.7101 14.9216 11.1555 14.7834C10.316 14.5736 9.54627 13.9927 9.04951 13.1602H9.92547C10.1028 13.6603 10.5804 14.0195 11.1406 14.0195H12C12.7122 14.0195 13.2891 13.4427 13.2891 12.7305C13.2891 12.0197 12.7108 11.4414 12 11.4414H11.1406C10.568 11.4414 10.0974 11.8113 9.92474 12.3008H8.67164ZM11.1045 15.653C11.3989 15.7152 11.6991 15.7467 12 15.7469C12.2351 15.7469 12.4702 15.7272 12.7027 15.689L11.9434 16.492L11.1045 15.653ZM11.3527 17.1167L9.98979 18.5579C9.61431 17.8392 9.29275 17.0935 9.02777 16.3271L9.53957 15.3035L11.3527 17.1167ZM14.3876 15.1579L14.9721 16.3271C14.7072 17.0937 14.3856 17.8396 14.01 18.5586L12.5513 17.0999L14.3876 15.1579ZM10.7109 12.7305C10.7109 12.4932 10.9034 12.3008 11.1406 12.3008H12C12.2369 12.3008 12.4297 12.4935 12.4297 12.7305C12.4297 12.9677 12.2372 13.1602 12 13.1602H11.1406C10.9037 13.1602 10.7109 12.9674 10.7109 12.7305ZM2.99375 22.1406C3.16404 20.012 4.58067 18.0772 6.4872 17.4414L8.29592 16.8387C8.62774 17.756 9.03688 18.6435 9.51894 19.4916L9.52135 19.4959L9.52139 19.496C9.87572 20.1185 10.2685 20.7184 10.6975 21.292L11.2261 22.1406H2.99375ZM12 21.7576L11.4173 20.822C11.4107 20.8116 11.4038 20.8014 11.3964 20.7915C11.0483 20.3268 10.7251 19.844 10.4282 19.3451L11.9606 17.7246L13.5753 19.3392C13.2775 19.8402 12.9532 20.325 12.6037 20.7914C12.5827 20.8195 12.6125 20.7752 12 21.7576ZM12.7739 22.1406L13.3024 21.2921C13.7348 20.714 14.1303 20.1094 14.4868 19.4817C14.489 19.4779 14.491 19.4741 14.4931 19.4703L14.4939 19.4689C14.9705 18.6277 15.3753 17.7479 15.7041 16.8387L17.5128 17.4414C19.4193 18.0772 20.836 20.012 21.0063 22.1406H12.7739Z" fill="white"/>
<path d="M19.7147 20.4017C19.4276 19.8269 19.007 19.3163 18.4983 18.925C18.3102 18.7803 18.0405 18.8155 17.8958 19.0036C17.7511 19.1917 17.7863 19.4615 17.9743 19.6062C18.3806 19.9187 18.7165 20.3266 18.9459 20.7858C19.0522 20.9984 19.3104 21.084 19.5223 20.9782C19.7346 20.8721 19.8207 20.614 19.7147 20.4017Z" fill="white"/>
</svg>
