<svg width="24" height="24" viewBox="0 0 24 24" fill="none" xmlns="http://www.w3.org/2000/svg">
<g clip-path="url(#clip0_3396_5541)">
<path d="M21.4064 9.12708L18.9479 7.07526V4.16434C18.9479 3.91301 18.7286 3.72108 18.4727 3.72108H14.8945L13.4597 2.52381C12.6143 1.82464 11.3896 1.82464 10.5442 2.52838L9.10926 3.72108H5.48546C5.23413 3.72108 5.01021 3.90844 5.01021 4.16434V7.12096L2.59739 9.12708C2.49686 9.2139 2.43745 9.34642 2.44202 9.47895H2.45116V19.7106C2.45116 20.9718 3.46564 22 4.72232 22H19.2769C20.5382 22 21.5481 20.9673 21.5481 19.7106V9.47895H21.5572C21.5664 9.34185 21.5115 9.2139 21.4064 9.12708ZM18.9479 8.2634L20.3874 9.46067L18.9479 10.53V8.2634ZM11.1291 3.22755C11.6363 2.80713 12.3721 2.8117 12.8793 3.23212L13.4597 3.72108H10.5396L11.1291 3.22755ZM5.92416 4.63503H18.034V11.2109L12.829 15.086C12.3355 15.447 11.6683 15.447 11.1794 15.086L5.92416 11.1743V4.63503ZM5.01021 8.30452V10.4934L3.61644 9.4561L5.01021 8.30452ZM20.6387 19.706C20.6433 20.4646 20.0355 21.0815 19.2815 21.0861H4.72232C3.96831 21.0815 3.36054 20.4646 3.3651 19.7106V10.3883L10.6401 15.8217C11.449 16.4204 12.5548 16.4204 13.3637 15.8217L20.6387 10.3883V19.706Z" fill="white"/>
<path d="M11.6363 8.29077H9.16864C8.91731 8.29077 8.71167 8.49641 8.71167 8.74775C8.71167 8.99908 8.91731 9.20472 9.16864 9.20472H11.6363C11.8876 9.20472 12.0933 8.99908 12.0933 8.74775C12.0933 8.49641 11.8876 8.29077 11.6363 8.29077ZM14.8351 10.5756H9.16864C8.91731 10.5756 8.71167 10.7813 8.71167 11.0326C8.71167 11.2839 8.91731 11.4896 9.16864 11.4896H14.8351C15.0865 11.4896 15.2921 11.2839 15.2921 11.0326C15.2921 10.7813 15.0865 10.5756 14.8351 10.5756Z" fill="white"/>
</g>
<defs>
<clipPath id="clip0_3396_5541">
<rect width="20" height="20" fill="white" transform="translate(2 2)"/>
</clipPath>
</defs>
</svg>
