<svg width="24" height="24" viewBox="0 0 24 24" fill="none" xmlns="http://www.w3.org/2000/svg">
<path d="M8.07391 9.77819H11.0368C11.2924 9.77819 11.4997 9.57093 11.4997 9.31524C11.4997 9.05956 11.2924 8.85229 11.0368 8.85229H8.07391C7.81822 8.85229 7.61096 9.05956 7.61096 9.31524C7.61096 9.57093 7.81827 9.77819 8.07391 9.77819ZM13.8145 11.8615H8.07391C7.81822 11.8615 7.61096 12.0687 7.61096 12.3244C7.61096 12.5801 7.81822 12.7874 8.07391 12.7874H13.8144C14.0701 12.7874 14.2774 12.5801 14.2774 12.3244C14.2774 12.0687 14.0701 11.8615 13.8145 11.8615ZM13.8145 14.8706H8.07391C7.81822 14.8706 7.61096 15.0779 7.61096 15.3336C7.61096 15.5893 7.81822 15.7965 8.07391 15.7965H13.8144C14.0701 15.7965 14.2774 15.5893 14.2774 15.3336C14.2774 15.0779 14.0701 14.8706 13.8145 14.8706Z" fill="white"/>
<path d="M20.4346 18.3427V3.75986C20.4733 2.82746 19.7488 2.04019 18.8164 2.00147C18.7772 1.99983 18.7379 1.99956 18.6986 2.00067H8.74517C7.72667 2.00067 6.77765 2.74137 6.77765 3.75986V4.54686H5.96752C4.90844 4.57012 4.04843 5.40989 4 6.46808V21.0741C4.01482 21.2128 4.06522 21.3454 4.14633 21.459C4.22744 21.5725 4.3365 21.6632 4.46295 21.7222C4.59312 21.7797 4.73744 21.7972 4.87758 21.7725C5.01771 21.7477 5.14733 21.6819 5.24995 21.5833L6.66192 20.3102L8.35169 21.8148C8.47776 21.9317 8.64271 21.9977 8.81464 22C8.98572 21.9936 9.14931 21.9281 9.27758 21.8148L10.9442 20.3102L12.6108 21.8148C12.8744 22.0506 13.2731 22.0506 13.5367 21.8148L15.2264 20.3102L16.6153 21.5833C16.6968 21.6836 16.8107 21.7524 16.9375 21.7778C17.0642 21.8031 17.1959 21.7835 17.3097 21.7222C17.4224 21.6575 17.5147 21.5624 17.5761 21.4479C17.6375 21.3333 17.6655 21.2038 17.6569 21.0741V17.7871L17.9347 17.5788L19.3466 18.8519C19.4113 18.9136 19.4875 18.9617 19.571 18.9935C19.6545 19.0253 19.7434 19.0401 19.8327 19.0371C19.9127 19.0443 19.9931 19.0283 20.0642 18.9908C20.1831 18.9316 20.2819 18.8384 20.3478 18.723C20.4138 18.6076 20.444 18.4753 20.4346 18.3427ZM16.731 20.5649L15.6431 19.5001C15.398 19.2495 14.998 19.2392 14.7403 19.4769L13.0506 20.9815L11.4071 19.4769C11.2757 19.3718 11.1124 19.3144 10.9441 19.3144C10.7758 19.3144 10.6126 19.3718 10.4812 19.4769L8.81459 20.9815L7.12482 19.4769C6.98356 19.3612 6.80548 19.2998 6.62288 19.3041C6.44028 19.3083 6.26524 19.3778 6.1295 19.5001L4.92585 20.5649V6.46813C4.97215 5.92104 5.41884 5.4942 5.96748 5.47281H15.9208C16.4301 5.47281 16.731 5.95888 16.731 6.46813V20.5649ZM19.5087 3.75986V17.8335L18.3514 16.7687C18.1662 16.5835 18.1199 16.5372 17.657 16.6066V6.46813C17.657 5.44963 16.9394 4.54691 15.9209 4.54691H7.70354V3.75986C7.70354 3.25062 8.23592 2.92657 8.74517 2.92657H18.6985C19.1195 2.89919 19.483 3.21823 19.5104 3.63922C19.513 3.67941 19.5125 3.71977 19.5087 3.75986Z" fill="white"/>
</svg>
