<svg width="25" height="24" viewBox="0 0 25 24" fill="none" xmlns="http://www.w3.org/2000/svg">
<path d="M20.0425 9.5H19.9625C19.8452 9.49896 19.731 9.46264 19.6347 9.39575C19.5384 9.32886 19.4644 9.23451 19.4225 9.125C19.3784 9.01925 19.3667 8.90276 19.3889 8.79035C19.4112 8.67794 19.4664 8.5747 19.5475 8.49375L19.6044 8.43687C19.9472 8.09272 20.1397 7.62672 20.1397 7.14094C20.1397 6.65515 19.9472 6.18916 19.6044 5.845L18.66 4.90125C18.3161 4.55814 17.8502 4.36545 17.3644 4.36545C16.8786 4.36545 16.4126 4.55814 16.0687 4.90125L16.0119 4.95812C15.9281 5.03882 15.8226 5.0933 15.7082 5.11488C15.5939 5.13646 15.4758 5.1242 15.3684 5.0796C15.2609 5.035 15.1688 4.96001 15.1034 4.86382C15.038 4.76764 15.002 4.65444 15 4.53812V4.4575C14.9995 3.97164 14.8063 3.50583 14.4627 3.16228C14.1192 2.81872 13.6534 2.6255 13.1675 2.625H11.8325C11.3466 2.6255 10.8808 2.81872 10.5373 3.16228C10.1937 3.50583 10.0005 3.97164 10 4.4575V4.53812C9.99695 4.65361 9.9605 4.76573 9.89504 4.86092C9.82959 4.9561 9.73794 5.03028 9.6312 5.07445C9.52446 5.11863 9.40721 5.13092 9.29363 5.10983C9.18005 5.08874 9.07502 5.03518 8.99125 4.95563L8.9375 4.89875C8.59361 4.55564 8.12766 4.36295 7.64188 4.36295C7.15609 4.36295 6.69014 4.55564 6.34625 4.89875L5.39875 5.8425C5.05591 6.18666 4.86341 6.65265 4.86341 7.13844C4.86341 7.62422 5.05591 8.09022 5.39875 8.43437L5.45563 8.49125C5.53753 8.57505 5.59236 8.68154 5.61298 8.7969C5.63359 8.91225 5.61906 9.03114 5.57125 9.13812C5.52836 9.24469 5.45467 9.33604 5.35959 9.4005C5.26451 9.46496 5.15237 9.4996 5.0375 9.5H4.9575C4.47164 9.5005 4.00583 9.69372 3.66228 10.0373C3.31872 10.3808 3.1255 10.8466 3.125 11.3325V12.6675C3.1255 13.1534 3.31872 13.6192 3.66228 13.9627C4.00583 14.3063 4.47164 14.4995 4.9575 14.5H5.0375C5.15476 14.501 5.26899 14.5374 5.36531 14.6043C5.46163 14.6711 5.53557 14.7655 5.5775 14.875C5.62164 14.9807 5.63333 15.0972 5.61107 15.2096C5.58881 15.3221 5.53361 15.4253 5.4525 15.5063L5.39562 15.5631C5.05278 15.9073 4.86028 16.3733 4.86028 16.8591C4.86028 17.3448 5.05278 17.8108 5.39562 18.155L6.33938 19.0981C6.68321 19.4416 7.14932 19.6345 7.63531 19.6345C8.1213 19.6345 8.58741 19.4416 8.93125 19.0981L8.98812 19.0413C9.07197 18.9594 9.17846 18.9046 9.29379 18.884C9.40913 18.8634 9.528 18.8779 9.635 18.9256C9.74156 18.9683 9.83294 19.0419 9.89741 19.1369C9.96189 19.2319 9.99652 19.3439 9.99687 19.4587V19.5394C9.99671 19.7805 10.0441 20.0193 10.1363 20.242C10.2285 20.4648 10.3637 20.6672 10.5342 20.8377C10.7046 21.0082 10.9071 21.1434 11.1298 21.2356C11.3526 21.3278 11.5914 21.3752 11.8325 21.375H13.1675C13.6534 21.3745 14.1192 21.1813 14.4627 20.8377C14.8063 20.4942 14.9995 20.0284 15 19.5425V19.4619C15.003 19.3464 15.0395 19.2343 15.105 19.1391C15.1704 19.0439 15.2621 18.9697 15.3688 18.9255C15.4755 18.8814 15.5928 18.8691 15.7064 18.8902C15.82 18.9113 15.925 18.9648 16.0087 19.0444L16.0656 19.1012C16.4095 19.4444 16.8755 19.6371 17.3612 19.6371C17.847 19.6371 18.313 19.4444 18.6569 19.1012L19.6012 18.1581C19.9441 17.814 20.1366 17.348 20.1366 16.8622C20.1366 16.3764 19.9441 15.9104 19.6012 15.5662L19.5444 15.5094C19.4625 15.4256 19.4076 15.3191 19.387 15.2037C19.3664 15.0884 19.3809 14.9695 19.4288 14.8625C19.4715 14.7558 19.5452 14.6643 19.6403 14.5998C19.7354 14.5352 19.8476 14.5004 19.9625 14.5H20.0425C20.5284 14.4995 20.9942 14.3063 21.3377 13.9627C21.6813 13.6192 21.8745 13.1534 21.875 12.6675V11.3325C21.8745 10.8466 21.6813 10.3808 21.3377 10.0373C20.9942 9.69372 20.5284 9.5005 20.0425 9.5ZM20.625 12.6675C20.6248 12.8219 20.5634 12.97 20.4542 13.0792C20.345 13.1884 20.1969 13.2498 20.0425 13.25H19.9625C19.5998 13.2531 19.246 13.3629 18.9453 13.5656C18.6446 13.7684 18.4102 14.0552 18.2714 14.3903C18.1326 14.7254 18.0955 15.094 18.1647 15.45C18.2339 15.806 18.4064 16.1338 18.6606 16.3925L18.7169 16.4494C18.826 16.5588 18.8873 16.707 18.8873 16.8616C18.8873 17.0161 18.826 17.1643 18.7169 17.2738L17.7725 18.2169C17.6633 18.3261 17.5151 18.3875 17.3606 18.3875C17.2061 18.3875 17.058 18.3261 16.9487 18.2169L16.8925 18.16C16.6337 17.906 16.3059 17.7338 15.95 17.6648C15.5941 17.5957 15.2257 17.6329 14.8907 17.7717C14.5557 17.9104 14.269 18.1447 14.0662 18.4452C13.8633 18.7458 13.7534 19.0993 13.75 19.4619V19.5425C13.7498 19.6969 13.6884 19.845 13.5792 19.9542C13.47 20.0634 13.3219 20.1248 13.1675 20.125H11.8325C11.6781 20.1248 11.53 20.0634 11.4208 19.9542C11.3116 19.845 11.2502 19.6969 11.25 19.5425V19.4619C11.2482 19.0986 11.1392 18.7439 10.9366 18.4423C10.7341 18.1407 10.4469 17.9057 10.1113 17.7667C9.7756 17.6277 9.40637 17.591 9.04989 17.6611C8.69342 17.7311 8.36557 17.9049 8.1075 18.1606L8.05062 18.2175C7.94122 18.3264 7.79313 18.3876 7.63875 18.3876C7.48437 18.3876 7.33628 18.3264 7.22688 18.2175L6.28312 17.2744C6.17401 17.1649 6.11273 17.0167 6.11273 16.8622C6.11273 16.7077 6.17401 16.5594 6.28312 16.45L6.34 16.3931C6.5945 16.1344 6.76718 15.8065 6.83649 15.4503C6.90581 15.0941 6.86869 14.7254 6.72977 14.3902C6.59084 14.0549 6.35627 13.768 6.05532 13.5653C5.75437 13.3625 5.40037 13.2528 5.0375 13.25H4.9575C4.80306 13.2498 4.655 13.1884 4.54579 13.0792C4.43659 12.97 4.37517 12.8219 4.375 12.6675V11.3325C4.37517 11.1781 4.43659 11.03 4.54579 10.9208C4.655 10.8116 4.80306 10.7502 4.9575 10.75H5.0375C5.40019 10.7469 5.75395 10.6371 6.05468 10.4344C6.3554 10.2316 6.58979 9.94476 6.72861 9.60967C6.86743 9.27458 6.90454 8.90604 6.83533 8.55C6.76611 8.19396 6.59363 7.86617 6.33938 7.6075L6.28312 7.55062C6.17405 7.4413 6.11279 7.29318 6.11279 7.13875C6.11279 6.98432 6.17405 6.83619 6.28312 6.72688L7.22688 5.7825C7.33611 5.67327 7.48427 5.6119 7.63875 5.6119C7.79323 5.6119 7.94139 5.67327 8.05062 5.7825L8.10687 5.83938C8.36559 6.0935 8.69336 6.2659 9.04935 6.33509C9.40534 6.40428 9.77382 6.36721 10.1089 6.22849C10.444 6.08977 10.7308 5.85554 10.9337 5.55496C11.1366 5.25439 11.2466 4.90076 11.25 4.53812V4.4575C11.2502 4.30306 11.3116 4.155 11.4208 4.04579C11.53 3.93659 11.6781 3.87517 11.8325 3.875H13.1675C13.3219 3.87517 13.47 3.93659 13.5792 4.04579C13.6884 4.155 13.7498 4.30306 13.75 4.4575V4.53812C13.7532 4.90076 13.8631 5.25444 14.0659 5.55507C14.2687 5.8557 14.5555 6.08999 14.8906 6.22873C15.2257 6.36748 15.5942 6.40454 15.9501 6.3353C16.3061 6.26607 16.6339 6.09359 16.8925 5.83938L16.9494 5.7825C17.0586 5.67327 17.2068 5.6119 17.3612 5.6119C17.5157 5.6119 17.6639 5.67327 17.7731 5.7825L18.7169 6.72688C18.826 6.83619 18.8872 6.98432 18.8872 7.13875C18.8872 7.29318 18.826 7.4413 18.7169 7.55062L18.66 7.6075C18.4057 7.86621 18.2332 8.19406 18.164 8.55016C18.0948 8.90625 18.132 9.27484 18.2709 9.60996C18.4098 9.94507 18.6443 10.2319 18.9451 10.4346C19.2459 10.6373 19.5998 10.747 19.9625 10.75H20.0425C20.1969 10.7502 20.345 10.8116 20.4542 10.9208C20.5634 11.03 20.6248 11.1781 20.625 11.3325V12.6675Z" fill="white"/>
<path d="M12.5 7.625C11.6347 7.625 10.7888 7.88159 10.0694 8.36232C9.34992 8.84305 8.78916 9.52633 8.45803 10.3258C8.1269 11.1252 8.04026 12.0049 8.20907 12.8535C8.37788 13.7022 8.79456 14.4817 9.40641 15.0936C10.0183 15.7054 10.7978 16.1221 11.6465 16.2909C12.4951 16.4597 13.3748 16.3731 14.1742 16.042C14.9737 15.7108 15.657 15.1501 16.1377 14.4306C16.6184 13.7112 16.875 12.8653 16.875 12C16.8737 10.8401 16.4123 9.72805 15.5921 8.90787C14.7719 8.08768 13.6599 7.62632 12.5 7.625ZM12.5 15.125C11.8819 15.125 11.2777 14.9417 10.7638 14.5983C10.2499 14.255 9.8494 13.7669 9.61288 13.1959C9.37635 12.6249 9.31447 11.9965 9.43505 11.3903C9.55563 10.7842 9.85325 10.2273 10.2903 9.79029C10.7273 9.35325 11.2842 9.05562 11.8903 8.93505C12.4965 8.81447 13.1249 8.87635 13.6959 9.11288C14.2669 9.3494 14.755 9.74994 15.0983 10.2638C15.4417 10.7777 15.625 11.3819 15.625 12C15.624 12.8285 15.2945 13.6228 14.7086 14.2086C14.1228 14.7945 13.3285 15.124 12.5 15.125Z" fill="white"/>
</svg>
